0
SECTION
2
HEADER
9
$INSUNITS
70
4
9
$ACADVER
1
AC1014
9
$HANDSEED
5
FFFF
0
ENDSEC
0
SECTION
2
TABLES
0
TABLE
2
VPORT
5
8
100
AcDbSymbolTable
0
ENDTAB
0
TABLE
2
LTYPE
5
5
100
AcDbSymbolTable
0
LTYPE
5
14
100
AcDbSymbolTableRecord
100
AcDbLinetypeTableRecord
2
BYBLOCK
70
0
0
LTYPE
5
15
100
AcDbSymbolTableRecord
100
AcDbLinetypeTableRecord
2
BYLAYER
70
0
0
ENDTAB
0
TABLE
2
LAYER
5
2
100
AcDbSymbolTable
70
2
0
LAYER
5
50
100
AcDbSymbolTableRecord
100
AcDbLayerTableRecord
2
0
70
0
6
CONTINUOUS
0
ENDTAB
0
TABLE
2
STYLE
5
3
100
AcDbSymbolTable
70
1
0
STYLE
5
11
100
AcDbSymbolTableRecord
100
AcDbTextStyleTableRecord
2
STANDARD
70
0
0
ENDTAB
0
TABLE
2
VIEW
5
6
100
AcDbSymbolTable
70
0
0
ENDTAB
0
TABLE
2
UCS
5
7
100
AcDbSymbolTable
70
0
0
ENDTAB
0
TABLE
2
APPID
5
9
100
AcDbSymbolTable
70
2
0
APPID
5
12
100
AcDbSymbolTableRecord
100
AcDbRegAppTableRecord
2
ACAD
70
0
0
ENDTAB
0
TABLE
2
DIMSTYLE
5
A
100
AcDbSymbolTable
70
1
0
ENDTAB
0
TABLE
2
BLOCK_RECORD
5
1
100
AcDbSymbolTable
70
1
0
BLOCK_RECORD
5
1F
100
AcDbSymbolTableRecord
100
AcDbBlockTableRecord
2
*MODEL_SPACE
0
BLOCK_RECORD
5
1B
100
AcDbSymbolTableRecord
100
AcDbBlockTableRecord
2
*PAPER_SPACE
0
ENDTAB
0
ENDSEC
0
SECTION
2
BLOCKS
0
BLOCK
5
20
100
AcDbEntity
100
AcDbBlockBegin
2
*MODEL_SPACE
0
ENDBLK
5
21
100
AcDbEntity
100
AcDbBlockEnd
0
BLOCK
5
1C
100
AcDbEntity
100
AcDbBlockBegin
2
*PAPER_SPACE
0
ENDBLK
5
1D
100
AcDbEntity
100
AcDbBlockEnd
0
ENDSEC
0
SECTION
2
ENTITIES
0
LWPOLYLINE
5
100
100
AcDbEntity
8
0
100
AcDbPolyline
90
8
70
1
43
0.0
10
-30.350000000000009
20
16.000000000000007
10
30.350000000000001
20
15.999999999999993
42
-0.41421356237309531
10
32.950000000000003
20
13.399999999999997
10
32.950000000000003
20
-13.399999999999997
42
-0.41421356237309531
10
30.350000000000005
20
-15.999999999999996
10
-30.350000000000009
20
-16.000000000000007
42
-0.41421356237309531
10
-32.95000000000001
20
-13.400000000000006
10
-32.95000000000001
20
13.400000000000007
42
-0.41421356237309503
0
CIRCLE
5
101
100
AcDbEntity
8
0
100
AcDbCircle
10
-30.350000000000009
20
-13.400000000000007
30
0
40
1.6000000000000001
210
0
220
0
230
1
0
CIRCLE
5
102
100
AcDbEntity
8
0
100
AcDbCircle
10
30.350000000000005
20
13.399999999999999
30
0
40
1.6000000000000001
210
0
220
0
230
1
0
CIRCLE
5
103
100
AcDbEntity
8
0
100
AcDbCircle
10
-30.350000000000009
20
13.400000000000007
30
0
40
1.6000000000000001
210
0
220
0
230
1
0
LINE
5
104
100
AcDbEntity
8
0
100
AcDbLine
10
1.5265566588595902e-15
20
32.000000476837151
30
0
11
-2.2204460492503131e-15
21
-26.525319664828505
31
0
0
LINE
5
105
100
AcDbEntity
8
0
100
AcDbLine
10
-44.000000655651093
20
0
30
0
11
61.946090460251774
21
0
31
0
0
CIRCLE
5
106
100
AcDbEntity
8
0
100
AcDbCircle
10
30.350000000000005
20
-13.399999999999999
30
0
40
1.6000000000000001
210
0
220
0
230
1
0
LWPOLYLINE
5
107
100
AcDbEntity
8
0
100
AcDbPolyline
90
4
70
1
43
0.0
10
-32.95000000000001
20
8.4249999999999972
10
-24.050000000000008
20
8.4249999999999972
10
-24.050000000000008
20
-1.0750000000000037
10
-32.95000000000001
20
-1.0750000000000037
0
LWPOLYLINE
5
108
100
AcDbEntity
8
0
100
AcDbPolyline
90
4
70
1
43
0.0
10
22.949999999999999
20
-7.9999999999999982
10
32.950000000000003
20
-7.9999999999999982
10
32.950000000000003
20
7.9999999999999973
10
22.949999999999999
20
8.0000000000000036
0
LWPOLYLINE
5
109
100
AcDbEntity
8
0
100
AcDbPolyline
90
4
70
1
43
0.0
10
-13.463994666425148
20
11.699999999999999
10
14.536005333574856
20
11.699999999999999
10
14.536005333574856
20
-1.8000000000000025
10
-13.463994666425148
20
-1.8000000000000025
0
LWPOLYLINE
5
110
100
AcDbEntity
8
0
100
AcDbPolyline
90
4
70
1
43
0.0
10
-32.95000000000001
20
-3.0750000000000037
10
-27.95000000000001
20
-3.0750000000000037
10
-27.95000000000001
20
-8.4250000000000043
10
-32.95000000000001
20
-8.4250000000000043
0
LWPOLYLINE
5
111
100
AcDbEntity
8
0
100
AcDbPolyline
90
4
70
1
43
0.0
10
-20.350000000000009
20
-15.199999999999999
10
-20.350000000000009
20
-12.300000000000001
10
-14.850000000000012
20
-12.299999999999995
10
-14.850000000000012
20
-15.199999999999999
0
LWPOLYLINE
5
112
100
AcDbEntity
8
0
100
AcDbPolyline
90
4
70
1
43
0.0
10
-27.149999999999999
20
-15.200000000000005
10
-27.149999999999999
20
-12.300000000000004
10
-21.649999999999999
20
-12.300000000000004
10
-21.649999999999999
20
-15.200000000000005
0
LWPOLYLINE
5
113
100
AcDbEntity
8
0
100
AcDbPolyline
90
4
70
1
43
0.0
10
-13.550000000000004
20
15.199999999999999
10
27.450000000000003
20
15.199999999999999
10
27.450000000000003
20
12.699999999999999
10
-13.550000000000004
20
12.699999999999999
0
LWPOLYLINE
5
114
100
AcDbEntity
8
0
100
AcDbPolyline
90
4
70
1
43
0.0
10
-13.550000000000004
20
-12.699999999999999
10
27.450000000000003
20
-12.699999999999999
10
27.450000000000003
20
-15.199999999999999
10
-13.550000000000004
20
-15.199999999999999
0
LWPOLYLINE
5
115
100
AcDbEntity
8
0
100
AcDbPolyline
90
4
70
1
43
0.0
10
-25.400000000000006
20
-9.8000000000000007
10
-23.400000000000002
20
-9.8000000000000007
10
-23.400000000000002
20
-10.800000000000001
10
-25.399999999999995
20
-10.800000000000001
0
LWPOLYLINE
5
116
100
AcDbEntity
8
0
100
AcDbPolyline
90
4
70
1
43
0.0
10
-18.600000000000001
20
-9.8000000000000007
10
-16.600000000000005
20
-9.8000000000000007
10
-16.600000000000005
20
-10.800000000000001
10
-18.600000000000001
20
-10.800000000000001
0
LWPOLYLINE
5
117
100
AcDbEntity
8
0
100
AcDbPolyline
90
4
70
1
43
0.0
10
2.7755575615628914e-16
20
7.6999999999999975
10
2.6000000000000001
20
7.6999999999999975
10
2.6000000000000001
20
2.1999999999999984
10
2.7755575615628914e-16
20
2.1999999999999984
0
LINE
5
118
100
AcDbEntity
8
0
100
AcDbLine
10
-14.500000216066837
20
4.9499999999999993
30
0
11
16.000000238418579
21
4.9499999999999975
31
0
0
LINE
5
119
100
AcDbEntity
8
0
100
AcDbLine
10
-24.400000000000006
20
-8.0000001192092896
30
0
11
-24.400000000000006
21
-17.00000025331974
31
0
0
LINE
5
120
100
AcDbEntity
8
0
100
AcDbLine
10
-17.600000000000001
20
-8.0000001192092896
30
0
11
-17.600000000000001
21
-17.00000025331974
31
0
0
LWPOLYLINE
5
121
100
AcDbEntity
8
0
100
AcDbPolyline
90
4
70
1
43
0.0
10
-27.150000000000006
20
15.200000000000006
10
-21.650000000000006
20
15.200000000000006
10
-21.650000000000006
20
12.300000000000006
10
-27.150000000000006
20
12.300000000000006
0
LWPOLYLINE
5
122
100
AcDbEntity
8
0
100
AcDbPolyline
90
4
70
1
43
0.0
10
-20.850000000000005
20
15.200000000000005
10
-14.850000000000003
20
15.200000000000005
10
-14.850000000000003
20
12.700000000000005
10
-20.850000000000005
20
12.700000000000005
0
ENDSEC
0
SECTION
2
OBJECTS
0
DICTIONARY
5
C
100
AcDbDictionary
3
ACAD_GROUP
350
D
3
ACAD_MLINESTYLE
350
17
0
DICTIONARY
5
D
100
AcDbDictionary
0
DICTIONARY
5
1A
330
C
100
AcDbDictionary
0
DICTIONARY
5
17
100
AcDbDictionary
0
ENDSEC
0
EOF
