M48
; DRILL file {KiCad 7.0.2} date Thu May 11 00:10:08 2023
; FORMAT={-:-/ absolute / metric / decimal}
; #@! TF.CreationDate,2023-05-11T00:10:08+08:00
; #@! TF.GenerationSoftware,Kicad,Pcbnew,7.0.2
; #@! TF.FileFunction,Plated,1,4,PTH
FMAT,2
METRIC
; #@! TA.AperFunction,Plated,PTH,ViaDrill
T1C0.250
; #@! TA.AperFunction,Plated,PTH,ViaDrill
T2C0.300
; #@! TA.AperFunction,Plated,PTH,ComponentDrill
T3C0.600
; #@! TA.AperFunction,Plated,PTH,ComponentDrill
T4C1.000
%
G90
G05
T1
X109.347Y-93.472
X112.395Y-85.852
X114.427Y-93.218
X114.427Y-91.694
X115.09Y-83.478
X116.332Y-94.869
X117.983Y-108.458
X118.046Y-83.248
X119.761Y-103.759
X122.039Y-88.634
X122.555Y-89.481
X122.555Y-107.942
X123.158Y-88.706
X123.19Y-84.328
X123.724Y-89.434
X123.825Y-108.966
X125.361Y-108.966
X130.365Y-94.551
X130.429Y-97.663
X133.32Y-99.077
X134.755Y-92.164
X135.512Y-91.931
X137.16Y-92.71
X138.154Y-92.682
X138.43Y-100.588
X138.954Y-92.71
X139.149Y-90.834
X139.325Y-100.581
X139.544Y-102.743
X139.726Y-90.538
X139.954Y-103.505
X140.081Y-100.617
X140.22Y-102.815
X140.866Y-102.741
X141.351Y-90.678
X142.488Y-100.797
X143.094Y-100.492
X143.799Y-99.695
X143.879Y-98.618
X144.03Y-100.528
X144.653Y-85.979
X146.225Y-89.911
X146.304Y-105.918
X146.38Y-102.961
X150.304Y-107.302
X152.654Y-107.315
X157.48Y-98.552
X157.543Y-97.028
X157.734Y-83.312
X160.274Y-83.058
X167.767Y-86.614
T2
X110.617Y-105.918
X110.617Y-106.553
X111.004Y-93.478
X111.252Y-105.918
X111.252Y-106.553
X112.105Y-91.885
X112.522Y-93.472
X112.973Y-94.685
X113.183Y-90.144
X113.538Y-103.124
X113.602Y-91.885
X114.173Y-103.7
X114.808Y-101.346
X114.808Y-102.362
X114.935Y-99.314
X115.316Y-85.09
X115.316Y-85.725
X115.951Y-85.09
X115.951Y-85.725
X116.332Y-90.043
X116.459Y-104.14
X118.618Y-107.569
X119.253Y-85.725
X121.11Y-98.386
X121.158Y-92.456
X121.909Y-98.386
X122.682Y-94.869
X122.704Y-98.296
X123.571Y-91.313
X123.698Y-104.648
X123.952Y-91.821
X123.952Y-97.663
X124.587Y-97.663
X125.222Y-97.663
X125.349Y-89.281
X125.349Y-93.091
X125.603Y-84.455
X126.111Y-104.521
X128.778Y-88.773
X129.286Y-88.011
X129.54Y-105.664
X130.429Y-95.504
X130.937Y-102.616
X131.318Y-104.521
X131.572Y-108.458
X131.826Y-96.901
X131.88Y-88.45
X132.08Y-98.679
X132.715Y-104.521
X133.44Y-88.528
X133.51Y-99.776
X133.51Y-100.626
X133.61Y-91.74
X133.97Y-90.79
X134.747Y-91.44
X135.89Y-107.569
X136.017Y-95.758
X136.764Y-104.873
X137.287Y-97.155
X137.287Y-97.79
X137.64Y-105.468
X137.922Y-97.155
X137.922Y-97.79
X138.273Y-90.773
X138.63Y-104.083
X139.381Y-104.36
X139.44Y-87.53
X140.34Y-88.91
X142.68Y-89.468
X144.145Y-105.791
X144.185Y-90.043
X146.05Y-101.6
X146.169Y-100.27
X146.752Y-98.759
X146.77Y-99.742
X147.066Y-103.378
X147.341Y-101.885
X148.336Y-106.934
X149.606Y-100.457
X150.241Y-84.963
X150.876Y-91.499
X155.067Y-83.439
X157.317Y-96.225
X157.353Y-94.107
X157.429Y-90.729
X157.506Y-92.228
X158.242Y-95.25
X159.258Y-90.424
X163.068Y-95.631
X163.195Y-96.647
X169.799Y-106.045
X169.799Y-106.68
X170.307Y-85.217
X170.307Y-85.852
X170.434Y-106.045
X170.434Y-106.68
X170.942Y-85.217
X170.942Y-85.852
T4
X121.544Y-82.169
X124.084Y-82.169
X128.524Y-82.042
X128.524Y-109.982
X131.064Y-82.042
X131.064Y-109.982
X133.604Y-82.042
X133.604Y-109.982
X136.144Y-82.042
X136.144Y-109.982
X138.684Y-82.042
X138.684Y-109.982
X141.224Y-82.042
X141.224Y-109.982
X143.764Y-82.042
X143.764Y-109.982
X146.304Y-82.042
X146.304Y-109.982
X148.971Y-82.042
X148.971Y-109.982
X151.511Y-82.042
X151.511Y-109.982
X154.051Y-82.042
X154.051Y-109.982
X156.591Y-82.042
X156.591Y-109.982
X159.131Y-82.042
X159.131Y-109.982
X161.671Y-82.042
X161.671Y-109.982
X164.211Y-82.042
X164.211Y-109.982
X166.751Y-82.042
X166.751Y-109.982
T3
G00X110.922Y-88.124
M15
G01X110.122Y-88.124
M16
G05
G00X110.922Y-96.764
M15
G01X110.122Y-96.764
M16
G05
G00X115.252Y-88.124
M15
G01X114.152Y-88.124
M16
G05
G00X115.252Y-96.764
M15
G01X114.152Y-96.764
M16
G05
T0
M30
