%TF.GenerationSoftware,KiCad,Pcbnew,7.0.2*%
%TF.CreationDate,2023-05-11T00:09:11+08:00*%
%TF.ProjectId,LinuxDK,4c696e75-7844-44b2-9e6b-696361645f70,rev?*%
%TF.SameCoordinates,Original*%
%TF.FileFunction,Paste,Top*%
%TF.FilePolarity,Positive*%
%FSLAX46Y46*%
G04 Gerber Fmt 4.6, Leading zero omitted, Abs format (unit mm)*
G04 Created by KiCad (PCBNEW 7.0.2) date 2023-05-11 00:09:11*
%MOMM*%
%LPD*%
G01*
G04 APERTURE LIST*
G04 Aperture macros list*
%AMRoundRect*
0 Rectangle with rounded corners*
0 $1 Rounding radius*
0 $2 $3 $4 $5 $6 $7 $8 $9 X,Y pos of 4 corners*
0 Add a 4 corners polygon primitive as box body*
4,1,4,$2,$3,$4,$5,$6,$7,$8,$9,$2,$3,0*
0 Add four circle primitives for the rounded corners*
1,1,$1+$1,$2,$3*
1,1,$1+$1,$4,$5*
1,1,$1+$1,$6,$7*
1,1,$1+$1,$8,$9*
0 Add four rect primitives between the rounded corners*
20,1,$1+$1,$2,$3,$4,$5,0*
20,1,$1+$1,$4,$5,$6,$7,0*
20,1,$1+$1,$6,$7,$8,$9,0*
20,1,$1+$1,$8,$9,$2,$3,0*%
G04 Aperture macros list end*
%ADD10RoundRect,0.200000X0.275000X-0.200000X0.275000X0.200000X-0.275000X0.200000X-0.275000X-0.200000X0*%
%ADD11RoundRect,0.225000X0.250000X-0.225000X0.250000X0.225000X-0.250000X0.225000X-0.250000X-0.225000X0*%
%ADD12RoundRect,0.200000X-0.200000X-0.275000X0.200000X-0.275000X0.200000X0.275000X-0.200000X0.275000X0*%
%ADD13RoundRect,0.150000X-0.150000X0.512500X-0.150000X-0.512500X0.150000X-0.512500X0.150000X0.512500X0*%
%ADD14RoundRect,0.100000X0.750000X-0.150000X0.750000X0.150000X-0.750000X0.150000X-0.750000X-0.150000X0*%
%ADD15RoundRect,0.200000X1.050000X-0.400000X1.050000X0.400000X-1.050000X0.400000X-1.050000X-0.400000X0*%
%ADD16R,1.150000X0.600000*%
%ADD17R,1.150000X0.300000*%
%ADD18RoundRect,0.225000X-0.250000X0.225000X-0.250000X-0.225000X0.250000X-0.225000X0.250000X0.225000X0*%
%ADD19RoundRect,0.200000X-0.275000X0.200000X-0.275000X-0.200000X0.275000X-0.200000X0.275000X0.200000X0*%
%ADD20R,1.300000X0.300000*%
%ADD21R,2.200000X1.800000*%
%ADD22RoundRect,0.218750X-0.218750X-0.256250X0.218750X-0.256250X0.218750X0.256250X-0.218750X0.256250X0*%
%ADD23RoundRect,0.150000X0.587500X0.150000X-0.587500X0.150000X-0.587500X-0.150000X0.587500X-0.150000X0*%
%ADD24RoundRect,0.337500X-0.337500X-0.562500X0.337500X-0.562500X0.337500X0.562500X-0.337500X0.562500X0*%
%ADD25RoundRect,0.042000X0.943000X0.258000X-0.943000X0.258000X-0.943000X-0.258000X0.943000X-0.258000X0*%
%ADD26R,1.650000X0.650000*%
%ADD27RoundRect,0.200000X0.200000X0.275000X-0.200000X0.275000X-0.200000X-0.275000X0.200000X-0.275000X0*%
%ADD28RoundRect,0.150000X0.512500X0.150000X-0.512500X0.150000X-0.512500X-0.150000X0.512500X-0.150000X0*%
%ADD29RoundRect,0.300000X0.700000X-0.300000X0.700000X0.300000X-0.700000X0.300000X-0.700000X-0.300000X0*%
%ADD30RoundRect,0.500000X0.500000X-0.750000X0.500000X0.750000X-0.500000X0.750000X-0.500000X-0.750000X0*%
%ADD31RoundRect,0.225000X-0.225000X-0.250000X0.225000X-0.250000X0.225000X0.250000X-0.225000X0.250000X0*%
%ADD32RoundRect,0.225000X0.225000X0.250000X-0.225000X0.250000X-0.225000X-0.250000X0.225000X-0.250000X0*%
G04 APERTURE END LIST*
D10*
%TO.C,R29*%
X133096000Y-104838000D03*
X133096000Y-103188000D03*
%TD*%
D11*
%TO.C,C7*%
X150241000Y-105791000D03*
X150241000Y-104241000D03*
%TD*%
D12*
%TO.C,R24*%
X149035000Y-90170000D03*
X150685000Y-90170000D03*
%TD*%
D13*
%TO.C,U1*%
X153731000Y-104436500D03*
X151831000Y-104436500D03*
X152781000Y-106711500D03*
%TD*%
D14*
%TO.C,J2*%
X112517000Y-102854000D03*
X112517000Y-101854000D03*
X112517000Y-100854000D03*
D15*
X109117000Y-103954000D03*
X109117000Y-99754000D03*
%TD*%
D16*
%TO.C,J4*%
X115277000Y-89244500D03*
X115277000Y-90044500D03*
D17*
X115277000Y-91194500D03*
X115277000Y-92194500D03*
X115277000Y-92694500D03*
X115277000Y-93694500D03*
D16*
X115277000Y-95644500D03*
X115277000Y-94844500D03*
D17*
X115277000Y-94194500D03*
X115277000Y-93194500D03*
X115277000Y-91694500D03*
X115277000Y-90694500D03*
%TD*%
D18*
%TO.C,C5*%
X155321000Y-104241000D03*
X155321000Y-105791000D03*
%TD*%
D12*
%TO.C,R6*%
X157975800Y-90728800D03*
X159625800Y-90728800D03*
%TD*%
D11*
%TO.C,C8*%
X148717000Y-105791000D03*
X148717000Y-104241000D03*
%TD*%
D18*
%TO.C,C31*%
X162306000Y-101079000D03*
X162306000Y-102629000D03*
%TD*%
D12*
%TO.C,R20*%
X157975800Y-97028000D03*
X159625800Y-97028000D03*
%TD*%
D11*
%TO.C,C33*%
X130937000Y-106439000D03*
X130937000Y-104889000D03*
%TD*%
D19*
%TO.C,R35*%
X115443000Y-99124000D03*
X115443000Y-100774000D03*
%TD*%
D20*
%TO.C,J6*%
X145334600Y-89410600D03*
X145334600Y-89910600D03*
X145334600Y-90410600D03*
X145334600Y-90910600D03*
X145334600Y-91410600D03*
X145334600Y-91910600D03*
X145334600Y-92410600D03*
X145334600Y-92910600D03*
D21*
X142084600Y-87510600D03*
X142084600Y-94810600D03*
%TD*%
D12*
%TO.C,R19*%
X157975800Y-92202000D03*
X159625800Y-92202000D03*
%TD*%
D18*
%TO.C,C30*%
X143967200Y-103263400D03*
X143967200Y-104813400D03*
%TD*%
D22*
%TO.C,D1*%
X115544500Y-106426000D03*
X117119500Y-106426000D03*
%TD*%
D23*
%TO.C,Q3*%
X150416500Y-88707000D03*
X150416500Y-86807000D03*
X148541500Y-87757000D03*
%TD*%
D24*
%TO.C,S3*%
X114309000Y-82296000D03*
X118609000Y-82296000D03*
%TD*%
%TO.C,S1*%
X121040000Y-109982000D03*
X125340000Y-109982000D03*
%TD*%
D25*
%TO.C,U4*%
X122358000Y-102997000D03*
X122358000Y-101727000D03*
X122358000Y-100457000D03*
X122358000Y-99187000D03*
X117418000Y-99187000D03*
X117418000Y-100457000D03*
X117418000Y-101727000D03*
X117418000Y-102997000D03*
%TD*%
D26*
%TO.C,IC3*%
X134957000Y-103124000D03*
X134957000Y-104394000D03*
X134957000Y-105664000D03*
X134957000Y-106934000D03*
X142157000Y-106934000D03*
X142157000Y-105664000D03*
X142157000Y-104394000D03*
X142157000Y-103124000D03*
%TD*%
D27*
%TO.C,R30*%
X125234200Y-84734400D03*
X123584200Y-84734400D03*
%TD*%
D19*
%TO.C,R31*%
X128016000Y-101664000D03*
X128016000Y-103314000D03*
%TD*%
D22*
%TO.C,D2*%
X122402500Y-106426000D03*
X123977500Y-106426000D03*
%TD*%
D28*
%TO.C,U2*%
X128899500Y-106614000D03*
X128899500Y-105664000D03*
X128899500Y-104714000D03*
X126624500Y-104714000D03*
X126624500Y-105664000D03*
X126624500Y-106614000D03*
%TD*%
D29*
%TO.C,J1*%
X164110000Y-99639000D03*
X164110000Y-97139000D03*
X164110000Y-95139000D03*
X164110000Y-92639000D03*
D30*
X165910000Y-103389000D03*
X165910000Y-88889000D03*
X171910000Y-88889000D03*
X171910000Y-103389000D03*
%TD*%
D12*
%TO.C,R15*%
X148654000Y-107302000D03*
X150304000Y-107302000D03*
%TD*%
D24*
%TO.C,S2*%
X114182000Y-109982000D03*
X118482000Y-109982000D03*
%TD*%
D19*
%TO.C,R36*%
X115443000Y-103822000D03*
X115443000Y-102172000D03*
%TD*%
D27*
%TO.C,R23*%
X150685000Y-85344000D03*
X149035000Y-85344000D03*
%TD*%
D18*
%TO.C,C14*%
X152146000Y-86982000D03*
X152146000Y-88532000D03*
%TD*%
D31*
%TO.C,C36*%
X121355200Y-104546400D03*
X122905200Y-104546400D03*
%TD*%
D19*
%TO.C,R32*%
X126492000Y-101664000D03*
X126492000Y-103314000D03*
%TD*%
D12*
%TO.C,R21*%
X157975800Y-98552000D03*
X159625800Y-98552000D03*
%TD*%
D18*
%TO.C,C32*%
X129540000Y-101714000D03*
X129540000Y-103264000D03*
%TD*%
D32*
%TO.C,C35*%
X118434800Y-104546400D03*
X116884800Y-104546400D03*
%TD*%
M02*
