%TF.GenerationSoftware,KiCad,Pcbnew,7.0.2*%
%TF.CreationDate,2023-05-11T00:09:11+08:00*%
%TF.ProjectId,LinuxDK,4c696e75-7844-44b2-9e6b-696361645f70,rev?*%
%TF.SameCoordinates,Original*%
%TF.FileFunction,Copper,L2,Inr*%
%TF.FilePolarity,Positive*%
%FSLAX46Y46*%
G04 Gerber Fmt 4.6, Leading zero omitted, Abs format (unit mm)*
G04 Created by KiCad (PCBNEW 7.0.2) date 2023-05-11 00:09:11*
%MOMM*%
%LPD*%
G01*
G04 APERTURE LIST*
%TA.AperFunction,ComponentPad*%
%ADD10R,1.700000X1.700000*%
%TD*%
%TA.AperFunction,ComponentPad*%
%ADD11O,1.700000X1.700000*%
%TD*%
%TA.AperFunction,ComponentPad*%
%ADD12O,2.100000X1.050000*%
%TD*%
%TA.AperFunction,ComponentPad*%
%ADD13O,2.000000X1.000000*%
%TD*%
%TA.AperFunction,ViaPad*%
%ADD14C,0.450000*%
%TD*%
%TA.AperFunction,ViaPad*%
%ADD15C,0.600000*%
%TD*%
G04 APERTURE END LIST*
D10*
%TO.N,/USB_ID*%
%TO.C,J7*%
X124084000Y-82169000D03*
D11*
%TO.N,GND*%
X121544000Y-82169000D03*
%TD*%
D10*
%TO.N,/PD14*%
%TO.C,J9*%
X148971000Y-82042000D03*
D11*
%TO.N,/PD15*%
X151511000Y-82042000D03*
%TO.N,/PD16*%
X154051000Y-82042000D03*
%TO.N,/PD17*%
X156591000Y-82042000D03*
%TO.N,/PD18*%
X159131000Y-82042000D03*
%TO.N,/PD19*%
X161671000Y-82042000D03*
%TO.N,/PD20*%
X164211000Y-82042000D03*
%TO.N,/PD21*%
X166751000Y-82042000D03*
%TD*%
D12*
%TO.N,GND*%
%TO.C,J4*%
X114702000Y-88124500D03*
D13*
X110522000Y-88124500D03*
X110522000Y-96764500D03*
D12*
X114702000Y-96764500D03*
%TD*%
D10*
%TO.N,+3.3V*%
%TO.C,J8*%
X128524000Y-82042000D03*
D11*
%TO.N,GND*%
X131064000Y-82042000D03*
%TO.N,/PD0*%
X133604000Y-82042000D03*
%TO.N,/PD1*%
X136144000Y-82042000D03*
%TO.N,/PD2*%
X138684000Y-82042000D03*
%TO.N,/PD6*%
X141224000Y-82042000D03*
%TO.N,/PD12*%
X143764000Y-82042000D03*
%TO.N,/PD13*%
X146304000Y-82042000D03*
%TD*%
D10*
%TO.N,/PE2*%
%TO.C,J11*%
X148971000Y-109982000D03*
D11*
%TO.N,/PE10*%
X151511000Y-109982000D03*
%TO.N,/PE11*%
X154051000Y-109982000D03*
%TO.N,/PE12*%
X156591000Y-109982000D03*
%TO.N,GND*%
X159131000Y-109982000D03*
X161671000Y-109982000D03*
%TO.N,+5V*%
X164211000Y-109982000D03*
X166751000Y-109982000D03*
%TD*%
D10*
%TO.N,/SPEAKER_P*%
%TO.C,J10*%
X128524000Y-109982000D03*
D11*
%TO.N,/SPEAKER_N*%
X131064000Y-109982000D03*
%TO.N,GND*%
X133604000Y-109982000D03*
X136144000Y-109982000D03*
X138684000Y-109982000D03*
%TO.N,+3.3V*%
X141224000Y-109982000D03*
X143764000Y-109982000D03*
X146304000Y-109982000D03*
%TD*%
D14*
%TO.N,/NRST*%
X133320200Y-99076960D03*
D15*
%TO.N,+3.3V*%
X132080000Y-98679000D03*
%TO.N,GND*%
X130937000Y-102616000D03*
X133610000Y-91740000D03*
%TO.N,+1V2*%
X133440000Y-88528500D03*
%TO.N,/PD2*%
X138273173Y-90772868D03*
%TO.N,+1V2*%
X140340000Y-88910000D03*
%TO.N,GND*%
X123571000Y-91313000D03*
X169799000Y-106045000D03*
X148336000Y-106934000D03*
X170434000Y-106045000D03*
X155067000Y-83439000D03*
D14*
X123158250Y-88706500D03*
D15*
X137287000Y-97155000D03*
X115316000Y-85725000D03*
X134747000Y-91440000D03*
X115951000Y-85090000D03*
X121158000Y-92456000D03*
D14*
X122039500Y-88633533D03*
D15*
X123952000Y-91821000D03*
X144145000Y-105791000D03*
X137287000Y-97790000D03*
D14*
X141351000Y-90678000D03*
X157734000Y-83312000D03*
D15*
X170307000Y-85852000D03*
X116459000Y-104140000D03*
D14*
X130429000Y-97663000D03*
D15*
X147066000Y-103378000D03*
X135890000Y-107569000D03*
X111252000Y-106553000D03*
X170942000Y-85852000D03*
X125349000Y-93091000D03*
X125349000Y-89281000D03*
X115316000Y-85090000D03*
X131572000Y-108458000D03*
D14*
X144653000Y-85979000D03*
D15*
X115951000Y-85725000D03*
X110617000Y-105918000D03*
D14*
X139954000Y-103505000D03*
D15*
X137922000Y-97155000D03*
X123698000Y-104648000D03*
X110617000Y-106553000D03*
X170434000Y-106680000D03*
D14*
X160274000Y-83058000D03*
D15*
X111252000Y-105918000D03*
X170307000Y-85217000D03*
X131880000Y-88450000D03*
D14*
X146224811Y-89910600D03*
D15*
X169799000Y-106680000D03*
X137922000Y-97790000D03*
D14*
X119761000Y-103759000D03*
D15*
X170942000Y-85217000D03*
D14*
%TO.N,/NRST*%
X118046500Y-83248500D03*
D15*
%TO.N,+1V2*%
X144185098Y-90043000D03*
X131826000Y-96901000D03*
X119253000Y-85725000D03*
X133970000Y-90790000D03*
D14*
%TO.N,+3.3V*%
X146304000Y-105918000D03*
D15*
X142680500Y-89467500D03*
X150241000Y-84963000D03*
D14*
X112395000Y-85852000D03*
X123190000Y-84328000D03*
X167767000Y-86614000D03*
D15*
X158242000Y-95250000D03*
X131318000Y-104521000D03*
D14*
X115090009Y-83478132D03*
D15*
X159258000Y-90424000D03*
X139440000Y-87530000D03*
D14*
X152654000Y-107315000D03*
D15*
X123952000Y-97663000D03*
X125222000Y-97663000D03*
X126111000Y-104521000D03*
X132715000Y-104521000D03*
D14*
X109347000Y-93472000D03*
D15*
X130429000Y-95504000D03*
X118618000Y-107569000D03*
X124587000Y-97663000D03*
D14*
%TO.N,GNDA*%
X130365500Y-94551500D03*
X150304000Y-107302000D03*
D15*
X129540000Y-105664000D03*
%TO.N,+3V0*%
X136017000Y-95758000D03*
%TO.N,+5V*%
X122681998Y-94869000D03*
X122703798Y-98295503D03*
X114935000Y-99314000D03*
D14*
X122555000Y-89480849D03*
X123724219Y-89434219D03*
D15*
%TO.N,+2V5*%
X150876000Y-91499500D03*
X149606000Y-100457000D03*
X128778000Y-88773000D03*
D14*
%TO.N,Net-(D1-A)*%
X117983000Y-108458000D03*
%TO.N,Net-(D2-A)*%
X122555000Y-107942500D03*
%TO.N,Net-(F1-Pad2)*%
X116332000Y-94869000D03*
D15*
X116332000Y-90043000D03*
D14*
%TO.N,/AUDIO_L*%
X135512452Y-91930783D03*
%TO.N,/PD0*%
X137160000Y-92710000D03*
%TO.N,/PD1*%
X138154001Y-92681814D03*
%TO.N,/RS485_RX*%
X138953999Y-92710000D03*
%TO.N,/RS485_TX*%
X139148534Y-90834349D03*
%TO.N,/RS485_DIR*%
X139726240Y-90537518D03*
%TO.N,/PE11*%
X143878686Y-98618500D03*
%TO.N,/PE10*%
X143798502Y-99695000D03*
D15*
%TO.N,/LCD_SCL*%
X146752500Y-98758810D03*
%TO.N,/LCD_SDA*%
X146769847Y-99742020D03*
%TO.N,/LCD_CS*%
X146169088Y-100269555D03*
D14*
%TO.N,/LCD_PWM*%
X144030102Y-100527927D03*
D15*
%TO.N,/LCD_RST*%
X147341109Y-101884772D03*
%TO.N,/LCD_RS*%
X146050000Y-101600000D03*
%TO.N,/USB_ID*%
X125603000Y-84455000D03*
X129286000Y-88011000D03*
D14*
X146380000Y-102961272D03*
D15*
%TO.N,/DEBUG_UART_TX*%
X114173000Y-103700000D03*
D14*
X143094164Y-100491500D03*
%TO.N,/DEBUG_UART_RX*%
X142488004Y-100797299D03*
D15*
X113538000Y-103124000D03*
D14*
%TO.N,/SD_D2*%
X140865534Y-102740523D03*
X157480000Y-98552000D03*
%TO.N,/SD_D3*%
X157543500Y-97028000D03*
X140220327Y-102815097D03*
D15*
%TO.N,/SD_CMD*%
X157317222Y-96224789D03*
D14*
X139543996Y-102743402D03*
D15*
%TO.N,/SD_CLK*%
X157353000Y-94107000D03*
D14*
X140081000Y-100616662D03*
%TO.N,/SD_D0*%
X139324967Y-100580916D03*
D15*
X157505940Y-92227940D03*
D14*
%TO.N,/SD_D1*%
X138430000Y-100587554D03*
D15*
X157429200Y-90728800D03*
%TO.N,/SPI_CLK*%
X139380512Y-104359653D03*
%TO.N,/SPI_CS*%
X138630344Y-104083152D03*
%TO.N,/SPI_MISO*%
X137639592Y-105468316D03*
%TO.N,/SPI_MOSI*%
X136764500Y-104872893D03*
D14*
%TO.N,/KEY2*%
X125360602Y-108966000D03*
%TO.N,/KEY1*%
X123825000Y-108966000D03*
D15*
%TO.N,/USBC_DN*%
X133509583Y-100626272D03*
X111004100Y-93478100D03*
X163195000Y-96647000D03*
%TO.N,/USBC_DP*%
X133509583Y-99776272D03*
X163068000Y-95631000D03*
X112522000Y-93472000D03*
D14*
%TO.N,/AUDIO_R*%
X134755065Y-92164458D03*
D15*
%TO.N,/interface/USB_DN*%
X112104947Y-91884500D03*
%TO.N,/interface/USB_DP*%
X113601500Y-91884500D03*
%TO.N,Net-(J4-CC1)*%
X113182940Y-90144060D03*
%TO.N,Net-(J4-CC2)*%
X112973100Y-94685100D03*
D14*
%TO.N,/interface/CP2102_DN*%
X114427001Y-91693999D03*
D15*
X121909491Y-98386500D03*
%TO.N,/interface/CP2102_DP*%
X121109989Y-98386500D03*
D14*
X114427000Y-93218000D03*
D15*
%TO.N,Net-(J12-01)*%
X114808000Y-101346000D03*
%TO.N,Net-(J12-02)*%
X114808000Y-102362000D03*
%TD*%
%TA.AperFunction,Conductor*%
%TO.N,GND*%
G36*
X135684507Y-109772156D02*
G01*
X135644000Y-109910111D01*
X135644000Y-110053889D01*
X135684507Y-110191844D01*
X135710314Y-110232000D01*
X134037686Y-110232000D01*
X134063493Y-110191844D01*
X134104000Y-110053889D01*
X134104000Y-109910111D01*
X134063493Y-109772156D01*
X134037686Y-109732000D01*
X135710314Y-109732000D01*
X135684507Y-109772156D01*
G37*
%TD.AperFunction*%
%TA.AperFunction,Conductor*%
G36*
X138224507Y-109772156D02*
G01*
X138184000Y-109910111D01*
X138184000Y-110053889D01*
X138224507Y-110191844D01*
X138250314Y-110232000D01*
X136577686Y-110232000D01*
X136603493Y-110191844D01*
X136644000Y-110053889D01*
X136644000Y-109910111D01*
X136603493Y-109772156D01*
X136577686Y-109732000D01*
X138250314Y-109732000D01*
X138224507Y-109772156D01*
G37*
%TD.AperFunction*%
%TA.AperFunction,Conductor*%
G36*
X161211507Y-109772156D02*
G01*
X161171000Y-109910111D01*
X161171000Y-110053889D01*
X161211507Y-110191844D01*
X161237314Y-110232000D01*
X159564686Y-110232000D01*
X159590493Y-110191844D01*
X159631000Y-110053889D01*
X159631000Y-109910111D01*
X159590493Y-109772156D01*
X159564686Y-109732000D01*
X161237314Y-109732000D01*
X161211507Y-109772156D01*
G37*
%TD.AperFunction*%
%TA.AperFunction,Conductor*%
G36*
X171126950Y-80141216D02*
G01*
X171238963Y-80147506D01*
X171414818Y-80158143D01*
X171428066Y-80159664D01*
X171563092Y-80182605D01*
X171713582Y-80210183D01*
X171725503Y-80212986D01*
X171860886Y-80251988D01*
X171863188Y-80252678D01*
X172004178Y-80296612D01*
X172014733Y-80300433D01*
X172146537Y-80355027D01*
X172149856Y-80356461D01*
X172282784Y-80416286D01*
X172291843Y-80420819D01*
X172385007Y-80472309D01*
X172417477Y-80490255D01*
X172421644Y-80492665D01*
X172545507Y-80567542D01*
X172553113Y-80572529D01*
X172670576Y-80655873D01*
X172675294Y-80659392D01*
X172788886Y-80748385D01*
X172795040Y-80753536D01*
X172902585Y-80849644D01*
X172907639Y-80854423D01*
X173009575Y-80956359D01*
X173014354Y-80961413D01*
X173110462Y-81068958D01*
X173115613Y-81075112D01*
X173204606Y-81188704D01*
X173208125Y-81193422D01*
X173291469Y-81310885D01*
X173296456Y-81318491D01*
X173371333Y-81442354D01*
X173373743Y-81446521D01*
X173443173Y-81572144D01*
X173447722Y-81581235D01*
X173507511Y-81714082D01*
X173508997Y-81717522D01*
X173563564Y-81849263D01*
X173567387Y-81859823D01*
X173611277Y-82000669D01*
X173612046Y-82003234D01*
X173651008Y-82138479D01*
X173653823Y-82150454D01*
X173681401Y-82300950D01*
X173704332Y-82435919D01*
X173705856Y-82449192D01*
X173716495Y-82625077D01*
X173722783Y-82737051D01*
X173722978Y-82744002D01*
X173722978Y-109537039D01*
X173722783Y-109543993D01*
X173716278Y-109659798D01*
X173705917Y-109831452D01*
X173704390Y-109844751D01*
X173680831Y-109983406D01*
X173653934Y-110130171D01*
X173651120Y-110142139D01*
X173611484Y-110279713D01*
X173610716Y-110282276D01*
X173567559Y-110420766D01*
X173563735Y-110431327D01*
X173508424Y-110564859D01*
X173506938Y-110568299D01*
X173447969Y-110699317D01*
X173443422Y-110708405D01*
X173373183Y-110835492D01*
X173370771Y-110839662D01*
X173296789Y-110962041D01*
X173291802Y-110969646D01*
X173207570Y-111088357D01*
X173204051Y-111093075D01*
X173116056Y-111205390D01*
X173110905Y-111211544D01*
X173013810Y-111320192D01*
X173009031Y-111325246D01*
X172908205Y-111426070D01*
X172903151Y-111430848D01*
X172794512Y-111527932D01*
X172788359Y-111533083D01*
X172676051Y-111621070D01*
X172671332Y-111624589D01*
X172552613Y-111708823D01*
X172545008Y-111713810D01*
X172422606Y-111787803D01*
X172418437Y-111790215D01*
X172291374Y-111860438D01*
X172282284Y-111864985D01*
X172151244Y-111923960D01*
X172147807Y-111925445D01*
X172014286Y-111980751D01*
X172003722Y-111984576D01*
X171865248Y-112027724D01*
X171862686Y-112028492D01*
X171725097Y-112068130D01*
X171713121Y-112070945D01*
X171566406Y-112097831D01*
X171427663Y-112121403D01*
X171414389Y-112122927D01*
X171249201Y-112132918D01*
X171152044Y-112138373D01*
X171126165Y-112139827D01*
X171119218Y-112140022D01*
X110426960Y-112140022D01*
X110420006Y-112139827D01*
X110308007Y-112133536D01*
X110132159Y-112122898D01*
X110118876Y-112121372D01*
X109983903Y-112098438D01*
X109833400Y-112070856D01*
X109821439Y-112068044D01*
X109686199Y-112029081D01*
X109683654Y-112028318D01*
X109542786Y-111984421D01*
X109532224Y-111980597D01*
X109400463Y-111926019D01*
X109397024Y-111924533D01*
X109264207Y-111864756D01*
X109255117Y-111860208D01*
X109129496Y-111790779D01*
X109125329Y-111788369D01*
X109001448Y-111713481D01*
X108993841Y-111708493D01*
X108876396Y-111625160D01*
X108871679Y-111621642D01*
X108758081Y-111532644D01*
X108751927Y-111527493D01*
X108644382Y-111431385D01*
X108639328Y-111426606D01*
X108537392Y-111324670D01*
X108532613Y-111319616D01*
X108493708Y-111276081D01*
X108436501Y-111212066D01*
X108431354Y-111205917D01*
X108380120Y-111140522D01*
X108342356Y-111092319D01*
X108338838Y-111087602D01*
X108310542Y-111047723D01*
X108255493Y-110970140D01*
X108250517Y-110962550D01*
X108250209Y-110962041D01*
X108223286Y-110917504D01*
X108175629Y-110838669D01*
X108173219Y-110834502D01*
X108103790Y-110708881D01*
X108099242Y-110699791D01*
X108084469Y-110666968D01*
X108039457Y-110566956D01*
X108037979Y-110563535D01*
X107983397Y-110431764D01*
X107979580Y-110421222D01*
X107935657Y-110280269D01*
X107934928Y-110277836D01*
X107895952Y-110142551D01*
X107893147Y-110130619D01*
X107865568Y-109980139D01*
X107842624Y-109845108D01*
X107841102Y-109831854D01*
X107830470Y-109656119D01*
X107824173Y-109543993D01*
X107824076Y-109540522D01*
X108818029Y-109540522D01*
X108837795Y-109791671D01*
X108896604Y-110036632D01*
X108935535Y-110130619D01*
X108993012Y-110269381D01*
X109124642Y-110484181D01*
X109288254Y-110675746D01*
X109479819Y-110839358D01*
X109694619Y-110970988D01*
X109927367Y-111067395D01*
X110172330Y-111126205D01*
X110423478Y-111145971D01*
X110674626Y-111126205D01*
X110919589Y-111067395D01*
X111152337Y-110970988D01*
X111338242Y-110857065D01*
X127419500Y-110857065D01*
X127434266Y-110931301D01*
X127490515Y-111015484D01*
X127568205Y-111067395D01*
X127574699Y-111071734D01*
X127648933Y-111086500D01*
X129399066Y-111086499D01*
X129473301Y-111071734D01*
X129557484Y-111015484D01*
X129613734Y-110931301D01*
X129628500Y-110857067D01*
X129628499Y-109981999D01*
X129954768Y-109981999D01*
X129973654Y-110185823D01*
X130029670Y-110382699D01*
X130120911Y-110565934D01*
X130244268Y-110729286D01*
X130395535Y-110867184D01*
X130395537Y-110867185D01*
X130395538Y-110867186D01*
X130569573Y-110974944D01*
X130760444Y-111048888D01*
X130961653Y-111086500D01*
X130961655Y-111086500D01*
X131166345Y-111086500D01*
X131166347Y-111086500D01*
X131367556Y-111048888D01*
X131558427Y-110974944D01*
X131732462Y-110867186D01*
X131883732Y-110729285D01*
X132007088Y-110565935D01*
X132007088Y-110565933D01*
X132007090Y-110565932D01*
X132092380Y-110394646D01*
X132139882Y-110343409D01*
X132207545Y-110325987D01*
X132273886Y-110347912D01*
X132317841Y-110402223D01*
X132323154Y-110417822D01*
X132330567Y-110445488D01*
X132430399Y-110659576D01*
X132565893Y-110853081D01*
X132732918Y-111020106D01*
X132926423Y-111155600D01*
X133140509Y-111255430D01*
X133354000Y-111312634D01*
X133354000Y-110417501D01*
X133461685Y-110466680D01*
X133568237Y-110482000D01*
X133639763Y-110482000D01*
X133746315Y-110466680D01*
X133854000Y-110417501D01*
X133854000Y-111312633D01*
X134067490Y-111255430D01*
X134281576Y-111155600D01*
X134475081Y-111020106D01*
X134642106Y-110853081D01*
X134772425Y-110666968D01*
X134827002Y-110623344D01*
X134896501Y-110616151D01*
X134958855Y-110647673D01*
X134975575Y-110666968D01*
X135105893Y-110853081D01*
X135272918Y-111020106D01*
X135466423Y-111155600D01*
X135680509Y-111255430D01*
X135894000Y-111312634D01*
X135894000Y-110417501D01*
X136001685Y-110466680D01*
X136108237Y-110482000D01*
X136179763Y-110482000D01*
X136286315Y-110466680D01*
X136394000Y-110417501D01*
X136394000Y-111312633D01*
X136607490Y-111255430D01*
X136821576Y-111155600D01*
X137015081Y-111020106D01*
X137182106Y-110853081D01*
X137312425Y-110666968D01*
X137367002Y-110623344D01*
X137436501Y-110616151D01*
X137498855Y-110647673D01*
X137515575Y-110666968D01*
X137645893Y-110853081D01*
X137812918Y-111020106D01*
X138006423Y-111155600D01*
X138220509Y-111255430D01*
X138434000Y-111312634D01*
X138434000Y-110417501D01*
X138541685Y-110466680D01*
X138648237Y-110482000D01*
X138719763Y-110482000D01*
X138826315Y-110466680D01*
X138934000Y-110417501D01*
X138934000Y-111312633D01*
X139147490Y-111255430D01*
X139361576Y-111155600D01*
X139555081Y-111020106D01*
X139722106Y-110853081D01*
X139857600Y-110659576D01*
X139957431Y-110445490D01*
X139964844Y-110417825D01*
X140001208Y-110358164D01*
X140064055Y-110327634D01*
X140133430Y-110335928D01*
X140187309Y-110380413D01*
X140195619Y-110394645D01*
X140280911Y-110565934D01*
X140404268Y-110729286D01*
X140555535Y-110867184D01*
X140555537Y-110867185D01*
X140555538Y-110867186D01*
X140729573Y-110974944D01*
X140920444Y-111048888D01*
X141121653Y-111086500D01*
X141121655Y-111086500D01*
X141326345Y-111086500D01*
X141326347Y-111086500D01*
X141527556Y-111048888D01*
X141718427Y-110974944D01*
X141892462Y-110867186D01*
X142043732Y-110729285D01*
X142167088Y-110565935D01*
X142258328Y-110382701D01*
X142258979Y-110380413D01*
X142314345Y-110185823D01*
X142320540Y-110118963D01*
X142333232Y-109982000D01*
X142333232Y-109981999D01*
X142654768Y-109981999D01*
X142673654Y-110185823D01*
X142729670Y-110382699D01*
X142820911Y-110565934D01*
X142944268Y-110729286D01*
X143095535Y-110867184D01*
X143095537Y-110867185D01*
X143095538Y-110867186D01*
X143269573Y-110974944D01*
X143460444Y-111048888D01*
X143661653Y-111086500D01*
X143661655Y-111086500D01*
X143866345Y-111086500D01*
X143866347Y-111086500D01*
X144067556Y-111048888D01*
X144258427Y-110974944D01*
X144432462Y-110867186D01*
X144583732Y-110729285D01*
X144707088Y-110565935D01*
X144798328Y-110382701D01*
X144798979Y-110380413D01*
X144854345Y-110185823D01*
X144860540Y-110118963D01*
X144873232Y-109982000D01*
X144873232Y-109981999D01*
X145194768Y-109981999D01*
X145213654Y-110185823D01*
X145269670Y-110382699D01*
X145360911Y-110565934D01*
X145484268Y-110729286D01*
X145635535Y-110867184D01*
X145635537Y-110867185D01*
X145635538Y-110867186D01*
X145809573Y-110974944D01*
X146000444Y-111048888D01*
X146201653Y-111086500D01*
X146201655Y-111086500D01*
X146406345Y-111086500D01*
X146406347Y-111086500D01*
X146607556Y-111048888D01*
X146798427Y-110974944D01*
X146972462Y-110867186D01*
X146983564Y-110857065D01*
X147866500Y-110857065D01*
X147881266Y-110931301D01*
X147937515Y-111015484D01*
X148015205Y-111067395D01*
X148021699Y-111071734D01*
X148095933Y-111086500D01*
X149846066Y-111086499D01*
X149920301Y-111071734D01*
X150004484Y-111015484D01*
X150060734Y-110931301D01*
X150075500Y-110857067D01*
X150075499Y-109981999D01*
X150401768Y-109981999D01*
X150420654Y-110185823D01*
X150476670Y-110382699D01*
X150567911Y-110565934D01*
X150691268Y-110729286D01*
X150842535Y-110867184D01*
X150842537Y-110867185D01*
X150842538Y-110867186D01*
X151016573Y-110974944D01*
X151207444Y-111048888D01*
X151408653Y-111086500D01*
X151408655Y-111086500D01*
X151613345Y-111086500D01*
X151613347Y-111086500D01*
X151814556Y-111048888D01*
X152005427Y-110974944D01*
X152179462Y-110867186D01*
X152330732Y-110729285D01*
X152454088Y-110565935D01*
X152545328Y-110382701D01*
X152545979Y-110380413D01*
X152601345Y-110185823D01*
X152607540Y-110118963D01*
X152620232Y-109982000D01*
X152620232Y-109981999D01*
X152941768Y-109981999D01*
X152960654Y-110185823D01*
X153016670Y-110382699D01*
X153107911Y-110565934D01*
X153231268Y-110729286D01*
X153382535Y-110867184D01*
X153382537Y-110867185D01*
X153382538Y-110867186D01*
X153556573Y-110974944D01*
X153747444Y-111048888D01*
X153948653Y-111086500D01*
X153948655Y-111086500D01*
X154153345Y-111086500D01*
X154153347Y-111086500D01*
X154354556Y-111048888D01*
X154545427Y-110974944D01*
X154719462Y-110867186D01*
X154870732Y-110729285D01*
X154994088Y-110565935D01*
X155085328Y-110382701D01*
X155085979Y-110380413D01*
X155141345Y-110185823D01*
X155147540Y-110118963D01*
X155160232Y-109982000D01*
X155160232Y-109981999D01*
X155481768Y-109981999D01*
X155500654Y-110185823D01*
X155556670Y-110382699D01*
X155647911Y-110565934D01*
X155771268Y-110729286D01*
X155922535Y-110867184D01*
X155922537Y-110867185D01*
X155922538Y-110867186D01*
X156096573Y-110974944D01*
X156287444Y-111048888D01*
X156488653Y-111086500D01*
X156488655Y-111086500D01*
X156693345Y-111086500D01*
X156693347Y-111086500D01*
X156894556Y-111048888D01*
X157085427Y-110974944D01*
X157259462Y-110867186D01*
X157410732Y-110729285D01*
X157534088Y-110565935D01*
X157534088Y-110565933D01*
X157534090Y-110565932D01*
X157619380Y-110394646D01*
X157666882Y-110343409D01*
X157734545Y-110325987D01*
X157800886Y-110347912D01*
X157844841Y-110402223D01*
X157850154Y-110417822D01*
X157857567Y-110445488D01*
X157957399Y-110659576D01*
X158092893Y-110853081D01*
X158259918Y-111020106D01*
X158453423Y-111155600D01*
X158667509Y-111255430D01*
X158881000Y-111312634D01*
X158881000Y-110417501D01*
X158988685Y-110466680D01*
X159095237Y-110482000D01*
X159166763Y-110482000D01*
X159273315Y-110466680D01*
X159381000Y-110417501D01*
X159381000Y-111312633D01*
X159594490Y-111255430D01*
X159808576Y-111155600D01*
X160002081Y-111020106D01*
X160169106Y-110853081D01*
X160299425Y-110666968D01*
X160354002Y-110623344D01*
X160423501Y-110616151D01*
X160485855Y-110647673D01*
X160502575Y-110666968D01*
X160632893Y-110853081D01*
X160799918Y-111020106D01*
X160993423Y-111155600D01*
X161207509Y-111255430D01*
X161421000Y-111312634D01*
X161421000Y-110417501D01*
X161528685Y-110466680D01*
X161635237Y-110482000D01*
X161706763Y-110482000D01*
X161813315Y-110466680D01*
X161921000Y-110417501D01*
X161921000Y-111312633D01*
X162134490Y-111255430D01*
X162348576Y-111155600D01*
X162542081Y-111020106D01*
X162709106Y-110853081D01*
X162844600Y-110659576D01*
X162944431Y-110445490D01*
X162951844Y-110417825D01*
X162988208Y-110358164D01*
X163051055Y-110327634D01*
X163120430Y-110335928D01*
X163174309Y-110380413D01*
X163182619Y-110394645D01*
X163267911Y-110565934D01*
X163391268Y-110729286D01*
X163542535Y-110867184D01*
X163542537Y-110867185D01*
X163542538Y-110867186D01*
X163716573Y-110974944D01*
X163907444Y-111048888D01*
X164108653Y-111086500D01*
X164108655Y-111086500D01*
X164313345Y-111086500D01*
X164313347Y-111086500D01*
X164514556Y-111048888D01*
X164705427Y-110974944D01*
X164879462Y-110867186D01*
X165030732Y-110729285D01*
X165154088Y-110565935D01*
X165245328Y-110382701D01*
X165245979Y-110380413D01*
X165301345Y-110185823D01*
X165307540Y-110118963D01*
X165320232Y-109982000D01*
X165320232Y-109981999D01*
X165641768Y-109981999D01*
X165660654Y-110185823D01*
X165716670Y-110382699D01*
X165807911Y-110565934D01*
X165931268Y-110729286D01*
X166082535Y-110867184D01*
X166082537Y-110867185D01*
X166082538Y-110867186D01*
X166256573Y-110974944D01*
X166447444Y-111048888D01*
X166648653Y-111086500D01*
X166648655Y-111086500D01*
X166853345Y-111086500D01*
X166853347Y-111086500D01*
X167054556Y-111048888D01*
X167245427Y-110974944D01*
X167419462Y-110867186D01*
X167570732Y-110729285D01*
X167694088Y-110565935D01*
X167785328Y-110382701D01*
X167785979Y-110380413D01*
X167841345Y-110185823D01*
X167847540Y-110118963D01*
X167860232Y-109982000D01*
X167841345Y-109778179D01*
X167841345Y-109778176D01*
X167785329Y-109581300D01*
X167765024Y-109540522D01*
X169518029Y-109540522D01*
X169537795Y-109791671D01*
X169596604Y-110036632D01*
X169635535Y-110130619D01*
X169693012Y-110269381D01*
X169824642Y-110484181D01*
X169988254Y-110675746D01*
X170179819Y-110839358D01*
X170394619Y-110970988D01*
X170627367Y-111067395D01*
X170872330Y-111126205D01*
X171123478Y-111145971D01*
X171374626Y-111126205D01*
X171619589Y-111067395D01*
X171852337Y-110970988D01*
X172067137Y-110839358D01*
X172258702Y-110675746D01*
X172422314Y-110484181D01*
X172553944Y-110269381D01*
X172650351Y-110036633D01*
X172709161Y-109791670D01*
X172728927Y-109540522D01*
X172709161Y-109289374D01*
X172650351Y-109044411D01*
X172553944Y-108811663D01*
X172422314Y-108596863D01*
X172258702Y-108405298D01*
X172067137Y-108241686D01*
X171852337Y-108110056D01*
X171715448Y-108053355D01*
X171619588Y-108013648D01*
X171374627Y-107954839D01*
X171199066Y-107941022D01*
X171123478Y-107935073D01*
X171123477Y-107935073D01*
X170872328Y-107954839D01*
X170627367Y-108013648D01*
X170469643Y-108078980D01*
X170396621Y-108109227D01*
X170394617Y-108110057D01*
X170179820Y-108241685D01*
X169988254Y-108405298D01*
X169824641Y-108596864D01*
X169693013Y-108811661D01*
X169596604Y-109044411D01*
X169537795Y-109289372D01*
X169518029Y-109540522D01*
X167765024Y-109540522D01*
X167694088Y-109398065D01*
X167570731Y-109234713D01*
X167419464Y-109096815D01*
X167245427Y-108989056D01*
X167245426Y-108989056D01*
X167054556Y-108915112D01*
X166853347Y-108877500D01*
X166648653Y-108877500D01*
X166447444Y-108915112D01*
X166256572Y-108989056D01*
X166082535Y-109096815D01*
X165931268Y-109234713D01*
X165807911Y-109398065D01*
X165716670Y-109581300D01*
X165660654Y-109778176D01*
X165641768Y-109981999D01*
X165320232Y-109981999D01*
X165301345Y-109778179D01*
X165301345Y-109778176D01*
X165245329Y-109581300D01*
X165154088Y-109398065D01*
X165030731Y-109234713D01*
X164879464Y-109096815D01*
X164705427Y-108989056D01*
X164705426Y-108989056D01*
X164514556Y-108915112D01*
X164313347Y-108877500D01*
X164108653Y-108877500D01*
X163907444Y-108915112D01*
X163716572Y-108989056D01*
X163542535Y-109096815D01*
X163391268Y-109234713D01*
X163267911Y-109398065D01*
X163182619Y-109569354D01*
X163135116Y-109620591D01*
X163067453Y-109638012D01*
X163001113Y-109616086D01*
X162957158Y-109561775D01*
X162951844Y-109546175D01*
X162944430Y-109518508D01*
X162844599Y-109304421D01*
X162709109Y-109110921D01*
X162542081Y-108943893D01*
X162348576Y-108808399D01*
X162134492Y-108708569D01*
X161921000Y-108651364D01*
X161921000Y-109546498D01*
X161813315Y-109497320D01*
X161706763Y-109482000D01*
X161635237Y-109482000D01*
X161528685Y-109497320D01*
X161421000Y-109546498D01*
X161421000Y-108651364D01*
X161420999Y-108651364D01*
X161207507Y-108708569D01*
X160993421Y-108808400D01*
X160799921Y-108943890D01*
X160632893Y-109110918D01*
X160502575Y-109297032D01*
X160447998Y-109340656D01*
X160378499Y-109347849D01*
X160316145Y-109316327D01*
X160299425Y-109297032D01*
X160169106Y-109110918D01*
X160002081Y-108943893D01*
X159808576Y-108808399D01*
X159594492Y-108708569D01*
X159381000Y-108651364D01*
X159381000Y-109546498D01*
X159273315Y-109497320D01*
X159166763Y-109482000D01*
X159095237Y-109482000D01*
X158988685Y-109497320D01*
X158881000Y-109546498D01*
X158881000Y-108651364D01*
X158880999Y-108651364D01*
X158667507Y-108708569D01*
X158453421Y-108808400D01*
X158259921Y-108943890D01*
X158092890Y-109110921D01*
X157957400Y-109304421D01*
X157857568Y-109518510D01*
X157850154Y-109546178D01*
X157813788Y-109605838D01*
X157750940Y-109636366D01*
X157681565Y-109628069D01*
X157627688Y-109583583D01*
X157619380Y-109569354D01*
X157534088Y-109398065D01*
X157410731Y-109234713D01*
X157259464Y-109096815D01*
X157085427Y-108989056D01*
X157085426Y-108989056D01*
X156894556Y-108915112D01*
X156693347Y-108877500D01*
X156488653Y-108877500D01*
X156287444Y-108915112D01*
X156096572Y-108989056D01*
X155922535Y-109096815D01*
X155771268Y-109234713D01*
X155647911Y-109398065D01*
X155556670Y-109581300D01*
X155500654Y-109778176D01*
X155481768Y-109981999D01*
X155160232Y-109981999D01*
X155141345Y-109778179D01*
X155141345Y-109778176D01*
X155085329Y-109581300D01*
X154994088Y-109398065D01*
X154870731Y-109234713D01*
X154719464Y-109096815D01*
X154545427Y-108989056D01*
X154545426Y-108989056D01*
X154354556Y-108915112D01*
X154153347Y-108877500D01*
X153948653Y-108877500D01*
X153747443Y-108915112D01*
X153747444Y-108915112D01*
X153556572Y-108989056D01*
X153382535Y-109096815D01*
X153231268Y-109234713D01*
X153107911Y-109398065D01*
X153016670Y-109581300D01*
X152960654Y-109778176D01*
X152941768Y-109981999D01*
X152620232Y-109981999D01*
X152601345Y-109778179D01*
X152601345Y-109778176D01*
X152545329Y-109581300D01*
X152454088Y-109398065D01*
X152330731Y-109234713D01*
X152179464Y-109096815D01*
X152005427Y-108989056D01*
X152005426Y-108989056D01*
X151814556Y-108915112D01*
X151613347Y-108877500D01*
X151408653Y-108877500D01*
X151207443Y-108915112D01*
X151207444Y-108915112D01*
X151016572Y-108989056D01*
X150842535Y-109096815D01*
X150691268Y-109234713D01*
X150567911Y-109398065D01*
X150476670Y-109581300D01*
X150420654Y-109778176D01*
X150401768Y-109981999D01*
X150075499Y-109981999D01*
X150075499Y-109106934D01*
X150060734Y-109032699D01*
X150016166Y-108965999D01*
X150004484Y-108948515D01*
X149920300Y-108892265D01*
X149846069Y-108877500D01*
X148095934Y-108877500D01*
X148021698Y-108892266D01*
X147937515Y-108948515D01*
X147881265Y-109032699D01*
X147866500Y-109106930D01*
X147866500Y-110857065D01*
X146983564Y-110857065D01*
X147123732Y-110729285D01*
X147247088Y-110565935D01*
X147338328Y-110382701D01*
X147338979Y-110380413D01*
X147394345Y-110185823D01*
X147400540Y-110118963D01*
X147413232Y-109982000D01*
X147394345Y-109778179D01*
X147394345Y-109778176D01*
X147338329Y-109581300D01*
X147247088Y-109398065D01*
X147123731Y-109234713D01*
X146972464Y-109096815D01*
X146798427Y-108989056D01*
X146607556Y-108915112D01*
X146406347Y-108877500D01*
X146201653Y-108877500D01*
X146000443Y-108915112D01*
X146000444Y-108915112D01*
X145809572Y-108989056D01*
X145635535Y-109096815D01*
X145484268Y-109234713D01*
X145360911Y-109398065D01*
X145269670Y-109581300D01*
X145213654Y-109778176D01*
X145194768Y-109981999D01*
X144873232Y-109981999D01*
X144854345Y-109778179D01*
X144854345Y-109778176D01*
X144798329Y-109581300D01*
X144707088Y-109398065D01*
X144583731Y-109234713D01*
X144432464Y-109096815D01*
X144258427Y-108989056D01*
X144067556Y-108915112D01*
X143866347Y-108877500D01*
X143661653Y-108877500D01*
X143460443Y-108915112D01*
X143460444Y-108915112D01*
X143269572Y-108989056D01*
X143095535Y-109096815D01*
X142944268Y-109234713D01*
X142820911Y-109398065D01*
X142729670Y-109581300D01*
X142673654Y-109778176D01*
X142654768Y-109981999D01*
X142333232Y-109981999D01*
X142314345Y-109778179D01*
X142314345Y-109778176D01*
X142258329Y-109581300D01*
X142167088Y-109398065D01*
X142043731Y-109234713D01*
X141892464Y-109096815D01*
X141718427Y-108989056D01*
X141527556Y-108915112D01*
X141326347Y-108877500D01*
X141121653Y-108877500D01*
X140920444Y-108915112D01*
X140729572Y-108989056D01*
X140555535Y-109096815D01*
X140404268Y-109234713D01*
X140280911Y-109398065D01*
X140195619Y-109569354D01*
X140148116Y-109620591D01*
X140080453Y-109638012D01*
X140014113Y-109616086D01*
X139970158Y-109561775D01*
X139964844Y-109546175D01*
X139957430Y-109518508D01*
X139857599Y-109304421D01*
X139722109Y-109110921D01*
X139555081Y-108943893D01*
X139361576Y-108808399D01*
X139147492Y-108708569D01*
X138934000Y-108651364D01*
X138934000Y-109546498D01*
X138826315Y-109497320D01*
X138719763Y-109482000D01*
X138648237Y-109482000D01*
X138541685Y-109497320D01*
X138434000Y-109546498D01*
X138434000Y-108651364D01*
X138433999Y-108651364D01*
X138220507Y-108708569D01*
X138006421Y-108808400D01*
X137812921Y-108943890D01*
X137645893Y-109110918D01*
X137515575Y-109297032D01*
X137460998Y-109340656D01*
X137391499Y-109347849D01*
X137329145Y-109316327D01*
X137312425Y-109297032D01*
X137182106Y-109110918D01*
X137015081Y-108943893D01*
X136821576Y-108808399D01*
X136607492Y-108708569D01*
X136394000Y-108651364D01*
X136394000Y-109546498D01*
X136286315Y-109497320D01*
X136179763Y-109482000D01*
X136108237Y-109482000D01*
X136001685Y-109497320D01*
X135894000Y-109546498D01*
X135894000Y-108651364D01*
X135893999Y-108651364D01*
X135680507Y-108708569D01*
X135466421Y-108808400D01*
X135272921Y-108943890D01*
X135105893Y-109110918D01*
X134975575Y-109297032D01*
X134920998Y-109340656D01*
X134851499Y-109347849D01*
X134789145Y-109316327D01*
X134772425Y-109297032D01*
X134642106Y-109110918D01*
X134475081Y-108943893D01*
X134281576Y-108808399D01*
X134067492Y-108708569D01*
X133854000Y-108651364D01*
X133853999Y-109546498D01*
X133746315Y-109497320D01*
X133639763Y-109482000D01*
X133568237Y-109482000D01*
X133461685Y-109497320D01*
X133354000Y-109546498D01*
X133354000Y-108651364D01*
X133353999Y-108651364D01*
X133140507Y-108708569D01*
X132926421Y-108808400D01*
X132732921Y-108943890D01*
X132565890Y-109110921D01*
X132430400Y-109304421D01*
X132330568Y-109518510D01*
X132323154Y-109546178D01*
X132286788Y-109605838D01*
X132223940Y-109636366D01*
X132154565Y-109628069D01*
X132100688Y-109583583D01*
X132092380Y-109569354D01*
X132007088Y-109398065D01*
X131883731Y-109234713D01*
X131732464Y-109096815D01*
X131558427Y-108989056D01*
X131367556Y-108915112D01*
X131166347Y-108877500D01*
X130961653Y-108877500D01*
X130760443Y-108915112D01*
X130760444Y-108915112D01*
X130569572Y-108989056D01*
X130395535Y-109096815D01*
X130244268Y-109234713D01*
X130120911Y-109398065D01*
X130029670Y-109581300D01*
X129973654Y-109778176D01*
X129954768Y-109981999D01*
X129628499Y-109981999D01*
X129628499Y-109106934D01*
X129613734Y-109032699D01*
X129569166Y-108965999D01*
X129557484Y-108948515D01*
X129473300Y-108892265D01*
X129399069Y-108877500D01*
X127648934Y-108877500D01*
X127574698Y-108892266D01*
X127490515Y-108948515D01*
X127434265Y-109032699D01*
X127419500Y-109106930D01*
X127419500Y-110857065D01*
X111338242Y-110857065D01*
X111367137Y-110839358D01*
X111558702Y-110675746D01*
X111722314Y-110484181D01*
X111853944Y-110269381D01*
X111950351Y-110036633D01*
X112009161Y-109791670D01*
X112028927Y-109540522D01*
X112009161Y-109289374D01*
X111950351Y-109044411D01*
X111917872Y-108965999D01*
X123340569Y-108965999D01*
X123360191Y-109102480D01*
X123417470Y-109227902D01*
X123470734Y-109289372D01*
X123507765Y-109332109D01*
X123623760Y-109406654D01*
X123756058Y-109445500D01*
X123893942Y-109445500D01*
X124026240Y-109406654D01*
X124142235Y-109332109D01*
X124232529Y-109227903D01*
X124289808Y-109102480D01*
X124309431Y-108966000D01*
X124309431Y-108965999D01*
X124876171Y-108965999D01*
X124895793Y-109102480D01*
X124953072Y-109227902D01*
X125006336Y-109289372D01*
X125043367Y-109332109D01*
X125159362Y-109406654D01*
X125291660Y-109445500D01*
X125429544Y-109445500D01*
X125561842Y-109406654D01*
X125677837Y-109332109D01*
X125768131Y-109227903D01*
X125825410Y-109102480D01*
X125845033Y-108966000D01*
X125825410Y-108829520D01*
X125818488Y-108814364D01*
X125768131Y-108704097D01*
X125722438Y-108651364D01*
X125677837Y-108599891D01*
X125677836Y-108599890D01*
X125636385Y-108573252D01*
X125561842Y-108525346D01*
X125429544Y-108486500D01*
X125291660Y-108486500D01*
X125159362Y-108525346D01*
X125043367Y-108599890D01*
X124953072Y-108704097D01*
X124895793Y-108829519D01*
X124876171Y-108965999D01*
X124309431Y-108965999D01*
X124289808Y-108829520D01*
X124282886Y-108814364D01*
X124232529Y-108704097D01*
X124186836Y-108651364D01*
X124142235Y-108599891D01*
X124142234Y-108599890D01*
X124100784Y-108573252D01*
X124026240Y-108525346D01*
X123893942Y-108486500D01*
X123756058Y-108486500D01*
X123623760Y-108525346D01*
X123507765Y-108599890D01*
X123417470Y-108704097D01*
X123360191Y-108829519D01*
X123340569Y-108965999D01*
X111917872Y-108965999D01*
X111853944Y-108811663D01*
X111722314Y-108596863D01*
X111603714Y-108458000D01*
X117498569Y-108458000D01*
X117518191Y-108594480D01*
X117575470Y-108719902D01*
X117575471Y-108719903D01*
X117665765Y-108824109D01*
X117781760Y-108898654D01*
X117914058Y-108937500D01*
X118051942Y-108937500D01*
X118184240Y-108898654D01*
X118300235Y-108824109D01*
X118390529Y-108719903D01*
X118447808Y-108594480D01*
X118467431Y-108458000D01*
X118447808Y-108321520D01*
X118436043Y-108295759D01*
X118426100Y-108226604D01*
X118455124Y-108163048D01*
X118513901Y-108125272D01*
X118565020Y-108121310D01*
X118618000Y-108128285D01*
X118618000Y-108128284D01*
X118618001Y-108128285D01*
X118640886Y-108125272D01*
X118762754Y-108109228D01*
X118897643Y-108053355D01*
X119013474Y-107964474D01*
X119030335Y-107942500D01*
X122070569Y-107942500D01*
X122090191Y-108078980D01*
X122147470Y-108204402D01*
X122183947Y-108246499D01*
X122237765Y-108308609D01*
X122353760Y-108383154D01*
X122486058Y-108422000D01*
X122623942Y-108422000D01*
X122756240Y-108383154D01*
X122872235Y-108308609D01*
X122962529Y-108204403D01*
X123019808Y-108078980D01*
X123039431Y-107942500D01*
X123019808Y-107806020D01*
X122962529Y-107680597D01*
X122872235Y-107576391D01*
X122872234Y-107576390D01*
X122830784Y-107549752D01*
X122756240Y-107501846D01*
X122623942Y-107463000D01*
X122486058Y-107463000D01*
X122353760Y-107501846D01*
X122237765Y-107576390D01*
X122147470Y-107680597D01*
X122090191Y-107806019D01*
X122070569Y-107942500D01*
X119030335Y-107942500D01*
X119102355Y-107848643D01*
X119158228Y-107713754D01*
X119177285Y-107569000D01*
X119158228Y-107424246D01*
X119107591Y-107301999D01*
X149819569Y-107301999D01*
X149839191Y-107438480D01*
X149896470Y-107563902D01*
X149907735Y-107576903D01*
X149986765Y-107668109D01*
X150102760Y-107742654D01*
X150235058Y-107781500D01*
X150372942Y-107781500D01*
X150505240Y-107742654D01*
X150621235Y-107668109D01*
X150711529Y-107563903D01*
X150768808Y-107438480D01*
X150786562Y-107315000D01*
X152169569Y-107315000D01*
X152189191Y-107451480D01*
X152246470Y-107576902D01*
X152246471Y-107576903D01*
X152336765Y-107681109D01*
X152452760Y-107755654D01*
X152585058Y-107794500D01*
X152722942Y-107794500D01*
X152855240Y-107755654D01*
X152971235Y-107681109D01*
X153061529Y-107576903D01*
X153118808Y-107451480D01*
X153138431Y-107315000D01*
X153118808Y-107178520D01*
X153116527Y-107173526D01*
X153061529Y-107053097D01*
X153050265Y-107040097D01*
X152971235Y-106948891D01*
X152971234Y-106948890D01*
X152929784Y-106922252D01*
X152855240Y-106874346D01*
X152722942Y-106835500D01*
X152585058Y-106835500D01*
X152452760Y-106874346D01*
X152336765Y-106948890D01*
X152246470Y-107053097D01*
X152189191Y-107178519D01*
X152169569Y-107315000D01*
X150786562Y-107315000D01*
X150788431Y-107302000D01*
X150768808Y-107165520D01*
X150731873Y-107084645D01*
X150711529Y-107040097D01*
X150632499Y-106948891D01*
X150621235Y-106935891D01*
X150621234Y-106935890D01*
X150579783Y-106909252D01*
X150505240Y-106861346D01*
X150372942Y-106822500D01*
X150235058Y-106822500D01*
X150102760Y-106861346D01*
X149986765Y-106935890D01*
X149896470Y-107040097D01*
X149839191Y-107165519D01*
X149819569Y-107301999D01*
X119107591Y-107301999D01*
X119102355Y-107289358D01*
X119013474Y-107173526D01*
X118897643Y-107084645D01*
X118897642Y-107084644D01*
X118897640Y-107084643D01*
X118762754Y-107028772D01*
X118617999Y-107009714D01*
X118473246Y-107028772D01*
X118338357Y-107084645D01*
X118222525Y-107173525D01*
X118133645Y-107289357D01*
X118077772Y-107424246D01*
X118058714Y-107568999D01*
X118077772Y-107713754D01*
X118116415Y-107807048D01*
X118123884Y-107876517D01*
X118092608Y-107938996D01*
X118032519Y-107974648D01*
X118001854Y-107978500D01*
X117914058Y-107978500D01*
X117781760Y-108017346D01*
X117665765Y-108091890D01*
X117575470Y-108196097D01*
X117518191Y-108321519D01*
X117498569Y-108458000D01*
X111603714Y-108458000D01*
X111558702Y-108405298D01*
X111367137Y-108241686D01*
X111152337Y-108110056D01*
X111015448Y-108053355D01*
X110919588Y-108013648D01*
X110674627Y-107954839D01*
X110499066Y-107941022D01*
X110423478Y-107935073D01*
X110423477Y-107935073D01*
X110172328Y-107954839D01*
X109927367Y-108013648D01*
X109769643Y-108078980D01*
X109696621Y-108109227D01*
X109694617Y-108110057D01*
X109479820Y-108241685D01*
X109288254Y-108405298D01*
X109124641Y-108596864D01*
X108993013Y-108811661D01*
X108896604Y-109044411D01*
X108837795Y-109289372D01*
X108818029Y-109540522D01*
X107824076Y-109540522D01*
X107823978Y-109537041D01*
X107823978Y-105663999D01*
X128980714Y-105663999D01*
X128999772Y-105808754D01*
X129055643Y-105943640D01*
X129055644Y-105943642D01*
X129055645Y-105943643D01*
X129144526Y-106059474D01*
X129260357Y-106148355D01*
X129395246Y-106204228D01*
X129540000Y-106223285D01*
X129684754Y-106204228D01*
X129819643Y-106148355D01*
X129935474Y-106059474D01*
X130024355Y-105943643D01*
X130080228Y-105808754D01*
X130099285Y-105664000D01*
X130080228Y-105519246D01*
X130024355Y-105384358D01*
X129935474Y-105268526D01*
X129819643Y-105179645D01*
X129819642Y-105179644D01*
X129819640Y-105179643D01*
X129684754Y-105123772D01*
X129539999Y-105104714D01*
X129395246Y-105123772D01*
X129260357Y-105179645D01*
X129144525Y-105268525D01*
X129055645Y-105384357D01*
X128999772Y-105519246D01*
X128980714Y-105663999D01*
X107823978Y-105663999D01*
X107823978Y-104520999D01*
X125551714Y-104520999D01*
X125570772Y-104665754D01*
X125626643Y-104800640D01*
X125626644Y-104800642D01*
X125626645Y-104800643D01*
X125715526Y-104916474D01*
X125831357Y-105005355D01*
X125966246Y-105061228D01*
X126111000Y-105080285D01*
X126255754Y-105061228D01*
X126390643Y-105005355D01*
X126506474Y-104916474D01*
X126595355Y-104800643D01*
X126651228Y-104665754D01*
X126670285Y-104521000D01*
X126670285Y-104520999D01*
X130758714Y-104520999D01*
X130777772Y-104665754D01*
X130833643Y-104800640D01*
X130833644Y-104800642D01*
X130833645Y-104800643D01*
X130922526Y-104916474D01*
X131038357Y-105005355D01*
X131173246Y-105061228D01*
X131298941Y-105077775D01*
X131317999Y-105080285D01*
X131317999Y-105080284D01*
X131318000Y-105080285D01*
X131462754Y-105061228D01*
X131597643Y-105005355D01*
X131713474Y-104916474D01*
X131802355Y-104800643D01*
X131858228Y-104665754D01*
X131877285Y-104521000D01*
X131877285Y-104520999D01*
X132155714Y-104520999D01*
X132174772Y-104665754D01*
X132230643Y-104800640D01*
X132230644Y-104800642D01*
X132230645Y-104800643D01*
X132319526Y-104916474D01*
X132435357Y-105005355D01*
X132570246Y-105061228D01*
X132695942Y-105077775D01*
X132714999Y-105080285D01*
X132714999Y-105080284D01*
X132715000Y-105080285D01*
X132859754Y-105061228D01*
X132994643Y-105005355D01*
X133110474Y-104916474D01*
X133143916Y-104872892D01*
X136205214Y-104872892D01*
X136224272Y-105017647D01*
X136280143Y-105152533D01*
X136280144Y-105152535D01*
X136280145Y-105152536D01*
X136369026Y-105268367D01*
X136484857Y-105357248D01*
X136619746Y-105413121D01*
X136764500Y-105432178D01*
X136909254Y-105413121D01*
X136915271Y-105410628D01*
X136984735Y-105403157D01*
X137047216Y-105434429D01*
X137082871Y-105494517D01*
X137085663Y-105509002D01*
X137099364Y-105613070D01*
X137155235Y-105747956D01*
X137155236Y-105747958D01*
X137155237Y-105747959D01*
X137244118Y-105863790D01*
X137359949Y-105952671D01*
X137494838Y-106008544D01*
X137639592Y-106027601D01*
X137784346Y-106008544D01*
X137919235Y-105952671D01*
X137964420Y-105917999D01*
X145819569Y-105917999D01*
X145839191Y-106054480D01*
X145896470Y-106179902D01*
X145896471Y-106179903D01*
X145986765Y-106284109D01*
X146102760Y-106358654D01*
X146235058Y-106397500D01*
X146372942Y-106397500D01*
X146505240Y-106358654D01*
X146621235Y-106284109D01*
X146711529Y-106179903D01*
X146768808Y-106054480D01*
X146788431Y-105918000D01*
X146768808Y-105781520D01*
X146711529Y-105656097D01*
X146621235Y-105551891D01*
X146621234Y-105551890D01*
X146554498Y-105509002D01*
X146505240Y-105477346D01*
X146372942Y-105438500D01*
X146235058Y-105438500D01*
X146102760Y-105477346D01*
X145986765Y-105551890D01*
X145896470Y-105656097D01*
X145839191Y-105781519D01*
X145819569Y-105917999D01*
X137964420Y-105917999D01*
X138035066Y-105863790D01*
X138123947Y-105747959D01*
X138179820Y-105613070D01*
X138198877Y-105468316D01*
X138179820Y-105323562D01*
X138123947Y-105188674D01*
X138035066Y-105072842D01*
X137919235Y-104983961D01*
X137919234Y-104983960D01*
X137919232Y-104983959D01*
X137784346Y-104928088D01*
X137639591Y-104909030D01*
X137494837Y-104928088D01*
X137488816Y-104930582D01*
X137419346Y-104938048D01*
X137356868Y-104906771D01*
X137321218Y-104846681D01*
X137318428Y-104832204D01*
X137314273Y-104800643D01*
X137304728Y-104728139D01*
X137248855Y-104593251D01*
X137160900Y-104478626D01*
X137159975Y-104477420D01*
X137159974Y-104477419D01*
X137044143Y-104388538D01*
X137044142Y-104388537D01*
X137044140Y-104388536D01*
X136909254Y-104332665D01*
X136764499Y-104313607D01*
X136619746Y-104332665D01*
X136484857Y-104388538D01*
X136369025Y-104477418D01*
X136280145Y-104593250D01*
X136224272Y-104728139D01*
X136205214Y-104872892D01*
X133143916Y-104872892D01*
X133199355Y-104800643D01*
X133255228Y-104665754D01*
X133274285Y-104521000D01*
X133255228Y-104376246D01*
X133199355Y-104241358D01*
X133110474Y-104125526D01*
X133055250Y-104083151D01*
X138071058Y-104083151D01*
X138090116Y-104227906D01*
X138145987Y-104362792D01*
X138145988Y-104362794D01*
X138145989Y-104362795D01*
X138234870Y-104478626D01*
X138350701Y-104567507D01*
X138485590Y-104623380D01*
X138630344Y-104642437D01*
X138775098Y-104623380D01*
X138775098Y-104623379D01*
X138791284Y-104621249D01*
X138791546Y-104623241D01*
X138839244Y-104618108D01*
X138901726Y-104649377D01*
X138915610Y-104664647D01*
X138985038Y-104755127D01*
X139100869Y-104844008D01*
X139235758Y-104899881D01*
X139361454Y-104916428D01*
X139380511Y-104918938D01*
X139380511Y-104918937D01*
X139380512Y-104918938D01*
X139525266Y-104899881D01*
X139660155Y-104844008D01*
X139775986Y-104755127D01*
X139864867Y-104639296D01*
X139920740Y-104504407D01*
X139939797Y-104359653D01*
X139920740Y-104214899D01*
X139864867Y-104080011D01*
X139775986Y-103964179D01*
X139660155Y-103875298D01*
X139660154Y-103875297D01*
X139660152Y-103875296D01*
X139525266Y-103819425D01*
X139380511Y-103800367D01*
X139246713Y-103817982D01*
X139235758Y-103819425D01*
X139235757Y-103819425D01*
X139219573Y-103821556D01*
X139219310Y-103819564D01*
X139171592Y-103824692D01*
X139109115Y-103793414D01*
X139095240Y-103778150D01*
X139025819Y-103687679D01*
X139025818Y-103687678D01*
X138909987Y-103598797D01*
X138909986Y-103598796D01*
X138909984Y-103598795D01*
X138775098Y-103542924D01*
X138630343Y-103523866D01*
X138485590Y-103542924D01*
X138350701Y-103598797D01*
X138234869Y-103687677D01*
X138145989Y-103803509D01*
X138090116Y-103938398D01*
X138071058Y-104083151D01*
X133055250Y-104083151D01*
X132994643Y-104036645D01*
X132994642Y-104036644D01*
X132994640Y-104036643D01*
X132859754Y-103980772D01*
X132714999Y-103961714D01*
X132570246Y-103980772D01*
X132435357Y-104036645D01*
X132319525Y-104125525D01*
X132230645Y-104241357D01*
X132174772Y-104376246D01*
X132155714Y-104520999D01*
X131877285Y-104520999D01*
X131858228Y-104376246D01*
X131802355Y-104241358D01*
X131713474Y-104125526D01*
X131597643Y-104036645D01*
X131597642Y-104036644D01*
X131597640Y-104036643D01*
X131462754Y-103980772D01*
X131317999Y-103961714D01*
X131173246Y-103980772D01*
X131038357Y-104036645D01*
X130922525Y-104125525D01*
X130833645Y-104241357D01*
X130777772Y-104376246D01*
X130758714Y-104520999D01*
X126670285Y-104520999D01*
X126651228Y-104376246D01*
X126595355Y-104241358D01*
X126506474Y-104125526D01*
X126390643Y-104036645D01*
X126390642Y-104036644D01*
X126390640Y-104036643D01*
X126255754Y-103980772D01*
X126110999Y-103961714D01*
X125966246Y-103980772D01*
X125831357Y-104036645D01*
X125715525Y-104125525D01*
X125626645Y-104241357D01*
X125570772Y-104376246D01*
X125551714Y-104520999D01*
X107823978Y-104520999D01*
X107823978Y-103123999D01*
X112978714Y-103123999D01*
X112997772Y-103268754D01*
X113053643Y-103403640D01*
X113053644Y-103403642D01*
X113053645Y-103403643D01*
X113142526Y-103519474D01*
X113258357Y-103608355D01*
X113393246Y-103664228D01*
X113518478Y-103680714D01*
X113582372Y-103708980D01*
X113620844Y-103767304D01*
X113625230Y-103787467D01*
X113632772Y-103844754D01*
X113688643Y-103979640D01*
X113688644Y-103979642D01*
X113688645Y-103979643D01*
X113777526Y-104095474D01*
X113893357Y-104184355D01*
X114028246Y-104240228D01*
X114153941Y-104256775D01*
X114172999Y-104259285D01*
X114172999Y-104259284D01*
X114173000Y-104259285D01*
X114317754Y-104240228D01*
X114452643Y-104184355D01*
X114568474Y-104095474D01*
X114657355Y-103979643D01*
X114713228Y-103844754D01*
X114732285Y-103700000D01*
X114713228Y-103555246D01*
X114657355Y-103420358D01*
X114568474Y-103304526D01*
X114452643Y-103215645D01*
X114452642Y-103215644D01*
X114452640Y-103215643D01*
X114317754Y-103159772D01*
X114192523Y-103143285D01*
X114128626Y-103115018D01*
X114090155Y-103056694D01*
X114085769Y-103036530D01*
X114078228Y-102979246D01*
X114022355Y-102844358D01*
X113933474Y-102728526D01*
X113817643Y-102639645D01*
X113817642Y-102639644D01*
X113817640Y-102639643D01*
X113682754Y-102583772D01*
X113537999Y-102564714D01*
X113393246Y-102583772D01*
X113258357Y-102639645D01*
X113142525Y-102728525D01*
X113053645Y-102844357D01*
X112997772Y-102979246D01*
X112978714Y-103123999D01*
X107823978Y-103123999D01*
X107823978Y-102361999D01*
X114248714Y-102361999D01*
X114267772Y-102506754D01*
X114323643Y-102641640D01*
X114323644Y-102641642D01*
X114323645Y-102641643D01*
X114412526Y-102757474D01*
X114528357Y-102846355D01*
X114663246Y-102902228D01*
X114808000Y-102921285D01*
X114952754Y-102902228D01*
X115087643Y-102846355D01*
X115203474Y-102757474D01*
X115214273Y-102743401D01*
X139059565Y-102743401D01*
X139079187Y-102879882D01*
X139136466Y-103005304D01*
X139136467Y-103005305D01*
X139226761Y-103109511D01*
X139342756Y-103184056D01*
X139475054Y-103222902D01*
X139612938Y-103222902D01*
X139745236Y-103184056D01*
X139759340Y-103174991D01*
X139826378Y-103155306D01*
X139893418Y-103174990D01*
X139893419Y-103174990D01*
X139930667Y-103198927D01*
X140019087Y-103255751D01*
X140151385Y-103294597D01*
X140289269Y-103294597D01*
X140421567Y-103255751D01*
X140533912Y-103183551D01*
X140600950Y-103163867D01*
X140646839Y-103177341D01*
X140647188Y-103176154D01*
X140664293Y-103181176D01*
X140664294Y-103181177D01*
X140796592Y-103220023D01*
X140934476Y-103220023D01*
X141066774Y-103181177D01*
X141182769Y-103106632D01*
X141273063Y-103002426D01*
X141291858Y-102961271D01*
X145895569Y-102961271D01*
X145915191Y-103097752D01*
X145972470Y-103223174D01*
X145972471Y-103223175D01*
X146062765Y-103327381D01*
X146178760Y-103401926D01*
X146311058Y-103440772D01*
X146448942Y-103440772D01*
X146581240Y-103401926D01*
X146697235Y-103327381D01*
X146787529Y-103223175D01*
X146844808Y-103097752D01*
X146864431Y-102961272D01*
X146844808Y-102824792D01*
X146814064Y-102757473D01*
X146787529Y-102699369D01*
X146704929Y-102604043D01*
X146697235Y-102595163D01*
X146697234Y-102595162D01*
X146649855Y-102564714D01*
X146581240Y-102520618D01*
X146448942Y-102481772D01*
X146311058Y-102481772D01*
X146178760Y-102520618D01*
X146062765Y-102595162D01*
X145972470Y-102699369D01*
X145915191Y-102824791D01*
X145895569Y-102961271D01*
X141291858Y-102961271D01*
X141330342Y-102877003D01*
X141349965Y-102740523D01*
X141330342Y-102604043D01*
X141326286Y-102595162D01*
X141273063Y-102478620D01*
X141228114Y-102426746D01*
X141182769Y-102374414D01*
X141182768Y-102374413D01*
X141122368Y-102335597D01*
X141066774Y-102299869D01*
X140934476Y-102261023D01*
X140796592Y-102261023D01*
X140664292Y-102299869D01*
X140551947Y-102372068D01*
X140484908Y-102391752D01*
X140439021Y-102378278D01*
X140438673Y-102379466D01*
X140421567Y-102374443D01*
X140289269Y-102335597D01*
X140151385Y-102335597D01*
X140151384Y-102335597D01*
X140019088Y-102374441D01*
X140004977Y-102383510D01*
X139937937Y-102403192D01*
X139870902Y-102383508D01*
X139796350Y-102335597D01*
X139745236Y-102302748D01*
X139612938Y-102263902D01*
X139475054Y-102263902D01*
X139342756Y-102302748D01*
X139226761Y-102377292D01*
X139136466Y-102481499D01*
X139079187Y-102606921D01*
X139059565Y-102743401D01*
X115214273Y-102743401D01*
X115292355Y-102641643D01*
X115348228Y-102506754D01*
X115367285Y-102362000D01*
X115348228Y-102217246D01*
X115292355Y-102082358D01*
X115203474Y-101966526D01*
X115185032Y-101952375D01*
X115143831Y-101895948D01*
X115139676Y-101826202D01*
X115173888Y-101765281D01*
X115185029Y-101755627D01*
X115203474Y-101741474D01*
X115292355Y-101625643D01*
X115302977Y-101599999D01*
X145490714Y-101599999D01*
X145509772Y-101744754D01*
X145565643Y-101879640D01*
X145565644Y-101879641D01*
X145565645Y-101879643D01*
X145654526Y-101995474D01*
X145770357Y-102084355D01*
X145905246Y-102140228D01*
X146030942Y-102156775D01*
X146049999Y-102159285D01*
X146049999Y-102159284D01*
X146050000Y-102159285D01*
X146194754Y-102140228D01*
X146329643Y-102084355D01*
X146445474Y-101995474D01*
X146534355Y-101879643D01*
X146544530Y-101855077D01*
X146588368Y-101800675D01*
X146654662Y-101778608D01*
X146722362Y-101795886D01*
X146769974Y-101847022D01*
X146782030Y-101886343D01*
X146800881Y-102029526D01*
X146856752Y-102164412D01*
X146856753Y-102164414D01*
X146856754Y-102164415D01*
X146945635Y-102280246D01*
X147061466Y-102369127D01*
X147196355Y-102425000D01*
X147315025Y-102440623D01*
X147341108Y-102444057D01*
X147341108Y-102444056D01*
X147341109Y-102444057D01*
X147485863Y-102425000D01*
X147620752Y-102369127D01*
X147736583Y-102280246D01*
X147825464Y-102164415D01*
X147881337Y-102029526D01*
X147900394Y-101884772D01*
X147900002Y-101881798D01*
X147890820Y-101812052D01*
X147881337Y-101740018D01*
X147825464Y-101605130D01*
X147736583Y-101489298D01*
X147620752Y-101400417D01*
X147620751Y-101400416D01*
X147620749Y-101400415D01*
X147485863Y-101344544D01*
X147341108Y-101325486D01*
X147196355Y-101344544D01*
X147061466Y-101400417D01*
X146945634Y-101489297D01*
X146856752Y-101605131D01*
X146846577Y-101629696D01*
X146802736Y-101684099D01*
X146736441Y-101706163D01*
X146668742Y-101688883D01*
X146621132Y-101637745D01*
X146609078Y-101598427D01*
X146607570Y-101586976D01*
X146590228Y-101455246D01*
X146534355Y-101320358D01*
X146489914Y-101262442D01*
X146445475Y-101204527D01*
X146445474Y-101204526D01*
X146329643Y-101115645D01*
X146194754Y-101059772D01*
X146194753Y-101059771D01*
X146193054Y-101059068D01*
X146138651Y-101015227D01*
X146116586Y-100948933D01*
X146133865Y-100881234D01*
X146185002Y-100833623D01*
X146224319Y-100821568D01*
X146313842Y-100809783D01*
X146448731Y-100753910D01*
X146564562Y-100665029D01*
X146653443Y-100549198D01*
X146691633Y-100456999D01*
X149046714Y-100456999D01*
X149065772Y-100601754D01*
X149121643Y-100736640D01*
X149121644Y-100736642D01*
X149121645Y-100736643D01*
X149210526Y-100852474D01*
X149326357Y-100941355D01*
X149326358Y-100941355D01*
X149326359Y-100941356D01*
X149342486Y-100948036D01*
X149461246Y-100997228D01*
X149586941Y-101013775D01*
X149605999Y-101016285D01*
X149605999Y-101016284D01*
X149606000Y-101016285D01*
X149750754Y-100997228D01*
X149885643Y-100941355D01*
X150001474Y-100852474D01*
X150090355Y-100736643D01*
X150146228Y-100601754D01*
X150165285Y-100457000D01*
X150146228Y-100312246D01*
X150090355Y-100177358D01*
X150001474Y-100061526D01*
X149885643Y-99972645D01*
X149885642Y-99972644D01*
X149885640Y-99972643D01*
X149750754Y-99916772D01*
X149605999Y-99897714D01*
X149461246Y-99916772D01*
X149326357Y-99972645D01*
X149210525Y-100061525D01*
X149121645Y-100177357D01*
X149065772Y-100312246D01*
X149046714Y-100456999D01*
X146691633Y-100456999D01*
X146709316Y-100414309D01*
X146710968Y-100401759D01*
X146739230Y-100337864D01*
X146797553Y-100299390D01*
X146817719Y-100295002D01*
X146914601Y-100282248D01*
X147049490Y-100226375D01*
X147165321Y-100137494D01*
X147254202Y-100021663D01*
X147310075Y-99886774D01*
X147329132Y-99742020D01*
X147310075Y-99597266D01*
X147254202Y-99462378D01*
X147221598Y-99419887D01*
X147173293Y-99356934D01*
X165996668Y-99356934D01*
X166007769Y-99419887D01*
X166027135Y-99529711D01*
X166096622Y-99690804D01*
X166096623Y-99690804D01*
X166201390Y-99831530D01*
X166335783Y-99944300D01*
X166335784Y-99944300D01*
X166335786Y-99944302D01*
X166492567Y-100023040D01*
X166492568Y-100023040D01*
X166492570Y-100023041D01*
X166663277Y-100063500D01*
X166663279Y-100063500D01*
X166791111Y-100063500D01*
X166794709Y-100063500D01*
X166798292Y-100063081D01*
X166798295Y-100063081D01*
X166859627Y-100055912D01*
X166925255Y-100048241D01*
X167090117Y-99988237D01*
X167236696Y-99891830D01*
X167357092Y-99764218D01*
X167444812Y-99612281D01*
X167495130Y-99444210D01*
X167505331Y-99269065D01*
X167474865Y-99096289D01*
X167405377Y-98935196D01*
X167300610Y-98794470D01*
X167300609Y-98794469D01*
X167166216Y-98681699D01*
X167009429Y-98602958D01*
X166838723Y-98562500D01*
X166838721Y-98562500D01*
X166707291Y-98562500D01*
X166703725Y-98562916D01*
X166703704Y-98562918D01*
X166576746Y-98577758D01*
X166411883Y-98637762D01*
X166265303Y-98734170D01*
X166144908Y-98861780D01*
X166057188Y-99013718D01*
X166051009Y-99034357D01*
X166006870Y-99181790D01*
X166006869Y-99181792D01*
X166006870Y-99181792D01*
X165996668Y-99356934D01*
X147173293Y-99356934D01*
X147165321Y-99346545D01*
X147159573Y-99342135D01*
X147118370Y-99285707D01*
X147114215Y-99215961D01*
X147140512Y-99169134D01*
X147138036Y-99167235D01*
X147149621Y-99152137D01*
X147236855Y-99038453D01*
X147292728Y-98903564D01*
X147311785Y-98758810D01*
X147292728Y-98614056D01*
X147267023Y-98551999D01*
X156995569Y-98551999D01*
X157015191Y-98688480D01*
X157072470Y-98813902D01*
X157130092Y-98880402D01*
X157162765Y-98918109D01*
X157278760Y-98992654D01*
X157411058Y-99031500D01*
X157548942Y-99031500D01*
X157681240Y-98992654D01*
X157797235Y-98918109D01*
X157887529Y-98813903D01*
X157944808Y-98688480D01*
X157964431Y-98552000D01*
X157944808Y-98415520D01*
X157931554Y-98386499D01*
X157887529Y-98290097D01*
X157812257Y-98203228D01*
X157797235Y-98185891D01*
X157797234Y-98185890D01*
X157743455Y-98151329D01*
X157681240Y-98111346D01*
X157548942Y-98072500D01*
X157411058Y-98072500D01*
X157278760Y-98111346D01*
X157162765Y-98185890D01*
X157072470Y-98290097D01*
X157015191Y-98415519D01*
X156995569Y-98551999D01*
X147267023Y-98551999D01*
X147236855Y-98479168D01*
X147147974Y-98363336D01*
X147032143Y-98274455D01*
X147032142Y-98274454D01*
X147032140Y-98274453D01*
X146897254Y-98218582D01*
X146752499Y-98199524D01*
X146607746Y-98218582D01*
X146472857Y-98274455D01*
X146357025Y-98363335D01*
X146268145Y-98479167D01*
X146212272Y-98614056D01*
X146193214Y-98758809D01*
X146212272Y-98903564D01*
X146268143Y-99038450D01*
X146268144Y-99038452D01*
X146268145Y-99038453D01*
X146355379Y-99152137D01*
X146357027Y-99154285D01*
X146362773Y-99158694D01*
X146403976Y-99215121D01*
X146408131Y-99284867D01*
X146381834Y-99331693D01*
X146384311Y-99333594D01*
X146285492Y-99462377D01*
X146229619Y-99597266D01*
X146227966Y-99609821D01*
X146199698Y-99673717D01*
X146141373Y-99712187D01*
X146121213Y-99716572D01*
X146024334Y-99729327D01*
X145889445Y-99785200D01*
X145773613Y-99874080D01*
X145684733Y-99989912D01*
X145628860Y-100124801D01*
X145609802Y-100269554D01*
X145628860Y-100414309D01*
X145684731Y-100549195D01*
X145684732Y-100549196D01*
X145684733Y-100549198D01*
X145773614Y-100665029D01*
X145889445Y-100753910D01*
X146024334Y-100809783D01*
X146024335Y-100809783D01*
X146026032Y-100810486D01*
X146080436Y-100854327D01*
X146102501Y-100920621D01*
X146085222Y-100988320D01*
X146034085Y-101035931D01*
X145994766Y-101047986D01*
X145905246Y-101059772D01*
X145770357Y-101115645D01*
X145654525Y-101204525D01*
X145565645Y-101320357D01*
X145509772Y-101455246D01*
X145490714Y-101599999D01*
X115302977Y-101599999D01*
X115348228Y-101490754D01*
X115367285Y-101346000D01*
X115348228Y-101201246D01*
X115292355Y-101066358D01*
X115232474Y-100988320D01*
X115203475Y-100950527D01*
X115203474Y-100950526D01*
X115087643Y-100861645D01*
X115087642Y-100861644D01*
X115087640Y-100861643D01*
X114952754Y-100805772D01*
X114807999Y-100786714D01*
X114663246Y-100805772D01*
X114528357Y-100861645D01*
X114412525Y-100950525D01*
X114323645Y-101066357D01*
X114267772Y-101201246D01*
X114248714Y-101345999D01*
X114267772Y-101490754D01*
X114323643Y-101625640D01*
X114323644Y-101625642D01*
X114323645Y-101625643D01*
X114412526Y-101741474D01*
X114430967Y-101755624D01*
X114472169Y-101812052D01*
X114476324Y-101881798D01*
X114442112Y-101942719D01*
X114430967Y-101952376D01*
X114412524Y-101966527D01*
X114323645Y-102082357D01*
X114267772Y-102217246D01*
X114248714Y-102361999D01*
X107823978Y-102361999D01*
X107823978Y-99313999D01*
X114375714Y-99313999D01*
X114394772Y-99458754D01*
X114450643Y-99593640D01*
X114450644Y-99593642D01*
X114450645Y-99593643D01*
X114539526Y-99709474D01*
X114655357Y-99798355D01*
X114790246Y-99854228D01*
X114935000Y-99873285D01*
X115079754Y-99854228D01*
X115214643Y-99798355D01*
X115330474Y-99709474D01*
X115419355Y-99593643D01*
X115475228Y-99458754D01*
X115494285Y-99314000D01*
X115475228Y-99169246D01*
X115419355Y-99034358D01*
X115347319Y-98940479D01*
X115330475Y-98918527D01*
X115330474Y-98918526D01*
X115214643Y-98829645D01*
X115214642Y-98829644D01*
X115214640Y-98829643D01*
X115079754Y-98773772D01*
X114934999Y-98754714D01*
X114790246Y-98773772D01*
X114655357Y-98829645D01*
X114539525Y-98918525D01*
X114450645Y-99034357D01*
X114394772Y-99169246D01*
X114375714Y-99313999D01*
X107823978Y-99313999D01*
X107823978Y-98386499D01*
X120550703Y-98386499D01*
X120569761Y-98531254D01*
X120625632Y-98666140D01*
X120625633Y-98666142D01*
X120625634Y-98666143D01*
X120714515Y-98781974D01*
X120830346Y-98870855D01*
X120965235Y-98926728D01*
X121109989Y-98945785D01*
X121254743Y-98926728D01*
X121389632Y-98870855D01*
X121434254Y-98836614D01*
X121499420Y-98811421D01*
X121567865Y-98825458D01*
X121585225Y-98836615D01*
X121608909Y-98854788D01*
X121629848Y-98870855D01*
X121764737Y-98926728D01*
X121890433Y-98943275D01*
X121909490Y-98945785D01*
X121909490Y-98945784D01*
X121909491Y-98945785D01*
X122054245Y-98926728D01*
X122189134Y-98870855D01*
X122291743Y-98792119D01*
X122356911Y-98766925D01*
X122414682Y-98775934D01*
X122424154Y-98779857D01*
X122424155Y-98779858D01*
X122559044Y-98835731D01*
X122688712Y-98852801D01*
X122703797Y-98854788D01*
X122703797Y-98854787D01*
X122703798Y-98854788D01*
X122848552Y-98835731D01*
X122983441Y-98779858D01*
X123099272Y-98690977D01*
X123108463Y-98678999D01*
X131520714Y-98678999D01*
X131539772Y-98823754D01*
X131595643Y-98958640D01*
X131595644Y-98958642D01*
X131595645Y-98958643D01*
X131684526Y-99074474D01*
X131800357Y-99163355D01*
X131800358Y-99163355D01*
X131800359Y-99163356D01*
X131814579Y-99169246D01*
X131935246Y-99219228D01*
X132080000Y-99238285D01*
X132224754Y-99219228D01*
X132359643Y-99163355D01*
X132472234Y-99076960D01*
X132835769Y-99076960D01*
X132838235Y-99094115D01*
X132855391Y-99213440D01*
X132912671Y-99338864D01*
X132982877Y-99419887D01*
X133011902Y-99483443D01*
X133003725Y-99548542D01*
X132969355Y-99631518D01*
X132950297Y-99776271D01*
X132969355Y-99921026D01*
X133025226Y-100055912D01*
X133025227Y-100055914D01*
X133025228Y-100055915D01*
X133078539Y-100125391D01*
X133078842Y-100125785D01*
X133104036Y-100190954D01*
X133089998Y-100259399D01*
X133078842Y-100276758D01*
X133025228Y-100346629D01*
X132969355Y-100481518D01*
X132950297Y-100626271D01*
X132969355Y-100771026D01*
X133025226Y-100905912D01*
X133025227Y-100905914D01*
X133025228Y-100905915D01*
X133114109Y-101021746D01*
X133229940Y-101110627D01*
X133364829Y-101166500D01*
X133509583Y-101185557D01*
X133654337Y-101166500D01*
X133789226Y-101110627D01*
X133905057Y-101021746D01*
X133993938Y-100905915D01*
X134049811Y-100771026D01*
X134068868Y-100626272D01*
X134063771Y-100587553D01*
X137945569Y-100587553D01*
X137965191Y-100724034D01*
X138022470Y-100849456D01*
X138022471Y-100849457D01*
X138112765Y-100953663D01*
X138228760Y-101028208D01*
X138361058Y-101067054D01*
X138498942Y-101067054D01*
X138631240Y-101028208D01*
X138747235Y-100953663D01*
X138765873Y-100932154D01*
X138786645Y-100908181D01*
X138845423Y-100870405D01*
X138915292Y-100870404D01*
X138974071Y-100908178D01*
X138974072Y-100908180D01*
X139007729Y-100947023D01*
X139007731Y-100947024D01*
X139007732Y-100947025D01*
X139123727Y-101021570D01*
X139256025Y-101060416D01*
X139393909Y-101060416D01*
X139526207Y-101021570D01*
X139609999Y-100967720D01*
X139677037Y-100948036D01*
X139744076Y-100967720D01*
X139754789Y-100977002D01*
X139763763Y-100982769D01*
X139763765Y-100982771D01*
X139879760Y-101057316D01*
X140012058Y-101096162D01*
X140149942Y-101096162D01*
X140282240Y-101057316D01*
X140398235Y-100982771D01*
X140488529Y-100878565D01*
X140525642Y-100797299D01*
X142003573Y-100797299D01*
X142023195Y-100933779D01*
X142080474Y-101059201D01*
X142125035Y-101110628D01*
X142170769Y-101163408D01*
X142286764Y-101237953D01*
X142419062Y-101276799D01*
X142556946Y-101276799D01*
X142689244Y-101237953D01*
X142805239Y-101163408D01*
X142895533Y-101059202D01*
X142902709Y-101043487D01*
X142948464Y-100990684D01*
X143015503Y-100971000D01*
X143163106Y-100971000D01*
X143295404Y-100932154D01*
X143411399Y-100857609D01*
X143415849Y-100852474D01*
X143452637Y-100810017D01*
X143511414Y-100772241D01*
X143581284Y-100772240D01*
X143640061Y-100810013D01*
X143712867Y-100894036D01*
X143828862Y-100968581D01*
X143961160Y-101007427D01*
X144099044Y-101007427D01*
X144231342Y-100968581D01*
X144347337Y-100894036D01*
X144437631Y-100789830D01*
X144494910Y-100664407D01*
X144514533Y-100527927D01*
X144494910Y-100391447D01*
X144479016Y-100356645D01*
X144437631Y-100266024D01*
X144403275Y-100226375D01*
X144347337Y-100161818D01*
X144347336Y-100161817D01*
X144290655Y-100125391D01*
X144256133Y-100103205D01*
X144210380Y-100050403D01*
X144200436Y-99981245D01*
X144210380Y-99947379D01*
X144211786Y-99944302D01*
X144263310Y-99831480D01*
X144282933Y-99695000D01*
X144263310Y-99558520D01*
X144258753Y-99548542D01*
X144206031Y-99433097D01*
X144127213Y-99342135D01*
X144115737Y-99328891D01*
X144115736Y-99328890D01*
X144044833Y-99283324D01*
X143999078Y-99230520D01*
X143989134Y-99161361D01*
X144018159Y-99097806D01*
X144076935Y-99060032D01*
X144079926Y-99059154D01*
X144195921Y-98984609D01*
X144286215Y-98880403D01*
X144343494Y-98754980D01*
X144363117Y-98618500D01*
X144343494Y-98482020D01*
X144342191Y-98479167D01*
X144286215Y-98356597D01*
X144195920Y-98252390D01*
X144119421Y-98203228D01*
X144079926Y-98177846D01*
X143947628Y-98139000D01*
X143809744Y-98139000D01*
X143677446Y-98177846D01*
X143561451Y-98252390D01*
X143471156Y-98356597D01*
X143413877Y-98482019D01*
X143394255Y-98618499D01*
X143413877Y-98754980D01*
X143471156Y-98880402D01*
X143511297Y-98926728D01*
X143561451Y-98984609D01*
X143606747Y-99013719D01*
X143632354Y-99030175D01*
X143678109Y-99082979D01*
X143688053Y-99152137D01*
X143659029Y-99215693D01*
X143600255Y-99253467D01*
X143597263Y-99254345D01*
X143481267Y-99328890D01*
X143390972Y-99433097D01*
X143333693Y-99558519D01*
X143314071Y-99694999D01*
X143333693Y-99831478D01*
X143342524Y-99850814D01*
X143352468Y-99919973D01*
X143323444Y-99983529D01*
X143264666Y-100021304D01*
X143194797Y-100021305D01*
X143179620Y-100016849D01*
X143163106Y-100012000D01*
X143025222Y-100012000D01*
X142892924Y-100050846D01*
X142776929Y-100125390D01*
X142686634Y-100229597D01*
X142679458Y-100245312D01*
X142633702Y-100298115D01*
X142566664Y-100317799D01*
X142419062Y-100317799D01*
X142286764Y-100356645D01*
X142170769Y-100431189D01*
X142080474Y-100535396D01*
X142023195Y-100660818D01*
X142003573Y-100797299D01*
X140525642Y-100797299D01*
X140545808Y-100753142D01*
X140565431Y-100616662D01*
X140545808Y-100480182D01*
X140532514Y-100451073D01*
X140488529Y-100354759D01*
X140436750Y-100295002D01*
X140398235Y-100250553D01*
X140398234Y-100250552D01*
X140337607Y-100211590D01*
X140282240Y-100176008D01*
X140149942Y-100137162D01*
X140012058Y-100137162D01*
X139879758Y-100176008D01*
X139795967Y-100229857D01*
X139728928Y-100249541D01*
X139661888Y-100229856D01*
X139651176Y-100220574D01*
X139605086Y-100190954D01*
X139526207Y-100140262D01*
X139393909Y-100101416D01*
X139256025Y-100101416D01*
X139123727Y-100140262D01*
X139007731Y-100214807D01*
X138968320Y-100260290D01*
X138909541Y-100298064D01*
X138839672Y-100298064D01*
X138780894Y-100260289D01*
X138780893Y-100260289D01*
X138747234Y-100221444D01*
X138669901Y-100171746D01*
X138631240Y-100146900D01*
X138498942Y-100108054D01*
X138361058Y-100108054D01*
X138228760Y-100146900D01*
X138112765Y-100221444D01*
X138022470Y-100325651D01*
X137965191Y-100451073D01*
X137945569Y-100587553D01*
X134063771Y-100587553D01*
X134049811Y-100481518D01*
X133993938Y-100346630D01*
X133940323Y-100276758D01*
X133915129Y-100211590D01*
X133929167Y-100143145D01*
X133940324Y-100125785D01*
X133993938Y-100055915D01*
X134049811Y-99921026D01*
X134068868Y-99776272D01*
X134049811Y-99631518D01*
X133993938Y-99496630D01*
X133905057Y-99380798D01*
X133832843Y-99325385D01*
X133791642Y-99268959D01*
X133785593Y-99209367D01*
X133804631Y-99076960D01*
X133785008Y-98940480D01*
X133782594Y-98935195D01*
X133727729Y-98815057D01*
X133678990Y-98758809D01*
X133637435Y-98710851D01*
X133637434Y-98710850D01*
X133592072Y-98681698D01*
X133521440Y-98636306D01*
X133389142Y-98597460D01*
X133251258Y-98597460D01*
X133118960Y-98636306D01*
X133002965Y-98710850D01*
X132912670Y-98815057D01*
X132855391Y-98940479D01*
X132836126Y-99074474D01*
X132835769Y-99076960D01*
X132472234Y-99076960D01*
X132475474Y-99074474D01*
X132564355Y-98958643D01*
X132620228Y-98823754D01*
X132639285Y-98679000D01*
X132620228Y-98534246D01*
X132564355Y-98399358D01*
X132475474Y-98283526D01*
X132359643Y-98194645D01*
X132359642Y-98194644D01*
X132359640Y-98194643D01*
X132224754Y-98138772D01*
X132079999Y-98119714D01*
X131935246Y-98138772D01*
X131800357Y-98194645D01*
X131684525Y-98283525D01*
X131595645Y-98399357D01*
X131539772Y-98534246D01*
X131520714Y-98678999D01*
X123108463Y-98678999D01*
X123188153Y-98575146D01*
X123244026Y-98440257D01*
X123263083Y-98295503D01*
X123244026Y-98150749D01*
X123188153Y-98015861D01*
X123099272Y-97900029D01*
X122983441Y-97811148D01*
X122983440Y-97811147D01*
X122983438Y-97811146D01*
X122848552Y-97755275D01*
X122703797Y-97736217D01*
X122559044Y-97755275D01*
X122424155Y-97811148D01*
X122321545Y-97889883D01*
X122256376Y-97915077D01*
X122198607Y-97906068D01*
X122054245Y-97846272D01*
X121909490Y-97827214D01*
X121764737Y-97846272D01*
X121629848Y-97902145D01*
X121585226Y-97936385D01*
X121520057Y-97961579D01*
X121451612Y-97947541D01*
X121434253Y-97936384D01*
X121389631Y-97902144D01*
X121254743Y-97846272D01*
X121109988Y-97827214D01*
X120965235Y-97846272D01*
X120830346Y-97902145D01*
X120714514Y-97991025D01*
X120625634Y-98106857D01*
X120569761Y-98241746D01*
X120550703Y-98386499D01*
X107823978Y-98386499D01*
X107823978Y-97014500D01*
X109048634Y-97014500D01*
X109048932Y-97016448D01*
X109119564Y-97207163D01*
X109227145Y-97379763D01*
X109367266Y-97527169D01*
X109534194Y-97643355D01*
X109721092Y-97723559D01*
X109920311Y-97764500D01*
X110272000Y-97764500D01*
X110272000Y-97064500D01*
X110772000Y-97064500D01*
X110772000Y-97764500D01*
X111069570Y-97764500D01*
X111075835Y-97764182D01*
X111224339Y-97749080D01*
X111418389Y-97688196D01*
X111596214Y-97589496D01*
X111750531Y-97457020D01*
X111875021Y-97296192D01*
X111964589Y-97113594D01*
X111990246Y-97014500D01*
X113181715Y-97014500D01*
X113225441Y-97158650D01*
X113320620Y-97336715D01*
X113448707Y-97492792D01*
X113604784Y-97620879D01*
X113782848Y-97716057D01*
X113976067Y-97774670D01*
X114123604Y-97789201D01*
X114129689Y-97789500D01*
X114452000Y-97789500D01*
X114452000Y-97064500D01*
X114952000Y-97064500D01*
X114951999Y-97789499D01*
X114952000Y-97789500D01*
X115274311Y-97789500D01*
X115280395Y-97789201D01*
X115427932Y-97774670D01*
X115621151Y-97716057D01*
X115720415Y-97662999D01*
X123392714Y-97662999D01*
X123411772Y-97807754D01*
X123467643Y-97942640D01*
X123467644Y-97942642D01*
X123467645Y-97942643D01*
X123556526Y-98058474D01*
X123672357Y-98147355D01*
X123807246Y-98203228D01*
X123952000Y-98222285D01*
X124096754Y-98203228D01*
X124222049Y-98151328D01*
X124291516Y-98143860D01*
X124316946Y-98151327D01*
X124442246Y-98203228D01*
X124514623Y-98212756D01*
X124586999Y-98222285D01*
X124586999Y-98222284D01*
X124587000Y-98222285D01*
X124731754Y-98203228D01*
X124857049Y-98151328D01*
X124926516Y-98143860D01*
X124951946Y-98151327D01*
X125077246Y-98203228D01*
X125149622Y-98212756D01*
X125221999Y-98222285D01*
X125221999Y-98222284D01*
X125222000Y-98222285D01*
X125366754Y-98203228D01*
X125501643Y-98147355D01*
X125617474Y-98058474D01*
X125706355Y-97942643D01*
X125762228Y-97807754D01*
X125781285Y-97663000D01*
X125762228Y-97518246D01*
X125706355Y-97383358D01*
X125639470Y-97296192D01*
X125617475Y-97267527D01*
X125617474Y-97267526D01*
X125501643Y-97178645D01*
X125501642Y-97178644D01*
X125501640Y-97178643D01*
X125366754Y-97122772D01*
X125221999Y-97103714D01*
X125077246Y-97122772D01*
X124951953Y-97174670D01*
X124882483Y-97182139D01*
X124857048Y-97174670D01*
X124731754Y-97122772D01*
X124586999Y-97103714D01*
X124442246Y-97122772D01*
X124316953Y-97174670D01*
X124247483Y-97182139D01*
X124222048Y-97174670D01*
X124096754Y-97122772D01*
X123951999Y-97103714D01*
X123807246Y-97122772D01*
X123672357Y-97178645D01*
X123556525Y-97267525D01*
X123467645Y-97383357D01*
X123411772Y-97518246D01*
X123392714Y-97662999D01*
X115720415Y-97662999D01*
X115799215Y-97620879D01*
X115955292Y-97492792D01*
X116083379Y-97336715D01*
X116178558Y-97158650D01*
X116222285Y-97014500D01*
X115418111Y-97014500D01*
X115457610Y-96990043D01*
X115524853Y-96900999D01*
X131266714Y-96900999D01*
X131285772Y-97045754D01*
X131341643Y-97180640D01*
X131341644Y-97180642D01*
X131341645Y-97180643D01*
X131430526Y-97296474D01*
X131546357Y-97385355D01*
X131681246Y-97441228D01*
X131826000Y-97460285D01*
X131970754Y-97441228D01*
X132105643Y-97385355D01*
X132221474Y-97296474D01*
X132310355Y-97180643D01*
X132366228Y-97045754D01*
X132385285Y-96901000D01*
X132366228Y-96756246D01*
X132310355Y-96621358D01*
X132228359Y-96514499D01*
X132221475Y-96505527D01*
X132221474Y-96505526D01*
X132105643Y-96416645D01*
X132105642Y-96416644D01*
X132105640Y-96416643D01*
X131970754Y-96360772D01*
X131825999Y-96341714D01*
X131681246Y-96360772D01*
X131546357Y-96416645D01*
X131430525Y-96505525D01*
X131341645Y-96621357D01*
X131285772Y-96756246D01*
X131266714Y-96900999D01*
X115524853Y-96900999D01*
X115525201Y-96900538D01*
X115555895Y-96792660D01*
X115545546Y-96680979D01*
X115495552Y-96580578D01*
X115423069Y-96514500D01*
X116222285Y-96514500D01*
X116178558Y-96370349D01*
X116083379Y-96192284D01*
X115955292Y-96036207D01*
X115799215Y-95908120D01*
X115621151Y-95812942D01*
X115427932Y-95754329D01*
X115280395Y-95739798D01*
X115274311Y-95739500D01*
X114842739Y-95739500D01*
X114775700Y-95719815D01*
X114729945Y-95667011D01*
X114720001Y-95597853D01*
X114728178Y-95568047D01*
X114754708Y-95503999D01*
X129869714Y-95503999D01*
X129888772Y-95648754D01*
X129944643Y-95783640D01*
X129944644Y-95783642D01*
X129944645Y-95783643D01*
X130033526Y-95899474D01*
X130149357Y-95988355D01*
X130284246Y-96044228D01*
X130409942Y-96060775D01*
X130428999Y-96063285D01*
X130428999Y-96063284D01*
X130429000Y-96063285D01*
X130573754Y-96044228D01*
X130708643Y-95988355D01*
X130824474Y-95899474D01*
X130913355Y-95783643D01*
X130923977Y-95757999D01*
X135457714Y-95757999D01*
X135476772Y-95902754D01*
X135532643Y-96037640D01*
X135532644Y-96037642D01*
X135532645Y-96037643D01*
X135621526Y-96153474D01*
X135737357Y-96242355D01*
X135872246Y-96298228D01*
X136017000Y-96317285D01*
X136161754Y-96298228D01*
X136296643Y-96242355D01*
X136319537Y-96224788D01*
X156757936Y-96224788D01*
X156776994Y-96369543D01*
X156832865Y-96504429D01*
X156832866Y-96504431D01*
X156832867Y-96504432D01*
X156921748Y-96620263D01*
X157037579Y-96709144D01*
X157037580Y-96709144D01*
X157050531Y-96719082D01*
X157047673Y-96722806D01*
X157077871Y-96747143D01*
X157099933Y-96813438D01*
X157088807Y-96869369D01*
X157078691Y-96891518D01*
X157059069Y-97028000D01*
X157078691Y-97164480D01*
X157135970Y-97289902D01*
X157135971Y-97289903D01*
X157226265Y-97394109D01*
X157342260Y-97468654D01*
X157474558Y-97507500D01*
X157612442Y-97507500D01*
X157744740Y-97468654D01*
X157860735Y-97394109D01*
X157951029Y-97289903D01*
X158008308Y-97164480D01*
X158027931Y-97028000D01*
X158008308Y-96891520D01*
X158008307Y-96891518D01*
X157951029Y-96766097D01*
X157860734Y-96661890D01*
X157849684Y-96654789D01*
X157803929Y-96601985D01*
X157793985Y-96532827D01*
X157802162Y-96503021D01*
X157821621Y-96456041D01*
X157857450Y-96369543D01*
X157876507Y-96224789D01*
X157857450Y-96080035D01*
X157801577Y-95945147D01*
X157751396Y-95879750D01*
X157726203Y-95814582D01*
X157731762Y-95787474D01*
X157702073Y-95794304D01*
X157636323Y-95770667D01*
X157633960Y-95768898D01*
X157596864Y-95740433D01*
X157461976Y-95684561D01*
X157317221Y-95665503D01*
X157172468Y-95684561D01*
X157037579Y-95740434D01*
X156921747Y-95829314D01*
X156832867Y-95945146D01*
X156776994Y-96080035D01*
X156757936Y-96224788D01*
X136319537Y-96224788D01*
X136412474Y-96153474D01*
X136501355Y-96037643D01*
X136557228Y-95902754D01*
X136576285Y-95758000D01*
X136557228Y-95613246D01*
X136501355Y-95478358D01*
X136448309Y-95409227D01*
X136412475Y-95362527D01*
X136412474Y-95362526D01*
X136296643Y-95273645D01*
X136296642Y-95273644D01*
X136296640Y-95273643D01*
X136239558Y-95249999D01*
X157682714Y-95249999D01*
X157701772Y-95394754D01*
X157757644Y-95529642D01*
X157807823Y-95595037D01*
X157833017Y-95660206D01*
X157827457Y-95687313D01*
X157857146Y-95680484D01*
X157922897Y-95704121D01*
X157925259Y-95705889D01*
X157943408Y-95719815D01*
X157962357Y-95734355D01*
X158097246Y-95790228D01*
X158242000Y-95809285D01*
X158386754Y-95790228D01*
X158521643Y-95734355D01*
X158637474Y-95645474D01*
X158648581Y-95630999D01*
X162508714Y-95630999D01*
X162527772Y-95775754D01*
X162583643Y-95910640D01*
X162583644Y-95910642D01*
X162583645Y-95910643D01*
X162672526Y-96026474D01*
X162762778Y-96095727D01*
X162803979Y-96152154D01*
X162808134Y-96221900D01*
X162785666Y-96269588D01*
X162710645Y-96367357D01*
X162654772Y-96502246D01*
X162635714Y-96646999D01*
X162654772Y-96791754D01*
X162710643Y-96926640D01*
X162710644Y-96926642D01*
X162710645Y-96926643D01*
X162799526Y-97042474D01*
X162915357Y-97131355D01*
X163050246Y-97187228D01*
X163195000Y-97206285D01*
X163339754Y-97187228D01*
X163474643Y-97131355D01*
X163590474Y-97042474D01*
X163679355Y-96926643D01*
X163735228Y-96791754D01*
X163754285Y-96647000D01*
X163735228Y-96502246D01*
X163679355Y-96367358D01*
X163626309Y-96298227D01*
X163590473Y-96251524D01*
X163500223Y-96182272D01*
X163459020Y-96125844D01*
X163454866Y-96056098D01*
X163477335Y-96008410D01*
X163525878Y-95945148D01*
X163552355Y-95910643D01*
X163608228Y-95775754D01*
X163627285Y-95631000D01*
X163608228Y-95486246D01*
X163552355Y-95351358D01*
X163463474Y-95235526D01*
X163347643Y-95146645D01*
X163347642Y-95146644D01*
X163347640Y-95146643D01*
X163212754Y-95090772D01*
X163067999Y-95071714D01*
X162923246Y-95090772D01*
X162788357Y-95146645D01*
X162672525Y-95235525D01*
X162583645Y-95351357D01*
X162527772Y-95486246D01*
X162508714Y-95630999D01*
X158648581Y-95630999D01*
X158726355Y-95529643D01*
X158782228Y-95394754D01*
X158801285Y-95250000D01*
X158799379Y-95235526D01*
X158794533Y-95198714D01*
X158782228Y-95105246D01*
X158726355Y-94970358D01*
X158637474Y-94854526D01*
X158521643Y-94765645D01*
X158521642Y-94765644D01*
X158521640Y-94765643D01*
X158386754Y-94709772D01*
X158241999Y-94690714D01*
X158097246Y-94709772D01*
X157962357Y-94765645D01*
X157846525Y-94854525D01*
X157757645Y-94970357D01*
X157701772Y-95105246D01*
X157682714Y-95249999D01*
X136239558Y-95249999D01*
X136161754Y-95217772D01*
X136016999Y-95198714D01*
X135872246Y-95217772D01*
X135737357Y-95273645D01*
X135621525Y-95362525D01*
X135532645Y-95478357D01*
X135476772Y-95613246D01*
X135457714Y-95757999D01*
X130923977Y-95757999D01*
X130969228Y-95648754D01*
X130988285Y-95504000D01*
X130969228Y-95359246D01*
X130913355Y-95224358D01*
X130871227Y-95169456D01*
X130824474Y-95108525D01*
X130744386Y-95047072D01*
X130703183Y-94990644D01*
X130699028Y-94920898D01*
X130726157Y-94867496D01*
X130773029Y-94813403D01*
X130830308Y-94687980D01*
X130849931Y-94551500D01*
X130830308Y-94415020D01*
X130825941Y-94405458D01*
X130773029Y-94289597D01*
X130682734Y-94185390D01*
X130619686Y-94144872D01*
X130566740Y-94110846D01*
X130553638Y-94106999D01*
X156793714Y-94106999D01*
X156812772Y-94251754D01*
X156868643Y-94386640D01*
X156868644Y-94386642D01*
X156868645Y-94386643D01*
X156957526Y-94502474D01*
X157073357Y-94591355D01*
X157208246Y-94647228D01*
X157333941Y-94663775D01*
X157352999Y-94666285D01*
X157352999Y-94666284D01*
X157353000Y-94666285D01*
X157497754Y-94647228D01*
X157632643Y-94591355D01*
X157748474Y-94502474D01*
X157837355Y-94386643D01*
X157893228Y-94251754D01*
X157912285Y-94107000D01*
X157893228Y-93962246D01*
X157837355Y-93827358D01*
X157779255Y-93751640D01*
X157748475Y-93711527D01*
X157748474Y-93711526D01*
X157632643Y-93622645D01*
X157632642Y-93622644D01*
X157632640Y-93622643D01*
X157497754Y-93566772D01*
X157352999Y-93547714D01*
X157208246Y-93566772D01*
X157073357Y-93622645D01*
X156957525Y-93711525D01*
X156868645Y-93827357D01*
X156812772Y-93962246D01*
X156793714Y-94106999D01*
X130553638Y-94106999D01*
X130434442Y-94072000D01*
X130296558Y-94072000D01*
X130164260Y-94110846D01*
X130048265Y-94185390D01*
X129957970Y-94289597D01*
X129900691Y-94415019D01*
X129881069Y-94551499D01*
X129900691Y-94687980D01*
X129957970Y-94813402D01*
X130055559Y-94926027D01*
X130084583Y-94989583D01*
X130074639Y-95058741D01*
X130037335Y-95105602D01*
X130033526Y-95108524D01*
X129944645Y-95224357D01*
X129888772Y-95359246D01*
X129869714Y-95503999D01*
X114754708Y-95503999D01*
X114762687Y-95484736D01*
X114782466Y-95334500D01*
X114767965Y-95224358D01*
X114762687Y-95184264D01*
X114747931Y-95148640D01*
X114704698Y-95044267D01*
X114612451Y-94924049D01*
X114540709Y-94868999D01*
X115847569Y-94868999D01*
X115867191Y-95005480D01*
X115924470Y-95130902D01*
X115924471Y-95130903D01*
X116014765Y-95235109D01*
X116130760Y-95309654D01*
X116263058Y-95348500D01*
X116400942Y-95348500D01*
X116533240Y-95309654D01*
X116649235Y-95235109D01*
X116739529Y-95130903D01*
X116796808Y-95005480D01*
X116816431Y-94869000D01*
X116816431Y-94868999D01*
X122122712Y-94868999D01*
X122141770Y-95013754D01*
X122197641Y-95148640D01*
X122197642Y-95148642D01*
X122197643Y-95148643D01*
X122286524Y-95264474D01*
X122402355Y-95353355D01*
X122537244Y-95409228D01*
X122681998Y-95428285D01*
X122826752Y-95409228D01*
X122961641Y-95353355D01*
X123077472Y-95264474D01*
X123166353Y-95148643D01*
X123222226Y-95013754D01*
X123241283Y-94869000D01*
X123239377Y-94854526D01*
X123236129Y-94829854D01*
X123222226Y-94724246D01*
X123166353Y-94589358D01*
X123077472Y-94473526D01*
X122961641Y-94384645D01*
X122961640Y-94384644D01*
X122961638Y-94384643D01*
X122826752Y-94328772D01*
X122681997Y-94309714D01*
X122537244Y-94328772D01*
X122402355Y-94384645D01*
X122286523Y-94473525D01*
X122197643Y-94589357D01*
X122141770Y-94724246D01*
X122122712Y-94868999D01*
X116816431Y-94868999D01*
X116796808Y-94732520D01*
X116793029Y-94724246D01*
X116739529Y-94607097D01*
X116691354Y-94551499D01*
X116649235Y-94502891D01*
X116649234Y-94502890D01*
X116603540Y-94473525D01*
X116533240Y-94428346D01*
X116400942Y-94389500D01*
X116263058Y-94389500D01*
X116130760Y-94428346D01*
X116014765Y-94502890D01*
X115924470Y-94607097D01*
X115867191Y-94732519D01*
X115847569Y-94868999D01*
X114540709Y-94868999D01*
X114492233Y-94831802D01*
X114487530Y-94829854D01*
X114447809Y-94813401D01*
X114352236Y-94773813D01*
X114290179Y-94765643D01*
X114243739Y-94759529D01*
X114243737Y-94759528D01*
X114239720Y-94759000D01*
X114164280Y-94759000D01*
X114160263Y-94759528D01*
X114160260Y-94759529D01*
X114051764Y-94773813D01*
X113911768Y-94831801D01*
X113791549Y-94924049D01*
X113699301Y-95044268D01*
X113641312Y-95184264D01*
X113621533Y-95334499D01*
X113641312Y-95484735D01*
X113699302Y-95624733D01*
X113737044Y-95673920D01*
X113762238Y-95739089D01*
X113748200Y-95807534D01*
X113699386Y-95857523D01*
X113697122Y-95858764D01*
X113604784Y-95908120D01*
X113448707Y-96036207D01*
X113320620Y-96192284D01*
X113225441Y-96370349D01*
X113181715Y-96514500D01*
X113985889Y-96514500D01*
X113946390Y-96538957D01*
X113878799Y-96628462D01*
X113848105Y-96736340D01*
X113858454Y-96848021D01*
X113908448Y-96948422D01*
X113980931Y-97014500D01*
X113181715Y-97014500D01*
X111990246Y-97014500D01*
X111088111Y-97014500D01*
X111127610Y-96990043D01*
X111195201Y-96900538D01*
X111225895Y-96792660D01*
X111215546Y-96680979D01*
X111165552Y-96580578D01*
X111093069Y-96514500D01*
X111995366Y-96514500D01*
X111995067Y-96512551D01*
X111924435Y-96321836D01*
X111816854Y-96149236D01*
X111676733Y-96001830D01*
X111509805Y-95885644D01*
X111322907Y-95805440D01*
X111123689Y-95764500D01*
X110772000Y-95764500D01*
X110772000Y-96464500D01*
X110272000Y-96464500D01*
X110272000Y-95764500D01*
X109974430Y-95764500D01*
X109968164Y-95764817D01*
X109819660Y-95779919D01*
X109625610Y-95840803D01*
X109447785Y-95939503D01*
X109293468Y-96071979D01*
X109168978Y-96232807D01*
X109079410Y-96415405D01*
X109053753Y-96514499D01*
X109053753Y-96514500D01*
X109955889Y-96514500D01*
X109916390Y-96538957D01*
X109848799Y-96628462D01*
X109818105Y-96736340D01*
X109828454Y-96848021D01*
X109878448Y-96948422D01*
X109950931Y-97014500D01*
X109048634Y-97014500D01*
X107823978Y-97014500D01*
X107823978Y-93472000D01*
X108862569Y-93472000D01*
X108882191Y-93608480D01*
X108939470Y-93733902D01*
X108939471Y-93733903D01*
X109029765Y-93838109D01*
X109145760Y-93912654D01*
X109278058Y-93951500D01*
X109415942Y-93951500D01*
X109548240Y-93912654D01*
X109664235Y-93838109D01*
X109754529Y-93733903D01*
X109811808Y-93608480D01*
X109830554Y-93478099D01*
X110444814Y-93478099D01*
X110463872Y-93622854D01*
X110519743Y-93757740D01*
X110519744Y-93757742D01*
X110519745Y-93757743D01*
X110608626Y-93873574D01*
X110724457Y-93962455D01*
X110859346Y-94018328D01*
X111004100Y-94037385D01*
X111148854Y-94018328D01*
X111283743Y-93962455D01*
X111399574Y-93873574D01*
X111488455Y-93757743D01*
X111544328Y-93622854D01*
X111563385Y-93478100D01*
X111562582Y-93471999D01*
X111962714Y-93471999D01*
X111981772Y-93616754D01*
X112037643Y-93751640D01*
X112037644Y-93751642D01*
X112037645Y-93751643D01*
X112126526Y-93867474D01*
X112242357Y-93956355D01*
X112242358Y-93956355D01*
X112242359Y-93956356D01*
X112257086Y-93962456D01*
X112377246Y-94012228D01*
X112488318Y-94026850D01*
X112521998Y-94031285D01*
X112521999Y-94031284D01*
X112522000Y-94031285D01*
X112536734Y-94029345D01*
X112605769Y-94040110D01*
X112658025Y-94086490D01*
X112676911Y-94153758D01*
X112656431Y-94220559D01*
X112628407Y-94250659D01*
X112577626Y-94289624D01*
X112488745Y-94405457D01*
X112432872Y-94540346D01*
X112413814Y-94685099D01*
X112432872Y-94829854D01*
X112488743Y-94964740D01*
X112488744Y-94964742D01*
X112488745Y-94964743D01*
X112577626Y-95080574D01*
X112693457Y-95169455D01*
X112828346Y-95225328D01*
X112954042Y-95241875D01*
X112973099Y-95244385D01*
X112973099Y-95244384D01*
X112973100Y-95244385D01*
X113117854Y-95225328D01*
X113252743Y-95169455D01*
X113368574Y-95080574D01*
X113457455Y-94964743D01*
X113513328Y-94829854D01*
X113532385Y-94685100D01*
X113513328Y-94540346D01*
X113457455Y-94405458D01*
X113368574Y-94289626D01*
X113252743Y-94200745D01*
X113252742Y-94200744D01*
X113252740Y-94200743D01*
X113117854Y-94144872D01*
X112973100Y-94125814D01*
X112958361Y-94127755D01*
X112889326Y-94116987D01*
X112837071Y-94070606D01*
X112818188Y-94003336D01*
X112838670Y-93936536D01*
X112866690Y-93906442D01*
X112917474Y-93867474D01*
X113006355Y-93751643D01*
X113062228Y-93616754D01*
X113081285Y-93472000D01*
X113062228Y-93327246D01*
X113016976Y-93218000D01*
X113942569Y-93218000D01*
X113962191Y-93354480D01*
X114019470Y-93479902D01*
X114019471Y-93479903D01*
X114109765Y-93584109D01*
X114225760Y-93658654D01*
X114358058Y-93697500D01*
X114495942Y-93697500D01*
X114628240Y-93658654D01*
X114744235Y-93584109D01*
X114834529Y-93479903D01*
X114891808Y-93354480D01*
X114911431Y-93218000D01*
X114891808Y-93081520D01*
X114889527Y-93076526D01*
X114834529Y-92956097D01*
X114818737Y-92937872D01*
X114744235Y-92851891D01*
X114744234Y-92851890D01*
X114691957Y-92818294D01*
X114628240Y-92777346D01*
X114495942Y-92738500D01*
X114358058Y-92738500D01*
X114225760Y-92777346D01*
X114109765Y-92851890D01*
X114019470Y-92956097D01*
X113962191Y-93081519D01*
X113942569Y-93218000D01*
X113016976Y-93218000D01*
X113006355Y-93192358D01*
X112940006Y-93105890D01*
X112917475Y-93076527D01*
X112917474Y-93076526D01*
X112801643Y-92987645D01*
X112801642Y-92987644D01*
X112801640Y-92987643D01*
X112666754Y-92931772D01*
X112521999Y-92912714D01*
X112377246Y-92931772D01*
X112242357Y-92987645D01*
X112126525Y-93076525D01*
X112037645Y-93192357D01*
X111981772Y-93327246D01*
X111962714Y-93471999D01*
X111562582Y-93471999D01*
X111544328Y-93333346D01*
X111488455Y-93198458D01*
X111399574Y-93082626D01*
X111283743Y-92993745D01*
X111283742Y-92993744D01*
X111283740Y-92993743D01*
X111148854Y-92937872D01*
X111004099Y-92918814D01*
X110859346Y-92937872D01*
X110724457Y-92993745D01*
X110608625Y-93082625D01*
X110519745Y-93198457D01*
X110463872Y-93333346D01*
X110444814Y-93478099D01*
X109830554Y-93478099D01*
X109831431Y-93472000D01*
X109811808Y-93335520D01*
X109810815Y-93333346D01*
X109754529Y-93210097D01*
X109664234Y-93105890D01*
X109573790Y-93047766D01*
X109548240Y-93031346D01*
X109415942Y-92992500D01*
X109278058Y-92992500D01*
X109145760Y-93031346D01*
X109029765Y-93105890D01*
X108939470Y-93210097D01*
X108882191Y-93335519D01*
X108862569Y-93472000D01*
X107823978Y-93472000D01*
X107823978Y-92709999D01*
X136675569Y-92709999D01*
X136695191Y-92846480D01*
X136752470Y-92971902D01*
X136752471Y-92971903D01*
X136842765Y-93076109D01*
X136958760Y-93150654D01*
X137091058Y-93189500D01*
X137228942Y-93189500D01*
X137361240Y-93150654D01*
X137477235Y-93076109D01*
X137567529Y-92971903D01*
X137567530Y-92971900D01*
X137575497Y-92962706D01*
X137634274Y-92924930D01*
X137704144Y-92924929D01*
X137762923Y-92962703D01*
X137762924Y-92962705D01*
X137836763Y-93047921D01*
X137836765Y-93047922D01*
X137836766Y-93047923D01*
X137952761Y-93122468D01*
X138085059Y-93161314D01*
X138222943Y-93161314D01*
X138355241Y-93122468D01*
X138471236Y-93047923D01*
X138471238Y-93047919D01*
X138471478Y-93047766D01*
X138538518Y-93028081D01*
X138605557Y-93047765D01*
X138632231Y-93070878D01*
X138636764Y-93076109D01*
X138752759Y-93150654D01*
X138885057Y-93189500D01*
X139022941Y-93189500D01*
X139155239Y-93150654D01*
X139271234Y-93076109D01*
X139361528Y-92971903D01*
X139418807Y-92846480D01*
X139438430Y-92710000D01*
X139418807Y-92573520D01*
X139388694Y-92507583D01*
X139361528Y-92448097D01*
X139271233Y-92343890D01*
X139227374Y-92315704D01*
X139155239Y-92269346D01*
X139022941Y-92230500D01*
X138885057Y-92230500D01*
X138752757Y-92269346D01*
X138636518Y-92344047D01*
X138569478Y-92363731D01*
X138502439Y-92344046D01*
X138475766Y-92320933D01*
X138471235Y-92315704D01*
X138415637Y-92279974D01*
X138355241Y-92241160D01*
X138310214Y-92227939D01*
X156946654Y-92227939D01*
X156965712Y-92372694D01*
X157021583Y-92507580D01*
X157021584Y-92507582D01*
X157021585Y-92507583D01*
X157110466Y-92623414D01*
X157226297Y-92712295D01*
X157361186Y-92768168D01*
X157505940Y-92787225D01*
X157650694Y-92768168D01*
X157785583Y-92712295D01*
X157901414Y-92623414D01*
X157990295Y-92507583D01*
X158046168Y-92372694D01*
X158065225Y-92227940D01*
X158046168Y-92083186D01*
X157990295Y-91948298D01*
X157901414Y-91832466D01*
X157785583Y-91743585D01*
X157785582Y-91743584D01*
X157785580Y-91743583D01*
X157650694Y-91687712D01*
X157505939Y-91668654D01*
X157361186Y-91687712D01*
X157226297Y-91743585D01*
X157110465Y-91832465D01*
X157021585Y-91948297D01*
X156965712Y-92083186D01*
X156946654Y-92227939D01*
X138310214Y-92227939D01*
X138222943Y-92202314D01*
X138085059Y-92202314D01*
X137952761Y-92241160D01*
X137836763Y-92315706D01*
X137738502Y-92429108D01*
X137679725Y-92466883D01*
X137609855Y-92466883D01*
X137551077Y-92429109D01*
X137551076Y-92429108D01*
X137477237Y-92343892D01*
X137433375Y-92315704D01*
X137361240Y-92269346D01*
X137228942Y-92230500D01*
X137091058Y-92230500D01*
X136958760Y-92269346D01*
X136842765Y-92343890D01*
X136752470Y-92448097D01*
X136695191Y-92573519D01*
X136675569Y-92709999D01*
X107823978Y-92709999D01*
X107823978Y-91884499D01*
X111545661Y-91884499D01*
X111564719Y-92029254D01*
X111620590Y-92164140D01*
X111620591Y-92164142D01*
X111620592Y-92164143D01*
X111709473Y-92279974D01*
X111825304Y-92368855D01*
X111825305Y-92368855D01*
X111825306Y-92368856D01*
X111831535Y-92371436D01*
X111960193Y-92424728D01*
X112104947Y-92443785D01*
X112249701Y-92424728D01*
X112384590Y-92368855D01*
X112500421Y-92279974D01*
X112589302Y-92164143D01*
X112645175Y-92029254D01*
X112664232Y-91884500D01*
X112664232Y-91884499D01*
X113042214Y-91884499D01*
X113061272Y-92029254D01*
X113117143Y-92164140D01*
X113117144Y-92164142D01*
X113117145Y-92164143D01*
X113206026Y-92279974D01*
X113321857Y-92368855D01*
X113321858Y-92368855D01*
X113321859Y-92368856D01*
X113328088Y-92371436D01*
X113456746Y-92424728D01*
X113601500Y-92443785D01*
X113746254Y-92424728D01*
X113881143Y-92368855D01*
X113996974Y-92279974D01*
X114078301Y-92173986D01*
X114134728Y-92132785D01*
X114204474Y-92128630D01*
X114211611Y-92130497D01*
X114225757Y-92134650D01*
X114225761Y-92134653D01*
X114358059Y-92173499D01*
X114358060Y-92173499D01*
X114495943Y-92173499D01*
X114526734Y-92164458D01*
X134270634Y-92164458D01*
X134290256Y-92300938D01*
X134347535Y-92426360D01*
X134347536Y-92426361D01*
X134437830Y-92530567D01*
X134553825Y-92605112D01*
X134686123Y-92643958D01*
X134824007Y-92643958D01*
X134956305Y-92605112D01*
X135072300Y-92530567D01*
X135162594Y-92426361D01*
X135162594Y-92426360D01*
X135174268Y-92412888D01*
X135176802Y-92415084D01*
X135203395Y-92384390D01*
X135270433Y-92364700D01*
X135305378Y-92369723D01*
X135311209Y-92371435D01*
X135311212Y-92371437D01*
X135443510Y-92410283D01*
X135443511Y-92410283D01*
X135581394Y-92410283D01*
X135713692Y-92371437D01*
X135829687Y-92296892D01*
X135919981Y-92192686D01*
X135977260Y-92067263D01*
X135996883Y-91930783D01*
X135977260Y-91794303D01*
X135970335Y-91779140D01*
X135919981Y-91668880D01*
X135829686Y-91564673D01*
X135775280Y-91529709D01*
X135728272Y-91499499D01*
X150316714Y-91499499D01*
X150335772Y-91644254D01*
X150391643Y-91779140D01*
X150391644Y-91779142D01*
X150391645Y-91779143D01*
X150480526Y-91894974D01*
X150596357Y-91983855D01*
X150731246Y-92039728D01*
X150876000Y-92058785D01*
X151020754Y-92039728D01*
X151155643Y-91983855D01*
X151271474Y-91894974D01*
X151360355Y-91779143D01*
X151416228Y-91644254D01*
X151435285Y-91499500D01*
X151416516Y-91356934D01*
X165996668Y-91356934D01*
X166018000Y-91477911D01*
X166027135Y-91529711D01*
X166059550Y-91604858D01*
X166096623Y-91690804D01*
X166201390Y-91831530D01*
X166335783Y-91944300D01*
X166335784Y-91944300D01*
X166335786Y-91944302D01*
X166492567Y-92023040D01*
X166492568Y-92023040D01*
X166492570Y-92023041D01*
X166663277Y-92063500D01*
X166663279Y-92063500D01*
X166791111Y-92063500D01*
X166794709Y-92063500D01*
X166798292Y-92063081D01*
X166798295Y-92063081D01*
X166848557Y-92057205D01*
X166925255Y-92048241D01*
X167090117Y-91988237D01*
X167236696Y-91891830D01*
X167357092Y-91764218D01*
X167444812Y-91612281D01*
X167495130Y-91444210D01*
X167505331Y-91269065D01*
X167474865Y-91096289D01*
X167405377Y-90935196D01*
X167300610Y-90794470D01*
X167274865Y-90772867D01*
X167166216Y-90681699D01*
X167009429Y-90602958D01*
X166838723Y-90562500D01*
X166838721Y-90562500D01*
X166707291Y-90562500D01*
X166703725Y-90562916D01*
X166703704Y-90562918D01*
X166576746Y-90577758D01*
X166411883Y-90637762D01*
X166265303Y-90734170D01*
X166144908Y-90861780D01*
X166057188Y-91013718D01*
X166045575Y-91052508D01*
X166006870Y-91181790D01*
X166006130Y-91194501D01*
X165996668Y-91356934D01*
X151416516Y-91356934D01*
X151416228Y-91354746D01*
X151360355Y-91219858D01*
X151271474Y-91104026D01*
X151155643Y-91015145D01*
X151155642Y-91015144D01*
X151155640Y-91015143D01*
X151020754Y-90959272D01*
X150875999Y-90940214D01*
X150731246Y-90959272D01*
X150596357Y-91015145D01*
X150480525Y-91104025D01*
X150391645Y-91219857D01*
X150335772Y-91354746D01*
X150316714Y-91499499D01*
X135728272Y-91499499D01*
X135713692Y-91490129D01*
X135581394Y-91451283D01*
X135443510Y-91451283D01*
X135311212Y-91490129D01*
X135195217Y-91564673D01*
X135093249Y-91682353D01*
X135090714Y-91680156D01*
X135064098Y-91710865D01*
X134997055Y-91730540D01*
X134962138Y-91725517D01*
X134956305Y-91723804D01*
X134824007Y-91684958D01*
X134686123Y-91684958D01*
X134553825Y-91723804D01*
X134437830Y-91798348D01*
X134347535Y-91902555D01*
X134290256Y-92027977D01*
X134270634Y-92164458D01*
X114526734Y-92164458D01*
X114628241Y-92134653D01*
X114744236Y-92060108D01*
X114834530Y-91955902D01*
X114891809Y-91830479D01*
X114911432Y-91693999D01*
X114891809Y-91557519D01*
X114879109Y-91529711D01*
X114834530Y-91432096D01*
X114769402Y-91356934D01*
X114744236Y-91327890D01*
X114744235Y-91327889D01*
X114682298Y-91288085D01*
X114628241Y-91253345D01*
X114495943Y-91214499D01*
X114358059Y-91214499D01*
X114225761Y-91253345D01*
X114109763Y-91327891D01*
X114057367Y-91388361D01*
X113998589Y-91426136D01*
X113928720Y-91426136D01*
X113888168Y-91405535D01*
X113881142Y-91400144D01*
X113746254Y-91344272D01*
X113601499Y-91325214D01*
X113456746Y-91344272D01*
X113321857Y-91400145D01*
X113206025Y-91489025D01*
X113117145Y-91604857D01*
X113061272Y-91739746D01*
X113042214Y-91884499D01*
X112664232Y-91884499D01*
X112645175Y-91739746D01*
X112589302Y-91604858D01*
X112508457Y-91499499D01*
X112500422Y-91489027D01*
X112500421Y-91489026D01*
X112384590Y-91400145D01*
X112384589Y-91400144D01*
X112384587Y-91400143D01*
X112249701Y-91344272D01*
X112104946Y-91325214D01*
X111960193Y-91344272D01*
X111825304Y-91400145D01*
X111709472Y-91489025D01*
X111620592Y-91604857D01*
X111564719Y-91739746D01*
X111545661Y-91884499D01*
X107823978Y-91884499D01*
X107823978Y-90789999D01*
X133410714Y-90789999D01*
X133429772Y-90934754D01*
X133485643Y-91069640D01*
X133485644Y-91069642D01*
X133485645Y-91069643D01*
X133574526Y-91185474D01*
X133690357Y-91274355D01*
X133825246Y-91330228D01*
X133970000Y-91349285D01*
X134114754Y-91330228D01*
X134249643Y-91274355D01*
X134365474Y-91185474D01*
X134454355Y-91069643D01*
X134510228Y-90934754D01*
X134529285Y-90790000D01*
X134527029Y-90772867D01*
X137713887Y-90772867D01*
X137732945Y-90917622D01*
X137788816Y-91052508D01*
X137788817Y-91052510D01*
X137788818Y-91052511D01*
X137877699Y-91168342D01*
X137993530Y-91257223D01*
X138128419Y-91313096D01*
X138273173Y-91332153D01*
X138417927Y-91313096D01*
X138552816Y-91257223D01*
X138656940Y-91177324D01*
X138722104Y-91152132D01*
X138790549Y-91166170D01*
X138826135Y-91194499D01*
X138831299Y-91200458D01*
X138831300Y-91200459D01*
X138853147Y-91214499D01*
X138947294Y-91275003D01*
X139079592Y-91313849D01*
X139217476Y-91313849D01*
X139349774Y-91275003D01*
X139465769Y-91200458D01*
X139556063Y-91096252D01*
X139559143Y-91089505D01*
X139604896Y-91036704D01*
X139671935Y-91017018D01*
X139795182Y-91017018D01*
X139927480Y-90978172D01*
X140043475Y-90903627D01*
X140133769Y-90799421D01*
X140166021Y-90728799D01*
X156869914Y-90728799D01*
X156888972Y-90873554D01*
X156944843Y-91008440D01*
X156944844Y-91008442D01*
X156944845Y-91008443D01*
X157033726Y-91124274D01*
X157149557Y-91213155D01*
X157149558Y-91213155D01*
X157149559Y-91213156D01*
X157165737Y-91219857D01*
X157284446Y-91269028D01*
X157410141Y-91285575D01*
X157429199Y-91288085D01*
X157429199Y-91288084D01*
X157429200Y-91288085D01*
X157573954Y-91269028D01*
X157708843Y-91213155D01*
X157824674Y-91124274D01*
X157913555Y-91008443D01*
X157969428Y-90873554D01*
X157988485Y-90728800D01*
X157969428Y-90584046D01*
X157913555Y-90449158D01*
X157894250Y-90423999D01*
X158698714Y-90423999D01*
X158717772Y-90568754D01*
X158773643Y-90703640D01*
X158773644Y-90703642D01*
X158773645Y-90703643D01*
X158862526Y-90819474D01*
X158978357Y-90908355D01*
X159113246Y-90964228D01*
X159258000Y-90983285D01*
X159402754Y-90964228D01*
X159537643Y-90908355D01*
X159653474Y-90819474D01*
X159742355Y-90703643D01*
X159798228Y-90568754D01*
X159817285Y-90424000D01*
X159798228Y-90279246D01*
X159742355Y-90144358D01*
X159653474Y-90028526D01*
X159537643Y-89939645D01*
X159537642Y-89939644D01*
X159537640Y-89939643D01*
X159402754Y-89883772D01*
X159257999Y-89864714D01*
X159113246Y-89883772D01*
X158978357Y-89939645D01*
X158862525Y-90028525D01*
X158773645Y-90144357D01*
X158717772Y-90279246D01*
X158698714Y-90423999D01*
X157894250Y-90423999D01*
X157824674Y-90333326D01*
X157708843Y-90244445D01*
X157708842Y-90244444D01*
X157708840Y-90244443D01*
X157573954Y-90188572D01*
X157429199Y-90169514D01*
X157284446Y-90188572D01*
X157149557Y-90244445D01*
X157033725Y-90333325D01*
X156944845Y-90449157D01*
X156888972Y-90584046D01*
X156869914Y-90728799D01*
X140166021Y-90728799D01*
X140191048Y-90673998D01*
X140210671Y-90537518D01*
X140191048Y-90401038D01*
X140177645Y-90371690D01*
X140133769Y-90275615D01*
X140094862Y-90230714D01*
X140043475Y-90171409D01*
X140043474Y-90171408D01*
X139955991Y-90115187D01*
X139927480Y-90096864D01*
X139795182Y-90058018D01*
X139657298Y-90058018D01*
X139525000Y-90096864D01*
X139409005Y-90171408D01*
X139318710Y-90275616D01*
X139315630Y-90282361D01*
X139269875Y-90335165D01*
X139202836Y-90354849D01*
X139079592Y-90354849D01*
X138947292Y-90393695D01*
X138865019Y-90446568D01*
X138797979Y-90466252D01*
X138730940Y-90446567D01*
X138699606Y-90417739D01*
X138668649Y-90377396D01*
X138668647Y-90377395D01*
X138668647Y-90377394D01*
X138552816Y-90288513D01*
X138552815Y-90288512D01*
X138552813Y-90288511D01*
X138417927Y-90232640D01*
X138273172Y-90213582D01*
X138128419Y-90232640D01*
X137993530Y-90288513D01*
X137877698Y-90377393D01*
X137788818Y-90493225D01*
X137732945Y-90628114D01*
X137713887Y-90772867D01*
X134527029Y-90772867D01*
X134510228Y-90645246D01*
X134454355Y-90510358D01*
X134405406Y-90446567D01*
X134365475Y-90394527D01*
X134365474Y-90394526D01*
X134249643Y-90305645D01*
X134249642Y-90305644D01*
X134249640Y-90305643D01*
X134114754Y-90249772D01*
X133969999Y-90230714D01*
X133825246Y-90249772D01*
X133690357Y-90305645D01*
X133574525Y-90394525D01*
X133485645Y-90510357D01*
X133429772Y-90645246D01*
X133410714Y-90789999D01*
X107823978Y-90789999D01*
X107823978Y-90144059D01*
X112623654Y-90144059D01*
X112642712Y-90288814D01*
X112698583Y-90423700D01*
X112698584Y-90423702D01*
X112698585Y-90423703D01*
X112787466Y-90539534D01*
X112903297Y-90628415D01*
X112903298Y-90628415D01*
X112903299Y-90628416D01*
X112925865Y-90637763D01*
X113038186Y-90684288D01*
X113163881Y-90700835D01*
X113182939Y-90703345D01*
X113182939Y-90703344D01*
X113182940Y-90703345D01*
X113327694Y-90684288D01*
X113462583Y-90628415D01*
X113578414Y-90539534D01*
X113667295Y-90423703D01*
X113723168Y-90288814D01*
X113740743Y-90155309D01*
X113769009Y-90091416D01*
X113827333Y-90052944D01*
X113897198Y-90052112D01*
X113911135Y-90056936D01*
X113911766Y-90057197D01*
X113911767Y-90057198D01*
X114051764Y-90115187D01*
X114164280Y-90130000D01*
X114168333Y-90130000D01*
X114235667Y-90130000D01*
X114239720Y-90130000D01*
X114352236Y-90115187D01*
X114492233Y-90057198D01*
X114510737Y-90042999D01*
X115772714Y-90042999D01*
X115791772Y-90187754D01*
X115847643Y-90322640D01*
X115847644Y-90322642D01*
X115847645Y-90322643D01*
X115936526Y-90438474D01*
X116052357Y-90527355D01*
X116187246Y-90583228D01*
X116332000Y-90602285D01*
X116476754Y-90583228D01*
X116611643Y-90527355D01*
X116727474Y-90438474D01*
X116816355Y-90322643D01*
X116872228Y-90187754D01*
X116891285Y-90043000D01*
X116891285Y-90042999D01*
X143625812Y-90042999D01*
X143644870Y-90187754D01*
X143700741Y-90322640D01*
X143700742Y-90322642D01*
X143700743Y-90322643D01*
X143789624Y-90438474D01*
X143905455Y-90527355D01*
X144040344Y-90583228D01*
X144166039Y-90599775D01*
X144185097Y-90602285D01*
X144185097Y-90602284D01*
X144185098Y-90602285D01*
X144329852Y-90583228D01*
X144464741Y-90527355D01*
X144580572Y-90438474D01*
X144669453Y-90322643D01*
X144725326Y-90187754D01*
X144744383Y-90043000D01*
X144742477Y-90028526D01*
X144739739Y-90007727D01*
X144725326Y-89898246D01*
X144669453Y-89763358D01*
X144617860Y-89696121D01*
X144580573Y-89647527D01*
X144580572Y-89647526D01*
X144464741Y-89558645D01*
X144464740Y-89558644D01*
X144464738Y-89558643D01*
X144329852Y-89502772D01*
X144185097Y-89483714D01*
X144040344Y-89502772D01*
X143905455Y-89558645D01*
X143789623Y-89647525D01*
X143700743Y-89763357D01*
X143644870Y-89898246D01*
X143625812Y-90042999D01*
X116891285Y-90042999D01*
X116889379Y-90028526D01*
X116886641Y-90007727D01*
X116872228Y-89898246D01*
X116816355Y-89763358D01*
X116764762Y-89696121D01*
X116727475Y-89647527D01*
X116727474Y-89647526D01*
X116611643Y-89558645D01*
X116611642Y-89558644D01*
X116611640Y-89558643D01*
X116476754Y-89502772D01*
X116331999Y-89483714D01*
X116187246Y-89502772D01*
X116052357Y-89558645D01*
X115936525Y-89647525D01*
X115847645Y-89763357D01*
X115791772Y-89898246D01*
X115772714Y-90042999D01*
X114510737Y-90042999D01*
X114612451Y-89964951D01*
X114704698Y-89844733D01*
X114762687Y-89704736D01*
X114782466Y-89554500D01*
X114772770Y-89480849D01*
X122070569Y-89480849D01*
X122090191Y-89617329D01*
X122147470Y-89742751D01*
X122147471Y-89742752D01*
X122237765Y-89846958D01*
X122353760Y-89921503D01*
X122486058Y-89960349D01*
X122623942Y-89960349D01*
X122756240Y-89921503D01*
X122872235Y-89846958D01*
X122962529Y-89742752D01*
X123019808Y-89617329D01*
X123022178Y-89600843D01*
X123051201Y-89537288D01*
X123109978Y-89499512D01*
X123179848Y-89499510D01*
X123238627Y-89537283D01*
X123257710Y-89566976D01*
X123280706Y-89617329D01*
X123316690Y-89696122D01*
X123406984Y-89800328D01*
X123522979Y-89874873D01*
X123655277Y-89913719D01*
X123793161Y-89913719D01*
X123925459Y-89874873D01*
X124041454Y-89800328D01*
X124131748Y-89696122D01*
X124189027Y-89570699D01*
X124208650Y-89434219D01*
X124189027Y-89297739D01*
X124173740Y-89264266D01*
X124131748Y-89172316D01*
X124041989Y-89068728D01*
X124041454Y-89068110D01*
X124041453Y-89068109D01*
X123982519Y-89030235D01*
X123925459Y-88993565D01*
X123793161Y-88954719D01*
X123655277Y-88954719D01*
X123522979Y-88993565D01*
X123406984Y-89068109D01*
X123316689Y-89172316D01*
X123259410Y-89297738D01*
X123257040Y-89314227D01*
X123228014Y-89377782D01*
X123169236Y-89415556D01*
X123099366Y-89415556D01*
X123040588Y-89377781D01*
X123021508Y-89348091D01*
X122962529Y-89218946D01*
X122935591Y-89187858D01*
X122872235Y-89114740D01*
X122872234Y-89114739D01*
X122823716Y-89083559D01*
X122756240Y-89040195D01*
X122623942Y-89001349D01*
X122486058Y-89001349D01*
X122353760Y-89040195D01*
X122237765Y-89114739D01*
X122147470Y-89218946D01*
X122090191Y-89344368D01*
X122070569Y-89480849D01*
X114772770Y-89480849D01*
X114762687Y-89404264D01*
X114728177Y-89320952D01*
X114720709Y-89251484D01*
X114751984Y-89189004D01*
X114812073Y-89153352D01*
X114842739Y-89149500D01*
X115274311Y-89149500D01*
X115280395Y-89149201D01*
X115427932Y-89134670D01*
X115621151Y-89076057D01*
X115799215Y-88980879D01*
X115955292Y-88852792D01*
X116020775Y-88772999D01*
X128218714Y-88772999D01*
X128237772Y-88917754D01*
X128293643Y-89052640D01*
X128293644Y-89052642D01*
X128293645Y-89052643D01*
X128382526Y-89168474D01*
X128498357Y-89257355D01*
X128498358Y-89257355D01*
X128498359Y-89257356D01*
X128515044Y-89264267D01*
X128633246Y-89313228D01*
X128758942Y-89329775D01*
X128777999Y-89332285D01*
X128777999Y-89332284D01*
X128778000Y-89332285D01*
X128922754Y-89313228D01*
X129057643Y-89257355D01*
X129173474Y-89168474D01*
X129262355Y-89052643D01*
X129318228Y-88917754D01*
X129337285Y-88773000D01*
X129326363Y-88690040D01*
X129337128Y-88621006D01*
X129383508Y-88568750D01*
X129420909Y-88555306D01*
X129485627Y-88528499D01*
X132880714Y-88528499D01*
X132899772Y-88673254D01*
X132955643Y-88808140D01*
X132955644Y-88808142D01*
X132955645Y-88808143D01*
X133044526Y-88923974D01*
X133160357Y-89012855D01*
X133295246Y-89068728D01*
X133440000Y-89087785D01*
X133584754Y-89068728D01*
X133719643Y-89012855D01*
X133835474Y-88923974D01*
X133846197Y-88909999D01*
X139780714Y-88909999D01*
X139799772Y-89054754D01*
X139855643Y-89189640D01*
X139855644Y-89189642D01*
X139855645Y-89189643D01*
X139944526Y-89305474D01*
X140060357Y-89394355D01*
X140195246Y-89450228D01*
X140340000Y-89469285D01*
X140353566Y-89467499D01*
X142121214Y-89467499D01*
X142140272Y-89612254D01*
X142196143Y-89747140D01*
X142196144Y-89747142D01*
X142196145Y-89747143D01*
X142285026Y-89862974D01*
X142400857Y-89951855D01*
X142535746Y-90007728D01*
X142680500Y-90026785D01*
X142825254Y-90007728D01*
X142960143Y-89951855D01*
X143075974Y-89862974D01*
X143164855Y-89747143D01*
X143220728Y-89612254D01*
X143239785Y-89467500D01*
X143220728Y-89322746D01*
X143164855Y-89187858D01*
X143075974Y-89072026D01*
X142960143Y-88983145D01*
X142960142Y-88983144D01*
X142960140Y-88983143D01*
X142825254Y-88927272D01*
X142680499Y-88908214D01*
X142535746Y-88927272D01*
X142400857Y-88983145D01*
X142285025Y-89072025D01*
X142196145Y-89187857D01*
X142140272Y-89322746D01*
X142121214Y-89467499D01*
X140353566Y-89467499D01*
X140484754Y-89450228D01*
X140619643Y-89394355D01*
X140735474Y-89305474D01*
X140824355Y-89189643D01*
X140880228Y-89054754D01*
X140899285Y-88910000D01*
X140880228Y-88765246D01*
X140824355Y-88630358D01*
X140766766Y-88555306D01*
X140735475Y-88514527D01*
X140735474Y-88514526D01*
X140619643Y-88425645D01*
X140619642Y-88425644D01*
X140619640Y-88425643D01*
X140484754Y-88369772D01*
X140339999Y-88350714D01*
X140195246Y-88369772D01*
X140060357Y-88425645D01*
X139944525Y-88514525D01*
X139855645Y-88630357D01*
X139799772Y-88765246D01*
X139780714Y-88909999D01*
X133846197Y-88909999D01*
X133924355Y-88808143D01*
X133980228Y-88673254D01*
X133999285Y-88528500D01*
X133980228Y-88383746D01*
X133924355Y-88248858D01*
X133835474Y-88133026D01*
X133719643Y-88044145D01*
X133719642Y-88044144D01*
X133719640Y-88044143D01*
X133584754Y-87988272D01*
X133439999Y-87969214D01*
X133295246Y-87988272D01*
X133160357Y-88044145D01*
X133044525Y-88133025D01*
X132955645Y-88248857D01*
X132899772Y-88383746D01*
X132880714Y-88528499D01*
X129485627Y-88528499D01*
X129565641Y-88495356D01*
X129565641Y-88495355D01*
X129565643Y-88495355D01*
X129681474Y-88406474D01*
X129770355Y-88290643D01*
X129826228Y-88155754D01*
X129845285Y-88011000D01*
X129826228Y-87866246D01*
X129770355Y-87731358D01*
X129681474Y-87615526D01*
X129570014Y-87529999D01*
X138880714Y-87529999D01*
X138899772Y-87674754D01*
X138955643Y-87809640D01*
X138955644Y-87809642D01*
X138955645Y-87809643D01*
X139044526Y-87925474D01*
X139160357Y-88014355D01*
X139295246Y-88070228D01*
X139420941Y-88086775D01*
X139439999Y-88089285D01*
X139439999Y-88089284D01*
X139440000Y-88089285D01*
X139584754Y-88070228D01*
X139719643Y-88014355D01*
X139835474Y-87925474D01*
X139924355Y-87809643D01*
X139980228Y-87674754D01*
X139999285Y-87530000D01*
X139980228Y-87385246D01*
X139924355Y-87250358D01*
X139835474Y-87134526D01*
X139719643Y-87045645D01*
X139719642Y-87045644D01*
X139719640Y-87045643D01*
X139584754Y-86989772D01*
X139439999Y-86970714D01*
X139295246Y-86989772D01*
X139160357Y-87045645D01*
X139044525Y-87134525D01*
X138955645Y-87250357D01*
X138899772Y-87385246D01*
X138880714Y-87529999D01*
X129570014Y-87529999D01*
X129565643Y-87526645D01*
X129565642Y-87526644D01*
X129565640Y-87526643D01*
X129430754Y-87470772D01*
X129285999Y-87451714D01*
X129141246Y-87470772D01*
X129006357Y-87526645D01*
X128890525Y-87615525D01*
X128801645Y-87731357D01*
X128745772Y-87866246D01*
X128726714Y-88011000D01*
X128737636Y-88093959D01*
X128726870Y-88162995D01*
X128680490Y-88215250D01*
X128643078Y-88228699D01*
X128498357Y-88288645D01*
X128382525Y-88377525D01*
X128293645Y-88493357D01*
X128237772Y-88628246D01*
X128218714Y-88772999D01*
X116020775Y-88772999D01*
X116083379Y-88696715D01*
X116178558Y-88518650D01*
X116222285Y-88374500D01*
X115418111Y-88374500D01*
X115457610Y-88350043D01*
X115525201Y-88260538D01*
X115555895Y-88152660D01*
X115545546Y-88040979D01*
X115495552Y-87940578D01*
X115423069Y-87874500D01*
X116222285Y-87874500D01*
X116178558Y-87730349D01*
X116083379Y-87552284D01*
X115955292Y-87396207D01*
X115799215Y-87268120D01*
X115621151Y-87172942D01*
X115427932Y-87114329D01*
X115280395Y-87099798D01*
X115274311Y-87099500D01*
X114952000Y-87099500D01*
X114951999Y-87824500D01*
X114452000Y-87824500D01*
X114452000Y-87099500D01*
X114129689Y-87099500D01*
X114123604Y-87099798D01*
X113976067Y-87114329D01*
X113782848Y-87172942D01*
X113604784Y-87268120D01*
X113448707Y-87396207D01*
X113320620Y-87552284D01*
X113225441Y-87730349D01*
X113181715Y-87874500D01*
X113985889Y-87874500D01*
X113946390Y-87898957D01*
X113878799Y-87988462D01*
X113848105Y-88096340D01*
X113858454Y-88208021D01*
X113908448Y-88308422D01*
X113980931Y-88374500D01*
X113181715Y-88374500D01*
X113225441Y-88518650D01*
X113320620Y-88696715D01*
X113448707Y-88852792D01*
X113604786Y-88980880D01*
X113697121Y-89030235D01*
X113746966Y-89079197D01*
X113762426Y-89147335D01*
X113738594Y-89213015D01*
X113737045Y-89215078D01*
X113699301Y-89264266D01*
X113641313Y-89404264D01*
X113621272Y-89556482D01*
X113593005Y-89620379D01*
X113534680Y-89658849D01*
X113464816Y-89659680D01*
X113450881Y-89654857D01*
X113327694Y-89603832D01*
X113182939Y-89584774D01*
X113038186Y-89603832D01*
X112903297Y-89659705D01*
X112787465Y-89748585D01*
X112698585Y-89864417D01*
X112642712Y-89999306D01*
X112623654Y-90144059D01*
X107823978Y-90144059D01*
X107823978Y-88374500D01*
X109048634Y-88374500D01*
X109048932Y-88376448D01*
X109119564Y-88567163D01*
X109227145Y-88739763D01*
X109367266Y-88887169D01*
X109534194Y-89003355D01*
X109721092Y-89083559D01*
X109920311Y-89124500D01*
X110272000Y-89124500D01*
X110272000Y-88424500D01*
X110772000Y-88424500D01*
X110772000Y-89124500D01*
X111069570Y-89124500D01*
X111075835Y-89124182D01*
X111224339Y-89109080D01*
X111418389Y-89048196D01*
X111596214Y-88949496D01*
X111750531Y-88817020D01*
X111875021Y-88656192D01*
X111964589Y-88473594D01*
X111990246Y-88374500D01*
X111088111Y-88374500D01*
X111127610Y-88350043D01*
X111195201Y-88260538D01*
X111225895Y-88152660D01*
X111215546Y-88040979D01*
X111165552Y-87940578D01*
X111093069Y-87874500D01*
X111995366Y-87874500D01*
X111995067Y-87872551D01*
X111924435Y-87681836D01*
X111816854Y-87509236D01*
X111676733Y-87361830D01*
X111509805Y-87245644D01*
X111322907Y-87165440D01*
X111123689Y-87124500D01*
X110772000Y-87124500D01*
X110772000Y-87824500D01*
X110272000Y-87824500D01*
X110272000Y-87124500D01*
X109974430Y-87124500D01*
X109968164Y-87124817D01*
X109819660Y-87139919D01*
X109625610Y-87200803D01*
X109447785Y-87299503D01*
X109293468Y-87431979D01*
X109168978Y-87592807D01*
X109079410Y-87775405D01*
X109053753Y-87874499D01*
X109053753Y-87874500D01*
X109955889Y-87874500D01*
X109916390Y-87898957D01*
X109848799Y-87988462D01*
X109818105Y-88096340D01*
X109828454Y-88208021D01*
X109878448Y-88308422D01*
X109950931Y-88374500D01*
X109048634Y-88374500D01*
X107823978Y-88374500D01*
X107823978Y-86613999D01*
X167282569Y-86613999D01*
X167302191Y-86750480D01*
X167359470Y-86875902D01*
X167359471Y-86875903D01*
X167449765Y-86980109D01*
X167565760Y-87054654D01*
X167698058Y-87093500D01*
X167835942Y-87093500D01*
X167968240Y-87054654D01*
X168084235Y-86980109D01*
X168174529Y-86875903D01*
X168231808Y-86750480D01*
X168251431Y-86614000D01*
X168231808Y-86477520D01*
X168174529Y-86352097D01*
X168084235Y-86247891D01*
X168084234Y-86247890D01*
X168024271Y-86209355D01*
X167968240Y-86173346D01*
X167835942Y-86134500D01*
X167698058Y-86134500D01*
X167565760Y-86173346D01*
X167449765Y-86247890D01*
X167359470Y-86352097D01*
X167302191Y-86477519D01*
X167282569Y-86613999D01*
X107823978Y-86613999D01*
X107823978Y-85852000D01*
X111910569Y-85852000D01*
X111930191Y-85988480D01*
X111987470Y-86113902D01*
X111987471Y-86113903D01*
X112077765Y-86218109D01*
X112193760Y-86292654D01*
X112326058Y-86331500D01*
X112463942Y-86331500D01*
X112596240Y-86292654D01*
X112712235Y-86218109D01*
X112802529Y-86113903D01*
X112859808Y-85988480D01*
X112879431Y-85852000D01*
X112861171Y-85724999D01*
X118693714Y-85724999D01*
X118712772Y-85869754D01*
X118768643Y-86004640D01*
X118768644Y-86004642D01*
X118768645Y-86004643D01*
X118857526Y-86120474D01*
X118973357Y-86209355D01*
X119108246Y-86265228D01*
X119233942Y-86281775D01*
X119252999Y-86284285D01*
X119252999Y-86284284D01*
X119253000Y-86284285D01*
X119397754Y-86265228D01*
X119532643Y-86209355D01*
X119648474Y-86120474D01*
X119737355Y-86004643D01*
X119793228Y-85869754D01*
X119812285Y-85725000D01*
X119793228Y-85580246D01*
X119737355Y-85445358D01*
X119648474Y-85329526D01*
X119532643Y-85240645D01*
X119532642Y-85240644D01*
X119532640Y-85240643D01*
X119397754Y-85184772D01*
X119252999Y-85165714D01*
X119108246Y-85184772D01*
X118973357Y-85240645D01*
X118857525Y-85329525D01*
X118768645Y-85445357D01*
X118712772Y-85580246D01*
X118693714Y-85724999D01*
X112861171Y-85724999D01*
X112859808Y-85715520D01*
X112802529Y-85590097D01*
X112712235Y-85485891D01*
X112712234Y-85485890D01*
X112649162Y-85445357D01*
X112596240Y-85411346D01*
X112463942Y-85372500D01*
X112326058Y-85372500D01*
X112193760Y-85411346D01*
X112077765Y-85485890D01*
X111987470Y-85590097D01*
X111930191Y-85715519D01*
X111910569Y-85852000D01*
X107823978Y-85852000D01*
X107823978Y-82743999D01*
X107824076Y-82740521D01*
X108818029Y-82740521D01*
X108837795Y-82991671D01*
X108896604Y-83236632D01*
X108940105Y-83341651D01*
X108993012Y-83469381D01*
X109124642Y-83684181D01*
X109288254Y-83875746D01*
X109479819Y-84039358D01*
X109694619Y-84170988D01*
X109927367Y-84267395D01*
X110172330Y-84326205D01*
X110423478Y-84345971D01*
X110651819Y-84328000D01*
X122705569Y-84328000D01*
X122725191Y-84464480D01*
X122782470Y-84589902D01*
X122782471Y-84589903D01*
X122872765Y-84694109D01*
X122988760Y-84768654D01*
X123121058Y-84807500D01*
X123258942Y-84807500D01*
X123391240Y-84768654D01*
X123507235Y-84694109D01*
X123597529Y-84589903D01*
X123654808Y-84464480D01*
X123656171Y-84454999D01*
X125043714Y-84454999D01*
X125062772Y-84599754D01*
X125118643Y-84734640D01*
X125118644Y-84734642D01*
X125118645Y-84734643D01*
X125207526Y-84850474D01*
X125323357Y-84939355D01*
X125458246Y-84995228D01*
X125583941Y-85011775D01*
X125602999Y-85014285D01*
X125602999Y-85014284D01*
X125603000Y-85014285D01*
X125747754Y-84995228D01*
X125825561Y-84962999D01*
X149681714Y-84962999D01*
X149700772Y-85107754D01*
X149756643Y-85242640D01*
X149756644Y-85242642D01*
X149756645Y-85242643D01*
X149845526Y-85358474D01*
X149961357Y-85447355D01*
X150096246Y-85503228D01*
X150241000Y-85522285D01*
X150385754Y-85503228D01*
X150520643Y-85447355D01*
X150636474Y-85358474D01*
X150725355Y-85242643D01*
X150781228Y-85107754D01*
X150800285Y-84963000D01*
X150781228Y-84818246D01*
X150725355Y-84683358D01*
X150680914Y-84625441D01*
X150636475Y-84567527D01*
X150636474Y-84567526D01*
X150520643Y-84478645D01*
X150520642Y-84478644D01*
X150520640Y-84478643D01*
X150385754Y-84422772D01*
X150240999Y-84403714D01*
X150096246Y-84422772D01*
X149961357Y-84478645D01*
X149845525Y-84567525D01*
X149756645Y-84683357D01*
X149700772Y-84818246D01*
X149681714Y-84962999D01*
X125825561Y-84962999D01*
X125882643Y-84939355D01*
X125998474Y-84850474D01*
X126087355Y-84734643D01*
X126143228Y-84599754D01*
X126162285Y-84455000D01*
X126143228Y-84310246D01*
X126087355Y-84175358D01*
X125998474Y-84059526D01*
X125882643Y-83970645D01*
X125882642Y-83970644D01*
X125882640Y-83970643D01*
X125747754Y-83914772D01*
X125602999Y-83895714D01*
X125458246Y-83914772D01*
X125323357Y-83970645D01*
X125207525Y-84059525D01*
X125118645Y-84175357D01*
X125062772Y-84310246D01*
X125043714Y-84454999D01*
X123656171Y-84454999D01*
X123674431Y-84328000D01*
X123654808Y-84191520D01*
X123645431Y-84170988D01*
X123597529Y-84066097D01*
X123514820Y-83970645D01*
X123507235Y-83961891D01*
X123507234Y-83961890D01*
X123404262Y-83895715D01*
X123391240Y-83887346D01*
X123258942Y-83848500D01*
X123121058Y-83848500D01*
X122988760Y-83887346D01*
X122872765Y-83961890D01*
X122782470Y-84066097D01*
X122725191Y-84191519D01*
X122705569Y-84328000D01*
X110651819Y-84328000D01*
X110674626Y-84326205D01*
X110919589Y-84267395D01*
X111152337Y-84170988D01*
X111367137Y-84039358D01*
X111558702Y-83875746D01*
X111722314Y-83684181D01*
X111848582Y-83478131D01*
X114605578Y-83478131D01*
X114625200Y-83614612D01*
X114682479Y-83740034D01*
X114682480Y-83740035D01*
X114772774Y-83844241D01*
X114888769Y-83918786D01*
X115021067Y-83957632D01*
X115158951Y-83957632D01*
X115291249Y-83918786D01*
X115407244Y-83844241D01*
X115497538Y-83740035D01*
X115554817Y-83614612D01*
X115574440Y-83478132D01*
X115554817Y-83341652D01*
X115523692Y-83273499D01*
X115512275Y-83248500D01*
X117562069Y-83248500D01*
X117581691Y-83384980D01*
X117638970Y-83510402D01*
X117638971Y-83510403D01*
X117729265Y-83614609D01*
X117845260Y-83689154D01*
X117977558Y-83728000D01*
X118115442Y-83728000D01*
X118247740Y-83689154D01*
X118363735Y-83614609D01*
X118454029Y-83510403D01*
X118511308Y-83384980D01*
X118530931Y-83248500D01*
X118512211Y-83118300D01*
X118511308Y-83112019D01*
X118454029Y-82986597D01*
X118393783Y-82917069D01*
X118363735Y-82882391D01*
X118363734Y-82882390D01*
X118304397Y-82844257D01*
X118247740Y-82807846D01*
X118115442Y-82769000D01*
X117977558Y-82769000D01*
X117845260Y-82807846D01*
X117729265Y-82882390D01*
X117638970Y-82986597D01*
X117581691Y-83112019D01*
X117562069Y-83248500D01*
X115512275Y-83248500D01*
X115497538Y-83216229D01*
X115407243Y-83112022D01*
X115350388Y-83075484D01*
X115291249Y-83037478D01*
X115158951Y-82998632D01*
X115021067Y-82998632D01*
X114888769Y-83037478D01*
X114772774Y-83112022D01*
X114682479Y-83216229D01*
X114625200Y-83341651D01*
X114605578Y-83478131D01*
X111848582Y-83478131D01*
X111853944Y-83469381D01*
X111950351Y-83236633D01*
X112009161Y-82991670D01*
X112028927Y-82740522D01*
X112009161Y-82489374D01*
X111992266Y-82419000D01*
X120213364Y-82419000D01*
X120270569Y-82632492D01*
X120370399Y-82846576D01*
X120505893Y-83040081D01*
X120672918Y-83207106D01*
X120866423Y-83342600D01*
X121080509Y-83442430D01*
X121294000Y-83499634D01*
X121294000Y-82604501D01*
X121401685Y-82653680D01*
X121508237Y-82669000D01*
X121579763Y-82669000D01*
X121686315Y-82653680D01*
X121794000Y-82604501D01*
X121794000Y-83499633D01*
X122007490Y-83442430D01*
X122221576Y-83342600D01*
X122415081Y-83207106D01*
X122582106Y-83040081D01*
X122717600Y-82846577D01*
X122743117Y-82791855D01*
X122789289Y-82739415D01*
X122856482Y-82720262D01*
X122923364Y-82740477D01*
X122968699Y-82793642D01*
X122979500Y-82844257D01*
X122979500Y-83044064D01*
X122994266Y-83118301D01*
X123050515Y-83202484D01*
X123098872Y-83234795D01*
X123134699Y-83258734D01*
X123208933Y-83273500D01*
X124959066Y-83273499D01*
X125033301Y-83258734D01*
X125117484Y-83202484D01*
X125173734Y-83118301D01*
X125188500Y-83044067D01*
X125188500Y-82917065D01*
X127419500Y-82917065D01*
X127434266Y-82991301D01*
X127490515Y-83075484D01*
X127554594Y-83118300D01*
X127574699Y-83131734D01*
X127648933Y-83146500D01*
X129399066Y-83146499D01*
X129473301Y-83131734D01*
X129557484Y-83075484D01*
X129613734Y-82991301D01*
X129628500Y-82917067D01*
X129628499Y-82717257D01*
X129648183Y-82650221D01*
X129700987Y-82604466D01*
X129770145Y-82594522D01*
X129833701Y-82623547D01*
X129864880Y-82664854D01*
X129890397Y-82719573D01*
X130025893Y-82913081D01*
X130192918Y-83080106D01*
X130386423Y-83215600D01*
X130600509Y-83315430D01*
X130814000Y-83372634D01*
X130814000Y-82477501D01*
X130921685Y-82526680D01*
X131028237Y-82542000D01*
X131099763Y-82542000D01*
X131206315Y-82526680D01*
X131313998Y-82477501D01*
X131313999Y-83372633D01*
X131527490Y-83315430D01*
X131741576Y-83215600D01*
X131935081Y-83080106D01*
X132102106Y-82913081D01*
X132237600Y-82719576D01*
X132337431Y-82505490D01*
X132344844Y-82477825D01*
X132381208Y-82418164D01*
X132444055Y-82387634D01*
X132513430Y-82395928D01*
X132567309Y-82440413D01*
X132575619Y-82454645D01*
X132660911Y-82625934D01*
X132784268Y-82789286D01*
X132935535Y-82927184D01*
X132935537Y-82927185D01*
X132935538Y-82927186D01*
X133109573Y-83034944D01*
X133300444Y-83108888D01*
X133501653Y-83146500D01*
X133501655Y-83146500D01*
X133706345Y-83146500D01*
X133706347Y-83146500D01*
X133907556Y-83108888D01*
X134098427Y-83034944D01*
X134272462Y-82927186D01*
X134423732Y-82789285D01*
X134547088Y-82625935D01*
X134638328Y-82442701D01*
X134640365Y-82435542D01*
X134694345Y-82245823D01*
X134703182Y-82150454D01*
X134713232Y-82042000D01*
X135034768Y-82042000D01*
X135053654Y-82245823D01*
X135109670Y-82442699D01*
X135200911Y-82625934D01*
X135324268Y-82789286D01*
X135475535Y-82927184D01*
X135475537Y-82927185D01*
X135475538Y-82927186D01*
X135649573Y-83034944D01*
X135840444Y-83108888D01*
X136041653Y-83146500D01*
X136041655Y-83146500D01*
X136246345Y-83146500D01*
X136246347Y-83146500D01*
X136447556Y-83108888D01*
X136638427Y-83034944D01*
X136812462Y-82927186D01*
X136963732Y-82789285D01*
X137087088Y-82625935D01*
X137178328Y-82442701D01*
X137180365Y-82435542D01*
X137234345Y-82245823D01*
X137243182Y-82150454D01*
X137253232Y-82042000D01*
X137574768Y-82042000D01*
X137593654Y-82245823D01*
X137649670Y-82442699D01*
X137740911Y-82625934D01*
X137864268Y-82789286D01*
X138015535Y-82927184D01*
X138015537Y-82927185D01*
X138015538Y-82927186D01*
X138189573Y-83034944D01*
X138380444Y-83108888D01*
X138581653Y-83146500D01*
X138581655Y-83146500D01*
X138786345Y-83146500D01*
X138786347Y-83146500D01*
X138987556Y-83108888D01*
X139178427Y-83034944D01*
X139352462Y-82927186D01*
X139503732Y-82789285D01*
X139627088Y-82625935D01*
X139718328Y-82442701D01*
X139720365Y-82435542D01*
X139774345Y-82245823D01*
X139783182Y-82150454D01*
X139793232Y-82042000D01*
X140114768Y-82042000D01*
X140133654Y-82245823D01*
X140189670Y-82442699D01*
X140280911Y-82625934D01*
X140404268Y-82789286D01*
X140555535Y-82927184D01*
X140555537Y-82927185D01*
X140555538Y-82927186D01*
X140729573Y-83034944D01*
X140920444Y-83108888D01*
X141121653Y-83146500D01*
X141121655Y-83146500D01*
X141326345Y-83146500D01*
X141326347Y-83146500D01*
X141527556Y-83108888D01*
X141718427Y-83034944D01*
X141892462Y-82927186D01*
X142043732Y-82789285D01*
X142167088Y-82625935D01*
X142258328Y-82442701D01*
X142260365Y-82435542D01*
X142314345Y-82245823D01*
X142323182Y-82150454D01*
X142333232Y-82042000D01*
X142654768Y-82042000D01*
X142673654Y-82245823D01*
X142729670Y-82442699D01*
X142820911Y-82625934D01*
X142944268Y-82789286D01*
X143095535Y-82927184D01*
X143095537Y-82927185D01*
X143095538Y-82927186D01*
X143269573Y-83034944D01*
X143460444Y-83108888D01*
X143661653Y-83146500D01*
X143661655Y-83146500D01*
X143866345Y-83146500D01*
X143866347Y-83146500D01*
X144067556Y-83108888D01*
X144258427Y-83034944D01*
X144432462Y-82927186D01*
X144583732Y-82789285D01*
X144707088Y-82625935D01*
X144798328Y-82442701D01*
X144800365Y-82435542D01*
X144854345Y-82245823D01*
X144863182Y-82150454D01*
X144873232Y-82042000D01*
X145194768Y-82042000D01*
X145213654Y-82245823D01*
X145269670Y-82442699D01*
X145360911Y-82625934D01*
X145484268Y-82789286D01*
X145635535Y-82927184D01*
X145635537Y-82927185D01*
X145635538Y-82927186D01*
X145809573Y-83034944D01*
X146000444Y-83108888D01*
X146201653Y-83146500D01*
X146201655Y-83146500D01*
X146406345Y-83146500D01*
X146406347Y-83146500D01*
X146607556Y-83108888D01*
X146798427Y-83034944D01*
X146972462Y-82927186D01*
X146983564Y-82917065D01*
X147866500Y-82917065D01*
X147881266Y-82991301D01*
X147937515Y-83075484D01*
X148001594Y-83118300D01*
X148021699Y-83131734D01*
X148095933Y-83146500D01*
X149846066Y-83146499D01*
X149920301Y-83131734D01*
X150004484Y-83075484D01*
X150060734Y-82991301D01*
X150075500Y-82917067D01*
X150075499Y-82042000D01*
X150401768Y-82042000D01*
X150420654Y-82245823D01*
X150476670Y-82442699D01*
X150567911Y-82625934D01*
X150691268Y-82789286D01*
X150842535Y-82927184D01*
X150842537Y-82927185D01*
X150842538Y-82927186D01*
X151016573Y-83034944D01*
X151207444Y-83108888D01*
X151408653Y-83146500D01*
X151408655Y-83146500D01*
X151613345Y-83146500D01*
X151613347Y-83146500D01*
X151814556Y-83108888D01*
X152005427Y-83034944D01*
X152179462Y-82927186D01*
X152330732Y-82789285D01*
X152454088Y-82625935D01*
X152545328Y-82442701D01*
X152547365Y-82435542D01*
X152601345Y-82245823D01*
X152610182Y-82150454D01*
X152620232Y-82042000D01*
X152941768Y-82042000D01*
X152960654Y-82245823D01*
X153016670Y-82442699D01*
X153107911Y-82625934D01*
X153231268Y-82789286D01*
X153382535Y-82927184D01*
X153382537Y-82927185D01*
X153382538Y-82927186D01*
X153556573Y-83034944D01*
X153747444Y-83108888D01*
X153948653Y-83146500D01*
X153948655Y-83146500D01*
X154153345Y-83146500D01*
X154153347Y-83146500D01*
X154354556Y-83108888D01*
X154545427Y-83034944D01*
X154719462Y-82927186D01*
X154870732Y-82789285D01*
X154994088Y-82625935D01*
X155085328Y-82442701D01*
X155087365Y-82435542D01*
X155141345Y-82245823D01*
X155150182Y-82150454D01*
X155160232Y-82042000D01*
X155481768Y-82042000D01*
X155500654Y-82245823D01*
X155556670Y-82442699D01*
X155647911Y-82625934D01*
X155771268Y-82789286D01*
X155922535Y-82927184D01*
X155922537Y-82927185D01*
X155922538Y-82927186D01*
X156096573Y-83034944D01*
X156287444Y-83108888D01*
X156488653Y-83146500D01*
X156488655Y-83146500D01*
X156693345Y-83146500D01*
X156693347Y-83146500D01*
X156894556Y-83108888D01*
X157085427Y-83034944D01*
X157259462Y-82927186D01*
X157410732Y-82789285D01*
X157534088Y-82625935D01*
X157625328Y-82442701D01*
X157627365Y-82435542D01*
X157681345Y-82245823D01*
X157690182Y-82150454D01*
X157700232Y-82042000D01*
X158021768Y-82042000D01*
X158040654Y-82245823D01*
X158096670Y-82442699D01*
X158187911Y-82625934D01*
X158311268Y-82789286D01*
X158462535Y-82927184D01*
X158462537Y-82927185D01*
X158462538Y-82927186D01*
X158636573Y-83034944D01*
X158827444Y-83108888D01*
X159028653Y-83146500D01*
X159028655Y-83146500D01*
X159233345Y-83146500D01*
X159233347Y-83146500D01*
X159434556Y-83108888D01*
X159625427Y-83034944D01*
X159799462Y-82927186D01*
X159950732Y-82789285D01*
X160074088Y-82625935D01*
X160165328Y-82442701D01*
X160167365Y-82435542D01*
X160221345Y-82245823D01*
X160230182Y-82150454D01*
X160240232Y-82042000D01*
X160561768Y-82042000D01*
X160580654Y-82245823D01*
X160636670Y-82442699D01*
X160727911Y-82625934D01*
X160851268Y-82789286D01*
X161002535Y-82927184D01*
X161002537Y-82927185D01*
X161002538Y-82927186D01*
X161176573Y-83034944D01*
X161367444Y-83108888D01*
X161568653Y-83146500D01*
X161568655Y-83146500D01*
X161773345Y-83146500D01*
X161773347Y-83146500D01*
X161974556Y-83108888D01*
X162165427Y-83034944D01*
X162339462Y-82927186D01*
X162490732Y-82789285D01*
X162614088Y-82625935D01*
X162705328Y-82442701D01*
X162707365Y-82435542D01*
X162761345Y-82245823D01*
X162770182Y-82150454D01*
X162780232Y-82042000D01*
X163101768Y-82042000D01*
X163120654Y-82245823D01*
X163176670Y-82442699D01*
X163267911Y-82625934D01*
X163391268Y-82789286D01*
X163542535Y-82927184D01*
X163542537Y-82927185D01*
X163542538Y-82927186D01*
X163716573Y-83034944D01*
X163907444Y-83108888D01*
X164108653Y-83146500D01*
X164108655Y-83146500D01*
X164313345Y-83146500D01*
X164313347Y-83146500D01*
X164514556Y-83108888D01*
X164705427Y-83034944D01*
X164879462Y-82927186D01*
X165030732Y-82789285D01*
X165154088Y-82625935D01*
X165245328Y-82442701D01*
X165247365Y-82435542D01*
X165301345Y-82245823D01*
X165310182Y-82150454D01*
X165320232Y-82042000D01*
X165641768Y-82042000D01*
X165660654Y-82245823D01*
X165716670Y-82442699D01*
X165807911Y-82625934D01*
X165931268Y-82789286D01*
X166082535Y-82927184D01*
X166082537Y-82927185D01*
X166082538Y-82927186D01*
X166256573Y-83034944D01*
X166447444Y-83108888D01*
X166648653Y-83146500D01*
X166648655Y-83146500D01*
X166853345Y-83146500D01*
X166853347Y-83146500D01*
X167054556Y-83108888D01*
X167245427Y-83034944D01*
X167419462Y-82927186D01*
X167570732Y-82789285D01*
X167607557Y-82740521D01*
X169518029Y-82740521D01*
X169537795Y-82991671D01*
X169596604Y-83236632D01*
X169640105Y-83341651D01*
X169693012Y-83469381D01*
X169824642Y-83684181D01*
X169988254Y-83875746D01*
X170179819Y-84039358D01*
X170394619Y-84170988D01*
X170627367Y-84267395D01*
X170872330Y-84326205D01*
X171123478Y-84345971D01*
X171374626Y-84326205D01*
X171619589Y-84267395D01*
X171852337Y-84170988D01*
X172067137Y-84039358D01*
X172258702Y-83875746D01*
X172422314Y-83684181D01*
X172553944Y-83469381D01*
X172650351Y-83236633D01*
X172709161Y-82991670D01*
X172728927Y-82740522D01*
X172709161Y-82489374D01*
X172650351Y-82244411D01*
X172553944Y-82011663D01*
X172422314Y-81796863D01*
X172258702Y-81605298D01*
X172067137Y-81441686D01*
X171852337Y-81310056D01*
X171735963Y-81261852D01*
X171619588Y-81213648D01*
X171374627Y-81154839D01*
X171123478Y-81135073D01*
X170872328Y-81154839D01*
X170627367Y-81213648D01*
X170394617Y-81310057D01*
X170179820Y-81441685D01*
X169988254Y-81605298D01*
X169824641Y-81796864D01*
X169693013Y-82011661D01*
X169596604Y-82244411D01*
X169537795Y-82489372D01*
X169518029Y-82740521D01*
X167607557Y-82740521D01*
X167694088Y-82625935D01*
X167785328Y-82442701D01*
X167787365Y-82435542D01*
X167841345Y-82245823D01*
X167850182Y-82150454D01*
X167860232Y-82042000D01*
X167842372Y-81849263D01*
X167841345Y-81838176D01*
X167785329Y-81641300D01*
X167694088Y-81458065D01*
X167570731Y-81294713D01*
X167419464Y-81156815D01*
X167245427Y-81049056D01*
X167140781Y-81008516D01*
X167054556Y-80975112D01*
X166853347Y-80937500D01*
X166648653Y-80937500D01*
X166447443Y-80975112D01*
X166447444Y-80975112D01*
X166256572Y-81049056D01*
X166082535Y-81156815D01*
X165931268Y-81294713D01*
X165807911Y-81458065D01*
X165716670Y-81641300D01*
X165660654Y-81838176D01*
X165641768Y-82042000D01*
X165320232Y-82042000D01*
X165302372Y-81849263D01*
X165301345Y-81838176D01*
X165245329Y-81641300D01*
X165154088Y-81458065D01*
X165030731Y-81294713D01*
X164879464Y-81156815D01*
X164705427Y-81049056D01*
X164600781Y-81008516D01*
X164514556Y-80975112D01*
X164313347Y-80937500D01*
X164108653Y-80937500D01*
X163907444Y-80975112D01*
X163716572Y-81049056D01*
X163542535Y-81156815D01*
X163391268Y-81294713D01*
X163267911Y-81458065D01*
X163176670Y-81641300D01*
X163120654Y-81838176D01*
X163101768Y-82042000D01*
X162780232Y-82042000D01*
X162762372Y-81849263D01*
X162761345Y-81838176D01*
X162705329Y-81641300D01*
X162614088Y-81458065D01*
X162490731Y-81294713D01*
X162339464Y-81156815D01*
X162165427Y-81049056D01*
X162060781Y-81008516D01*
X161974556Y-80975112D01*
X161773347Y-80937500D01*
X161568653Y-80937500D01*
X161367443Y-80975112D01*
X161367444Y-80975112D01*
X161176572Y-81049056D01*
X161002535Y-81156815D01*
X160851268Y-81294713D01*
X160727911Y-81458065D01*
X160636670Y-81641300D01*
X160580654Y-81838176D01*
X160561768Y-82042000D01*
X160240232Y-82042000D01*
X160222372Y-81849263D01*
X160221345Y-81838176D01*
X160165329Y-81641300D01*
X160074088Y-81458065D01*
X159950731Y-81294713D01*
X159799464Y-81156815D01*
X159625427Y-81049056D01*
X159520781Y-81008516D01*
X159434556Y-80975112D01*
X159233347Y-80937500D01*
X159028653Y-80937500D01*
X158827444Y-80975112D01*
X158636572Y-81049056D01*
X158462535Y-81156815D01*
X158311268Y-81294713D01*
X158187911Y-81458065D01*
X158096670Y-81641300D01*
X158040654Y-81838176D01*
X158021768Y-82042000D01*
X157700232Y-82042000D01*
X157682372Y-81849263D01*
X157681345Y-81838176D01*
X157625329Y-81641300D01*
X157534088Y-81458065D01*
X157410731Y-81294713D01*
X157259464Y-81156815D01*
X157085427Y-81049056D01*
X156980781Y-81008516D01*
X156894556Y-80975112D01*
X156693347Y-80937500D01*
X156488653Y-80937500D01*
X156287443Y-80975112D01*
X156287444Y-80975112D01*
X156096572Y-81049056D01*
X155922535Y-81156815D01*
X155771268Y-81294713D01*
X155647911Y-81458065D01*
X155556670Y-81641300D01*
X155500654Y-81838176D01*
X155481768Y-82042000D01*
X155160232Y-82042000D01*
X155142372Y-81849263D01*
X155141345Y-81838176D01*
X155085329Y-81641300D01*
X154994088Y-81458065D01*
X154870731Y-81294713D01*
X154719464Y-81156815D01*
X154545427Y-81049056D01*
X154440781Y-81008516D01*
X154354556Y-80975112D01*
X154153347Y-80937500D01*
X153948653Y-80937500D01*
X153747444Y-80975112D01*
X153556572Y-81049056D01*
X153382535Y-81156815D01*
X153231268Y-81294713D01*
X153107911Y-81458065D01*
X153016670Y-81641300D01*
X152960654Y-81838176D01*
X152941768Y-82042000D01*
X152620232Y-82042000D01*
X152602372Y-81849263D01*
X152601345Y-81838176D01*
X152545329Y-81641300D01*
X152454088Y-81458065D01*
X152330731Y-81294713D01*
X152179464Y-81156815D01*
X152005427Y-81049056D01*
X151900781Y-81008516D01*
X151814556Y-80975112D01*
X151613347Y-80937500D01*
X151408653Y-80937500D01*
X151207443Y-80975112D01*
X151207444Y-80975112D01*
X151016572Y-81049056D01*
X150842535Y-81156815D01*
X150691268Y-81294713D01*
X150567911Y-81458065D01*
X150476670Y-81641300D01*
X150420654Y-81838176D01*
X150401768Y-82042000D01*
X150075499Y-82042000D01*
X150075499Y-81166934D01*
X150060734Y-81092699D01*
X150031572Y-81049056D01*
X150004484Y-81008515D01*
X149920300Y-80952265D01*
X149846069Y-80937500D01*
X148095934Y-80937500D01*
X148021698Y-80952266D01*
X147937515Y-81008515D01*
X147881265Y-81092699D01*
X147866500Y-81166930D01*
X147866500Y-82917065D01*
X146983564Y-82917065D01*
X147123732Y-82789285D01*
X147247088Y-82625935D01*
X147338328Y-82442701D01*
X147340365Y-82435542D01*
X147394345Y-82245823D01*
X147403182Y-82150454D01*
X147413232Y-82042000D01*
X147395372Y-81849263D01*
X147394345Y-81838176D01*
X147338329Y-81641300D01*
X147247088Y-81458065D01*
X147123731Y-81294713D01*
X146972464Y-81156815D01*
X146798427Y-81049056D01*
X146693781Y-81008516D01*
X146607556Y-80975112D01*
X146406347Y-80937500D01*
X146201653Y-80937500D01*
X146000444Y-80975112D01*
X145809572Y-81049056D01*
X145635535Y-81156815D01*
X145484268Y-81294713D01*
X145360911Y-81458065D01*
X145269670Y-81641300D01*
X145213654Y-81838176D01*
X145194768Y-82042000D01*
X144873232Y-82042000D01*
X144855372Y-81849263D01*
X144854345Y-81838176D01*
X144798329Y-81641300D01*
X144707088Y-81458065D01*
X144583731Y-81294713D01*
X144432464Y-81156815D01*
X144258427Y-81049056D01*
X144153781Y-81008516D01*
X144067556Y-80975112D01*
X143866347Y-80937500D01*
X143661653Y-80937500D01*
X143460444Y-80975112D01*
X143269572Y-81049056D01*
X143095535Y-81156815D01*
X142944268Y-81294713D01*
X142820911Y-81458065D01*
X142729670Y-81641300D01*
X142673654Y-81838176D01*
X142654768Y-82042000D01*
X142333232Y-82042000D01*
X142315372Y-81849263D01*
X142314345Y-81838176D01*
X142258329Y-81641300D01*
X142167088Y-81458065D01*
X142043731Y-81294713D01*
X141892464Y-81156815D01*
X141718427Y-81049056D01*
X141613781Y-81008516D01*
X141527556Y-80975112D01*
X141326347Y-80937500D01*
X141121653Y-80937500D01*
X140920443Y-80975112D01*
X140920444Y-80975112D01*
X140729572Y-81049056D01*
X140555535Y-81156815D01*
X140404268Y-81294713D01*
X140280911Y-81458065D01*
X140189670Y-81641300D01*
X140133654Y-81838176D01*
X140114768Y-82042000D01*
X139793232Y-82042000D01*
X139775372Y-81849263D01*
X139774345Y-81838176D01*
X139718329Y-81641300D01*
X139627088Y-81458065D01*
X139503731Y-81294713D01*
X139352464Y-81156815D01*
X139178427Y-81049056D01*
X139073781Y-81008516D01*
X138987556Y-80975112D01*
X138786347Y-80937500D01*
X138581653Y-80937500D01*
X138380444Y-80975112D01*
X138189572Y-81049056D01*
X138015535Y-81156815D01*
X137864268Y-81294713D01*
X137740911Y-81458065D01*
X137649670Y-81641300D01*
X137593654Y-81838176D01*
X137574768Y-82042000D01*
X137253232Y-82042000D01*
X137235372Y-81849263D01*
X137234345Y-81838176D01*
X137178329Y-81641300D01*
X137087088Y-81458065D01*
X136963731Y-81294713D01*
X136812464Y-81156815D01*
X136638427Y-81049056D01*
X136533781Y-81008516D01*
X136447556Y-80975112D01*
X136246347Y-80937500D01*
X136041653Y-80937500D01*
X135840444Y-80975112D01*
X135649572Y-81049056D01*
X135475535Y-81156815D01*
X135324268Y-81294713D01*
X135200911Y-81458065D01*
X135109670Y-81641300D01*
X135053654Y-81838176D01*
X135034768Y-82042000D01*
X134713232Y-82042000D01*
X134695372Y-81849263D01*
X134694345Y-81838176D01*
X134638329Y-81641300D01*
X134547088Y-81458065D01*
X134423731Y-81294713D01*
X134272464Y-81156815D01*
X134098427Y-81049056D01*
X133993781Y-81008516D01*
X133907556Y-80975112D01*
X133706347Y-80937500D01*
X133501653Y-80937500D01*
X133300444Y-80975112D01*
X133109572Y-81049056D01*
X132935535Y-81156815D01*
X132784268Y-81294713D01*
X132660911Y-81458065D01*
X132575619Y-81629354D01*
X132528116Y-81680591D01*
X132460453Y-81698012D01*
X132394113Y-81676086D01*
X132350158Y-81621775D01*
X132344844Y-81606175D01*
X132337430Y-81578508D01*
X132237599Y-81364421D01*
X132102109Y-81170921D01*
X131935081Y-81003893D01*
X131741576Y-80868399D01*
X131527492Y-80768569D01*
X131313999Y-80711364D01*
X131313998Y-81606498D01*
X131206315Y-81557320D01*
X131099763Y-81542000D01*
X131028237Y-81542000D01*
X130921685Y-81557320D01*
X130814000Y-81606498D01*
X130814000Y-80711364D01*
X130813999Y-80711364D01*
X130600507Y-80768569D01*
X130386421Y-80868400D01*
X130192921Y-81003890D01*
X130025890Y-81170921D01*
X129890400Y-81364421D01*
X129864881Y-81419147D01*
X129818708Y-81471586D01*
X129751514Y-81490738D01*
X129684633Y-81470522D01*
X129639299Y-81417356D01*
X129628499Y-81366742D01*
X129628499Y-81166934D01*
X129622162Y-81135073D01*
X129613734Y-81092699D01*
X129584572Y-81049056D01*
X129557484Y-81008515D01*
X129473300Y-80952265D01*
X129399069Y-80937500D01*
X127648934Y-80937500D01*
X127574698Y-80952266D01*
X127490515Y-81008515D01*
X127434265Y-81092699D01*
X127419500Y-81166930D01*
X127419500Y-82917065D01*
X125188500Y-82917065D01*
X125188499Y-81293934D01*
X125173734Y-81219699D01*
X125138477Y-81166934D01*
X125117484Y-81135515D01*
X125033300Y-81079265D01*
X124959069Y-81064500D01*
X123208934Y-81064500D01*
X123134698Y-81079266D01*
X123050515Y-81135515D01*
X122994265Y-81219699D01*
X122979500Y-81293931D01*
X122979500Y-81493740D01*
X122959815Y-81560779D01*
X122907011Y-81606534D01*
X122837853Y-81616478D01*
X122774297Y-81587453D01*
X122743118Y-81546145D01*
X122717599Y-81491421D01*
X122582109Y-81297921D01*
X122415081Y-81130893D01*
X122221576Y-80995399D01*
X122007492Y-80895569D01*
X121794000Y-80838364D01*
X121794000Y-81733498D01*
X121686315Y-81684320D01*
X121579763Y-81669000D01*
X121508237Y-81669000D01*
X121401685Y-81684320D01*
X121293999Y-81733498D01*
X121293999Y-80838364D01*
X121080507Y-80895569D01*
X120866421Y-80995400D01*
X120672921Y-81130890D01*
X120505890Y-81297921D01*
X120370400Y-81491421D01*
X120270569Y-81705507D01*
X120213364Y-81918999D01*
X120213364Y-81919000D01*
X121110314Y-81919000D01*
X121084507Y-81959156D01*
X121044000Y-82097111D01*
X121044000Y-82240889D01*
X121084507Y-82378844D01*
X121110314Y-82419000D01*
X120213364Y-82419000D01*
X111992266Y-82419000D01*
X111950351Y-82244411D01*
X111853944Y-82011663D01*
X111722314Y-81796863D01*
X111558702Y-81605298D01*
X111367137Y-81441686D01*
X111152337Y-81310056D01*
X111035962Y-81261852D01*
X110919588Y-81213648D01*
X110674627Y-81154839D01*
X110423478Y-81135073D01*
X110172328Y-81154839D01*
X109927367Y-81213648D01*
X109694617Y-81310057D01*
X109479820Y-81441685D01*
X109288254Y-81605298D01*
X109124641Y-81796864D01*
X108993013Y-82011661D01*
X108896604Y-82244411D01*
X108837795Y-82489372D01*
X108818029Y-82740521D01*
X107824076Y-82740521D01*
X107824173Y-82737048D01*
X107830268Y-82628486D01*
X107841162Y-82448795D01*
X107842683Y-82435560D01*
X107864996Y-82304230D01*
X107865598Y-82300950D01*
X107893261Y-82149985D01*
X107896061Y-82138077D01*
X107934356Y-82005149D01*
X107935071Y-82002762D01*
X107979763Y-81859337D01*
X107983576Y-81848806D01*
X108037429Y-81718790D01*
X108038836Y-81715533D01*
X108099505Y-81580729D01*
X108104034Y-81571677D01*
X108172685Y-81447462D01*
X108175035Y-81443397D01*
X108250861Y-81317964D01*
X108255809Y-81310417D01*
X108338358Y-81194073D01*
X108341743Y-81189534D01*
X108431828Y-81074547D01*
X108436911Y-81068475D01*
X108532108Y-80961948D01*
X108536820Y-80956964D01*
X108639926Y-80853857D01*
X108644904Y-80849148D01*
X108751444Y-80753937D01*
X108757533Y-80748841D01*
X108872463Y-80658798D01*
X108877063Y-80655366D01*
X108993402Y-80572818D01*
X109000902Y-80567900D01*
X109126369Y-80492051D01*
X109130398Y-80489721D01*
X109254655Y-80421045D01*
X109263690Y-80416524D01*
X109398505Y-80355847D01*
X109401689Y-80354472D01*
X109531788Y-80300582D01*
X109542298Y-80296777D01*
X109685751Y-80252073D01*
X109688053Y-80251383D01*
X109821020Y-80213075D01*
X109832938Y-80210272D01*
X109987170Y-80182006D01*
X110118503Y-80159691D01*
X110131737Y-80158171D01*
X110317949Y-80146905D01*
X110414901Y-80141459D01*
X110419220Y-80141217D01*
X110426172Y-80141022D01*
X171119999Y-80141022D01*
X171126950Y-80141216D01*
G37*
%TD.AperFunction*%
%TD*%
M02*
