%TF.GenerationSoftware,KiCad,Pcbnew,7.0.2*%
%TF.CreationDate,2023-05-11T00:09:11+08:00*%
%TF.ProjectId,LinuxDK,4c696e75-7844-44b2-9e6b-696361645f70,rev?*%
%TF.SameCoordinates,Original*%
%TF.FileFunction,Soldermask,Bot*%
%TF.FilePolarity,Negative*%
%FSLAX46Y46*%
G04 Gerber Fmt 4.6, Leading zero omitted, Abs format (unit mm)*
G04 Created by KiCad (PCBNEW 7.0.2) date 2023-05-11 00:09:11*
%MOMM*%
%LPD*%
G01*
G04 APERTURE LIST*
G04 Aperture macros list*
%AMRoundRect*
0 Rectangle with rounded corners*
0 $1 Rounding radius*
0 $2 $3 $4 $5 $6 $7 $8 $9 X,Y pos of 4 corners*
0 Add a 4 corners polygon primitive as box body*
4,1,4,$2,$3,$4,$5,$6,$7,$8,$9,$2,$3,0*
0 Add four circle primitives for the rounded corners*
1,1,$1+$1,$2,$3*
1,1,$1+$1,$4,$5*
1,1,$1+$1,$6,$7*
1,1,$1+$1,$8,$9*
0 Add four rect primitives between the rounded corners*
20,1,$1+$1,$2,$3,$4,$5,0*
20,1,$1+$1,$4,$5,$6,$7,0*
20,1,$1+$1,$6,$7,$8,$9,0*
20,1,$1+$1,$8,$9,$2,$3,0*%
G04 Aperture macros list end*
%ADD10C,1.000000*%
%ADD11R,1.600000X0.700000*%
%ADD12R,1.400000X1.200000*%
%ADD13R,1.400000X1.600000*%
%ADD14R,2.200000X1.200000*%
%ADD15R,1.700000X1.700000*%
%ADD16O,1.700000X1.700000*%
%ADD17C,0.650000*%
%ADD18O,2.100000X1.050000*%
%ADD19O,2.000000X1.000000*%
%ADD20RoundRect,0.200000X0.275000X-0.200000X0.275000X0.200000X-0.275000X0.200000X-0.275000X-0.200000X0*%
%ADD21RoundRect,0.225000X-0.225000X-0.250000X0.225000X-0.250000X0.225000X0.250000X-0.225000X0.250000X0*%
%ADD22RoundRect,0.225000X0.250000X-0.225000X0.250000X0.225000X-0.250000X0.225000X-0.250000X-0.225000X0*%
%ADD23RoundRect,0.200000X-0.200000X-0.275000X0.200000X-0.275000X0.200000X0.275000X-0.200000X0.275000X0*%
%ADD24RoundRect,0.150000X-0.150000X0.587500X-0.150000X-0.587500X0.150000X-0.587500X0.150000X0.587500X0*%
%ADD25RoundRect,0.200000X0.200000X0.275000X-0.200000X0.275000X-0.200000X-0.275000X0.200000X-0.275000X0*%
%ADD26RoundRect,0.218750X0.256250X-0.218750X0.256250X0.218750X-0.256250X0.218750X-0.256250X-0.218750X0*%
%ADD27RoundRect,0.225000X-0.250000X0.225000X-0.250000X-0.225000X0.250000X-0.225000X0.250000X0.225000X0*%
%ADD28R,0.800000X0.200000*%
%ADD29R,0.200000X0.800000*%
%ADD30R,1.750000X1.750000*%
%ADD31RoundRect,0.200000X-0.275000X0.200000X-0.275000X-0.200000X0.275000X-0.200000X0.275000X0.200000X0*%
%ADD32RoundRect,0.100000X-0.750000X0.150000X-0.750000X-0.150000X0.750000X-0.150000X0.750000X0.150000X0*%
%ADD33RoundRect,0.200000X-1.050000X0.400000X-1.050000X-0.400000X1.050000X-0.400000X1.050000X0.400000X0*%
%ADD34RoundRect,0.250000X-0.850000X0.375000X-0.850000X-0.375000X0.850000X-0.375000X0.850000X0.375000X0*%
%ADD35R,0.200000X0.850000*%
%ADD36R,0.850000X0.200000*%
%ADD37R,6.840000X6.840000*%
%ADD38RoundRect,0.250000X0.850000X-0.375000X0.850000X0.375000X-0.850000X0.375000X-0.850000X-0.375000X0*%
%ADD39RoundRect,0.062500X-0.062500X0.337500X-0.062500X-0.337500X0.062500X-0.337500X0.062500X0.337500X0*%
%ADD40RoundRect,0.062500X-0.337500X0.062500X-0.337500X-0.062500X0.337500X-0.062500X0.337500X0.062500X0*%
%ADD41R,3.350000X3.350000*%
%ADD42RoundRect,0.243750X0.243750X0.456250X-0.243750X0.456250X-0.243750X-0.456250X0.243750X-0.456250X0*%
%ADD43RoundRect,0.225000X0.225000X0.250000X-0.225000X0.250000X-0.225000X-0.250000X0.225000X-0.250000X0*%
%ADD44RoundRect,0.250000X0.375000X0.850000X-0.375000X0.850000X-0.375000X-0.850000X0.375000X-0.850000X0*%
G04 APERTURE END LIST*
D10*
%TO.C,J5*%
X166751000Y-91313000D03*
X166751000Y-99313000D03*
D11*
X156251000Y-98513000D03*
X156251000Y-97413000D03*
X156251000Y-96313000D03*
X156251000Y-95213000D03*
X156251000Y-94113000D03*
X156251000Y-93013000D03*
X156251000Y-91913000D03*
X156251000Y-90813000D03*
X156251000Y-89713000D03*
D12*
X156751000Y-88513000D03*
D13*
X156751000Y-103113000D03*
D14*
X166351000Y-88513000D03*
X166351000Y-104013000D03*
%TD*%
D15*
%TO.C,J7*%
X124084000Y-82169000D03*
D16*
X121544000Y-82169000D03*
%TD*%
D15*
%TO.C,J9*%
X148971000Y-82042000D03*
D16*
X151511000Y-82042000D03*
X154051000Y-82042000D03*
X156591000Y-82042000D03*
X159131000Y-82042000D03*
X161671000Y-82042000D03*
X164211000Y-82042000D03*
X166751000Y-82042000D03*
%TD*%
D17*
%TO.C,J4*%
X114202000Y-89554500D03*
X114202000Y-95334500D03*
D18*
X114702000Y-88124500D03*
D19*
X110522000Y-88124500D03*
X110522000Y-96764500D03*
D18*
X114702000Y-96764500D03*
%TD*%
D15*
%TO.C,J8*%
X128524000Y-82042000D03*
D16*
X131064000Y-82042000D03*
X133604000Y-82042000D03*
X136144000Y-82042000D03*
X138684000Y-82042000D03*
X141224000Y-82042000D03*
X143764000Y-82042000D03*
X146304000Y-82042000D03*
%TD*%
D15*
%TO.C,J11*%
X148971000Y-109982000D03*
D16*
X151511000Y-109982000D03*
X154051000Y-109982000D03*
X156591000Y-109982000D03*
X159131000Y-109982000D03*
X161671000Y-109982000D03*
X164211000Y-109982000D03*
X166751000Y-109982000D03*
%TD*%
D15*
%TO.C,J10*%
X128524000Y-109982000D03*
D16*
X131064000Y-109982000D03*
X133604000Y-109982000D03*
X136144000Y-109982000D03*
X138684000Y-109982000D03*
X141224000Y-109982000D03*
X143764000Y-109982000D03*
X146304000Y-109982000D03*
%TD*%
D20*
%TO.C,R8*%
X112572800Y-89725000D03*
X112572800Y-88075000D03*
%TD*%
D21*
%TO.C,C10*%
X126723000Y-87654000D03*
X128273000Y-87654000D03*
%TD*%
D22*
%TO.C,C27*%
X150050100Y-94450200D03*
X150050100Y-92900200D03*
%TD*%
D21*
%TO.C,C4*%
X118873000Y-86034800D03*
X120423000Y-86034800D03*
%TD*%
D23*
%TO.C,R17*%
X126673000Y-89159000D03*
X128323000Y-89159000D03*
%TD*%
D24*
%TO.C,Q1*%
X116972000Y-108839000D03*
X118872000Y-108839000D03*
X117922000Y-110714000D03*
%TD*%
D23*
%TO.C,R2*%
X115557800Y-82981800D03*
X117207800Y-82981800D03*
%TD*%
D20*
%TO.C,R33*%
X125349000Y-103227000D03*
X125349000Y-101577000D03*
%TD*%
D25*
%TO.C,R13*%
X120473000Y-88981200D03*
X118823000Y-88981200D03*
%TD*%
%TO.C,R22*%
X128309000Y-94011800D03*
X126659000Y-94011800D03*
%TD*%
D23*
%TO.C,R4*%
X118861800Y-107109500D03*
X120511800Y-107109500D03*
%TD*%
D26*
%TO.C,D3*%
X165912800Y-86283900D03*
X165912800Y-84708900D03*
%TD*%
D21*
%TO.C,C17*%
X130797000Y-92510000D03*
X132347000Y-92510000D03*
%TD*%
D24*
%TO.C,Q2*%
X120411200Y-108836700D03*
X122311200Y-108836700D03*
X121361200Y-110711700D03*
%TD*%
D23*
%TO.C,R1*%
X140720000Y-104516000D03*
X142370000Y-104516000D03*
%TD*%
D27*
%TO.C,C34*%
X134493000Y-86379000D03*
X134493000Y-87929000D03*
%TD*%
D20*
%TO.C,R11*%
X109829600Y-93027000D03*
X109829600Y-91377000D03*
%TD*%
D28*
%TO.C,IC2*%
X125047000Y-90494000D03*
X125047000Y-90894000D03*
X125047000Y-91294000D03*
X125047000Y-91694000D03*
X125047000Y-92094000D03*
D29*
X124347000Y-92794000D03*
X123947000Y-92794000D03*
X123547000Y-92794000D03*
X123147000Y-92794000D03*
X122747000Y-92794000D03*
D28*
X122047000Y-92094000D03*
X122047000Y-91694000D03*
X122047000Y-91294000D03*
X122047000Y-90894000D03*
X122047000Y-90494000D03*
D29*
X122747000Y-89794000D03*
X123147000Y-89794000D03*
X123547000Y-89794000D03*
X123947000Y-89794000D03*
X124347000Y-89794000D03*
D30*
X123547000Y-91294000D03*
%TD*%
D31*
%TO.C,R27*%
X151497900Y-92850200D03*
X151497900Y-94500200D03*
%TD*%
D27*
%TO.C,C2*%
X138736400Y-106229000D03*
X138736400Y-107779000D03*
%TD*%
D21*
%TO.C,C11*%
X126709000Y-97028000D03*
X128259000Y-97028000D03*
%TD*%
D22*
%TO.C,C29*%
X145161000Y-90310000D03*
X145161000Y-88760000D03*
%TD*%
D21*
%TO.C,C6*%
X118873000Y-87508000D03*
X120423000Y-87508000D03*
%TD*%
D20*
%TO.C,R10*%
X113030000Y-93027000D03*
X113030000Y-91377000D03*
%TD*%
D27*
%TO.C,C24*%
X145982200Y-106229000D03*
X145982200Y-107779000D03*
%TD*%
D23*
%TO.C,R25*%
X130747000Y-95805600D03*
X132397000Y-95805600D03*
%TD*%
D32*
%TO.C,J12*%
X112517000Y-101354000D03*
X112517000Y-102354000D03*
D33*
X109117000Y-100254000D03*
X109117000Y-103454000D03*
%TD*%
D20*
%TO.C,R7*%
X112572800Y-96837000D03*
X112572800Y-95187000D03*
%TD*%
D22*
%TO.C,C1*%
X144451400Y-107779000D03*
X144451400Y-106229000D03*
%TD*%
%TO.C,C22*%
X139014200Y-87929000D03*
X139014200Y-86379000D03*
%TD*%
D12*
%TO.C,Y1*%
X142688000Y-107867000D03*
X140488000Y-107867000D03*
X140488000Y-106167000D03*
X142688000Y-106167000D03*
%TD*%
D34*
%TO.C,L1*%
X119504000Y-92505000D03*
X119504000Y-94655000D03*
%TD*%
D23*
%TO.C,R26*%
X130747000Y-89538200D03*
X132397000Y-89538200D03*
%TD*%
D21*
%TO.C,C26*%
X150025100Y-100406200D03*
X151575100Y-100406200D03*
%TD*%
D25*
%TO.C,R16*%
X128323000Y-90601800D03*
X126673000Y-90601800D03*
%TD*%
D20*
%TO.C,R9*%
X111455200Y-93027000D03*
X111455200Y-91377000D03*
%TD*%
%TO.C,R34*%
X135966200Y-87979000D03*
X135966200Y-86329000D03*
%TD*%
D35*
%TO.C,IC1*%
X135754000Y-91697000D03*
X136154000Y-91697000D03*
X136554000Y-91697000D03*
X136954000Y-91697000D03*
X137354000Y-91697000D03*
X137754000Y-91697000D03*
X138154000Y-91697000D03*
X138554000Y-91697000D03*
X138954000Y-91697000D03*
X139354000Y-91697000D03*
X139754000Y-91697000D03*
X140154000Y-91697000D03*
X140554000Y-91697000D03*
X140954000Y-91697000D03*
X141354000Y-91697000D03*
X141754000Y-91697000D03*
X142154000Y-91697000D03*
X142554000Y-91697000D03*
X142954000Y-91697000D03*
X143354000Y-91697000D03*
X143754000Y-91697000D03*
X144154000Y-91697000D03*
D36*
X144904000Y-92447000D03*
X144904000Y-92847000D03*
X144904000Y-93247000D03*
X144904000Y-93647000D03*
X144904000Y-94047000D03*
X144904000Y-94447000D03*
X144904000Y-94847000D03*
X144904000Y-95247000D03*
X144904000Y-95647000D03*
X144904000Y-96047000D03*
X144904000Y-96447000D03*
X144904000Y-96847000D03*
X144904000Y-97247000D03*
X144904000Y-97647000D03*
X144904000Y-98047000D03*
X144904000Y-98447000D03*
X144904000Y-98847000D03*
X144904000Y-99247000D03*
X144904000Y-99647000D03*
X144904000Y-100047000D03*
X144904000Y-100447000D03*
X144904000Y-100847000D03*
D35*
X144154000Y-101597000D03*
X143754000Y-101597000D03*
X143354000Y-101597000D03*
X142954000Y-101597000D03*
X142554000Y-101597000D03*
X142154000Y-101597000D03*
X141754000Y-101597000D03*
X141354000Y-101597000D03*
X140954000Y-101597000D03*
X140554000Y-101597000D03*
X140154000Y-101597000D03*
X139754000Y-101597000D03*
X139354000Y-101597000D03*
X138954000Y-101597000D03*
X138554000Y-101597000D03*
X138154000Y-101597000D03*
X137754000Y-101597000D03*
X137354000Y-101597000D03*
X136954000Y-101597000D03*
X136554000Y-101597000D03*
X136154000Y-101597000D03*
X135754000Y-101597000D03*
D36*
X135004000Y-100847000D03*
X135004000Y-100447000D03*
X135004000Y-100047000D03*
X135004000Y-99647000D03*
X135004000Y-99247000D03*
X135004000Y-98847000D03*
X135004000Y-98447000D03*
X135004000Y-98047000D03*
X135004000Y-97647000D03*
X135004000Y-97247000D03*
X135004000Y-96847000D03*
X135004000Y-96447000D03*
X135004000Y-96047000D03*
X135004000Y-95647000D03*
X135004000Y-95247000D03*
X135004000Y-94847000D03*
X135004000Y-94447000D03*
X135004000Y-94047000D03*
X135004000Y-93647000D03*
X135004000Y-93247000D03*
X135004000Y-92847000D03*
X135004000Y-92447000D03*
D37*
X139954000Y-96647000D03*
%TD*%
D23*
%TO.C,R18*%
X126673000Y-92564000D03*
X128323000Y-92564000D03*
%TD*%
D21*
%TO.C,C12*%
X126723000Y-86130000D03*
X128273000Y-86130000D03*
%TD*%
D27*
%TO.C,C23*%
X147430000Y-106229000D03*
X147430000Y-107779000D03*
%TD*%
D21*
%TO.C,C13*%
X126709000Y-95612000D03*
X128259000Y-95612000D03*
%TD*%
D31*
%TO.C,R28*%
X151497900Y-95822000D03*
X151497900Y-97472000D03*
%TD*%
D38*
%TO.C,L3*%
X124563000Y-96941000D03*
X124563000Y-94791000D03*
%TD*%
D39*
%TO.C,U3*%
X119658000Y-99889000D03*
X120158000Y-99889000D03*
X120658000Y-99889000D03*
X121158000Y-99889000D03*
X121658000Y-99889000D03*
X122158000Y-99889000D03*
X122658000Y-99889000D03*
D40*
X123608000Y-100839000D03*
X123608000Y-101339000D03*
X123608000Y-101839000D03*
X123608000Y-102339000D03*
X123608000Y-102839000D03*
X123608000Y-103339000D03*
X123608000Y-103839000D03*
D39*
X122658000Y-104789000D03*
X122158000Y-104789000D03*
X121658000Y-104789000D03*
X121158000Y-104789000D03*
X120658000Y-104789000D03*
X120158000Y-104789000D03*
X119658000Y-104789000D03*
D40*
X118708000Y-103839000D03*
X118708000Y-103339000D03*
X118708000Y-102839000D03*
X118708000Y-102339000D03*
X118708000Y-101839000D03*
X118708000Y-101339000D03*
X118708000Y-100839000D03*
D41*
X121158000Y-102339000D03*
%TD*%
D25*
%TO.C,R3*%
X117565400Y-107109500D03*
X115915400Y-107109500D03*
%TD*%
D22*
%TO.C,C28*%
X150050100Y-97422000D03*
X150050100Y-95872000D03*
%TD*%
D23*
%TO.C,R14*%
X118823000Y-90405000D03*
X120473000Y-90405000D03*
%TD*%
D21*
%TO.C,C16*%
X130797000Y-94157800D03*
X132347000Y-94157800D03*
%TD*%
%TO.C,C25*%
X150025100Y-98933000D03*
X151575100Y-98933000D03*
%TD*%
D42*
%TO.C,F1*%
X120825500Y-96901000D03*
X118950500Y-96901000D03*
%TD*%
D43*
%TO.C,C15*%
X132347000Y-97253400D03*
X130797000Y-97253400D03*
%TD*%
D27*
%TO.C,C9*%
X122428000Y-94602000D03*
X122428000Y-96152000D03*
%TD*%
D43*
%TO.C,C3*%
X117132400Y-81483200D03*
X115582400Y-81483200D03*
%TD*%
D20*
%TO.C,R12*%
X167380500Y-86321400D03*
X167380500Y-84671400D03*
%TD*%
D22*
%TO.C,C21*%
X137541000Y-87929000D03*
X137541000Y-86379000D03*
%TD*%
D43*
%TO.C,C19*%
X130784600Y-100457000D03*
X132334600Y-100457000D03*
%TD*%
D21*
%TO.C,C18*%
X130797000Y-91011400D03*
X132347000Y-91011400D03*
%TD*%
D43*
%TO.C,C20*%
X130797000Y-99034600D03*
X132347000Y-99034600D03*
%TD*%
D44*
%TO.C,L2*%
X125003000Y-86722000D03*
X122853000Y-86722000D03*
%TD*%
D23*
%TO.C,R5*%
X121833600Y-107109500D03*
X123483600Y-107109500D03*
%TD*%
M02*
